<svg width="500" height="329" viewBox="0 0 500 329" fill="none" xmlns="http://www.w3.org/2000/svg">
<path d="M500 283.4H0V283.65H500V283.4Z" fill="#EBEBEB"/>
<path d="M449.9 299.49H428.22V299.74H449.9V299.49Z" fill="#EBEBEB"/>
<path d="M344.67 294.31H310.56V294.56H344.67V294.31Z" fill="#EBEBEB"/>
<path d="M441.12 290.21H396.59V290.46H441.12V290.21Z" fill="#EBEBEB"/>
<path d="M173.02 295.25H161.88V295.5H173.02V295.25Z" fill="#EBEBEB"/>
<path d="M152.97 295.25H114.58V295.5H152.97V295.25Z" fill="#EBEBEB"/>
<path d="M94.01 291.03H66.31V291.28H94.01V291.03Z" fill="#EBEBEB"/>
<path d="M216.07 101.88L216.52 88.74L208.46 86.1C208.114 81.647 207.391 77.2312 206.3 72.9L213.14 67.9L208.5 55.56L200.04 56.24C198.034 52.2642 195.692 48.467 193.04 44.89L197.42 37.58L188.42 27.97L180.86 31.84C177.46 28.9341 173.828 26.312 170 24L171.22 15.6L159.22 10.16L153.72 16.6C149.477 15.2427 145.129 14.2393 140.72 13.6L138.72 5.36999L125.54 4.91998L122.94 12.99C118.491 13.3397 114.079 14.0589 109.75 15.14L104.67 8.33998L92.33 12.95L93.01 21.41C89.0363 23.4463 85.2398 25.8112 81.66 28.48L74.3 24L64.65 33L68.52 40.6C65.6134 43.9825 63.0037 47.6093 60.72 51.44L52.33 50.18L46.85 62.18L53.33 67.67C51.9631 71.9104 50.9595 76.2594 50.33 80.67L42 82.76L41.55 95.9L49.65 98.54C49.9851 102.99 50.7044 107.404 51.8 111.73L44.96 116.73L49.61 129.08L58.07 128.4C60.0707 132.379 62.4128 136.176 65.07 139.75L60.68 147.06L69.68 156.67L77.24 152.8C80.6306 155.705 84.2564 158.324 88.08 160.63L86.82 169.02L98.82 174.47L104.35 168.03C108.593 169.4 112.941 170.42 117.35 171.08L119.35 179.31L132.53 179.76L135.13 171.69C139.581 171.336 143.996 170.617 148.33 169.54L153.33 176.34L165.67 171.73L165.03 163.27C168.996 161.221 172.792 158.856 176.38 156.2L183.65 160.58L193.3 151.58L189.43 143.98C192.338 140.598 194.947 136.971 197.23 133.14L205.62 134.4L211.1 122.4L204.62 116.9C206.01 112.663 207.03 108.313 207.67 103.9L216.07 101.88ZM127.28 144.45C116.968 144.102 106.991 140.703 98.6108 134.683C90.2307 128.664 83.8242 120.294 80.2016 110.633C76.579 100.972 75.9031 90.4534 78.2594 80.4081C80.6157 70.3628 85.8983 61.242 93.439 54.1994C100.98 47.1568 110.44 42.5089 120.622 40.8436C130.805 39.1783 141.253 40.5704 150.644 44.8438C160.036 49.1171 167.949 56.0799 173.382 64.8511C178.816 73.6224 181.526 83.8082 181.17 94.12C180.695 107.94 174.752 121.005 164.646 130.443C154.54 139.881 141.1 144.919 127.28 144.45Z" fill="#ECF8FF"/>
<path d="M441 58.42L444.31 55.33L443 52.72C443.999 51.5505 444.899 50.2994 445.69 48.98L448.59 49.41L450.46 45.27L448.24 43.38C448.718 41.9162 449.069 40.414 449.29 38.89L452.14 38.18L452.28 33.64L449.5 32.74C449.378 31.2024 449.13 29.6773 448.76 28.18L451.11 26.43L449.51 22.18L446.6 22.41C445.898 21.0393 445.086 19.7282 444.17 18.49L445.68 15.99L442.57 12.67L439.97 14C438.799 13.003 437.548 12.1033 436.23 11.31L436.65 8.41L432.52 6.51999L430.62 8.74999C429.153 8.29333 427.652 7.95885 426.13 7.74999L425.42 4.91L420.88 4.73999L419.97 7.53999C418.438 7.65706 416.92 7.90463 415.43 8.27999L413.69 5.92999L409.43 7.51999L409.67 10.44C408.295 11.1349 406.984 11.9479 405.75 12.87L403.23 11.36L399.91 14.45L401.2 17C400.193 18.1661 399.29 19.4175 398.5 20.74L395.61 20.31L393.73 24.45L395.96 26.35C395.498 27.8116 395.163 29.3105 394.96 30.83L392.1 31.54L391.96 36.08L394.75 36.98C394.864 38.5179 395.108 40.0434 395.48 41.54L393.12 43.28L394.72 47.53L397.64 47.31C398.342 48.6807 399.155 49.9917 400.07 51.23L398.56 53.73L401.67 57.05L404.27 55.72C405.439 56.7202 406.69 57.6201 408.01 58.41L407.58 61.3L411.72 63.19L413.62 60.97C415.088 61.4219 416.589 61.7563 418.11 61.97L418.82 64.81L423.36 64.98L424.27 62.18C425.802 62.0636 427.321 61.816 428.81 61.44L430.55 63.79L434.81 62.2L434.58 59.28C435.951 58.5841 437.259 57.7711 438.49 56.85L441 58.42ZM417.38 39.29C416.507 38.3543 415.931 37.1806 415.725 35.9174C415.519 34.6541 415.692 33.3582 416.222 32.1934C416.753 31.0287 417.617 30.0475 418.705 29.374C419.794 28.7004 421.057 28.3648 422.337 28.4096C423.616 28.4544 424.853 28.8775 425.891 29.6255C426.93 30.3735 427.723 31.4128 428.171 32.6118C428.619 33.8108 428.701 35.1157 428.407 36.3614C428.113 37.6071 427.457 38.7376 426.52 39.61C425.898 40.196 425.167 40.653 424.367 40.9544C423.568 41.2558 422.717 41.3957 421.863 41.3659C421.009 41.3362 420.17 41.1374 419.394 40.781C418.617 40.4247 417.919 39.9179 417.34 39.29H417.38Z" fill="#ECF8FF"/>
<path d="M343.55 131H343.48L326.16 130.41C325.809 130.404 325.466 130.309 325.161 130.134C324.857 129.959 324.602 129.71 324.42 129.41L319.75 121.56C317.233 120.639 314.798 119.509 312.47 118.18L305 119.47C304.652 119.534 304.293 119.508 303.958 119.397C303.622 119.285 303.32 119.09 303.08 118.83L291.25 106.17C291.002 105.908 290.825 105.586 290.738 105.236C290.65 104.885 290.654 104.518 290.75 104.17L292.64 96.76C291.469 94.3588 290.512 91.8592 289.78 89.29L282.25 84.09C281.958 83.8895 281.721 83.6184 281.562 83.3019C281.403 82.9855 281.327 82.6339 281.34 82.28L281.93 64.96C281.942 64.6103 282.039 64.2688 282.213 63.9655C282.388 63.6621 282.634 63.4061 282.93 63.22L290.8 58.55C291.708 56.0387 292.835 53.6126 294.17 51.3L292.79 43.77C292.725 43.4204 292.75 43.0602 292.862 42.7228C292.974 42.3854 293.169 42.0817 293.43 41.84L306.09 30.02C306.352 29.7708 306.673 29.593 307.023 29.5037C307.374 29.4144 307.741 29.4166 308.09 29.51L315.53 31.41C317.925 30.2384 320.418 29.2781 322.98 28.54L328.18 21.01C328.373 20.7109 328.643 20.4688 328.961 20.3088C329.279 20.1488 329.635 20.0767 329.99 20.1L347.3 20.7C347.652 20.7074 347.996 20.8028 348.302 20.9775C348.608 21.1522 348.865 21.4005 349.05 21.7L353.72 29.56C356.219 30.4775 358.635 31.6083 360.94 32.94L368.5 31.55C368.848 31.4853 369.207 31.5101 369.543 31.6221C369.878 31.734 370.18 31.9294 370.42 32.19L382.25 44.85C382.497 45.1132 382.672 45.4351 382.759 45.7851C382.847 46.1351 382.844 46.5016 382.75 46.85L380.85 54.28C382.022 56.6763 382.985 59.1688 383.73 61.73L391.25 66.93C391.542 67.1304 391.779 67.4015 391.938 67.718C392.097 68.0344 392.173 68.386 392.16 68.74L391.57 86.05C391.558 86.401 391.461 86.7438 391.287 87.0488C391.112 87.3537 390.866 87.6115 390.57 87.8L382.7 92.47C381.786 94.9754 380.659 97.3977 379.33 99.71L380.71 107.25C380.775 107.598 380.75 107.957 380.638 108.293C380.526 108.628 380.331 108.93 380.07 109.17L367.33 121C367.068 121.248 366.746 121.425 366.396 121.512C366.045 121.6 365.678 121.596 365.33 121.5L357.93 119.61C355.519 120.776 353.013 121.736 350.44 122.48L345.29 130C345.104 130.297 344.849 130.543 344.545 130.718C344.242 130.892 343.9 130.989 343.55 131ZM327.46 126.23L342.46 126.74L347.46 119.55C347.737 119.13 348.162 118.83 348.65 118.71C351.464 117.94 354.194 116.892 356.8 115.58C357.254 115.361 357.771 115.308 358.26 115.43L365.26 117.22L376.26 106.97L375 99.74C374.903 99.2347 374.995 98.7113 375.26 98.27C376.745 95.7938 377.969 93.1696 378.91 90.44C379.069 89.9451 379.403 89.5254 379.85 89.26L387.38 84.8L387.89 69.8L380.69 64.8C380.311 64.541 380.026 64.1653 379.88 63.73C379.88 63.68 379.88 63.62 379.88 63.56C379.11 60.7959 378.064 58.1158 376.76 55.56C376.529 55.1024 376.472 54.5763 376.6 54.08L378.4 47L368.15 36L360.96 37.32C360.458 37.411 359.94 37.3187 359.5 37.06C357.019 35.5717 354.392 34.342 351.66 33.39C351.503 33.3397 351.352 33.2727 351.21 33.19C350.922 33.0101 350.682 32.763 350.51 32.47L346 24.92L331 24.4L326 31.61C325.702 32.0326 325.262 32.3343 324.76 32.46C321.975 33.221 319.274 34.263 316.7 35.57C316.246 35.8015 315.723 35.8585 315.23 35.73L308.15 33.93L297.15 44.18L298.47 51.35C298.548 51.8022 298.482 52.2677 298.28 52.68L298.18 52.85C296.693 55.3356 295.469 57.9699 294.53 60.71C294.364 61.1798 294.039 61.5763 293.61 61.83L286.08 66.3L285.57 81.3L292.78 86.3C293.191 86.5812 293.489 86.9995 293.62 87.48C294.37 90.288 295.412 93.0096 296.73 95.6C296.801 95.7475 296.858 95.9015 296.9 96.06C296.975 96.389 296.975 96.7309 296.9 97.06L295.1 104.06L305.35 115.06L312.49 113.75C312.989 113.659 313.504 113.751 313.94 114.01C316.44 115.495 319.083 116.725 321.83 117.68C322.326 117.827 322.745 118.16 323 118.61L327.46 126.23ZM336.73 107.26C336.36 107.26 335.99 107.26 335.62 107.26C327.307 107.114 319.388 103.69 313.588 97.7336C307.787 91.7775 304.573 83.7712 304.646 75.4573C304.719 67.1434 308.073 59.195 313.978 53.3419C319.883 47.4888 327.861 44.2048 336.175 44.2048C344.489 44.2048 352.467 47.4888 358.372 53.3419C364.277 59.195 367.631 67.1434 367.704 75.4573C367.777 83.7712 364.563 91.7775 358.762 97.7336C352.962 103.69 345.043 107.114 336.73 107.26ZM336.73 48.17C329.466 48.2952 322.545 51.2851 317.474 56.4886C312.403 61.6921 309.593 68.6881 309.656 75.9534C309.719 83.2187 312.649 90.1651 317.808 95.2804C322.968 100.396 329.939 103.266 337.205 103.266C344.471 103.266 351.442 100.396 356.602 95.2804C361.761 90.1651 364.691 83.2187 364.754 75.9534C364.817 68.6881 362.007 61.6921 356.936 56.4886C351.865 51.2851 344.944 48.2952 337.68 48.17H336.73Z" fill="#504B4B"/>
<path d="M250 328.56C357.082 328.56 443.89 323.492 443.89 317.24C443.89 310.988 357.082 305.92 250 305.92C142.918 305.92 56.11 310.988 56.11 317.24C56.11 323.492 142.918 328.56 250 328.56Z" fill="#504B4B"/>
<path d="M128.68 72.58H128.5C124 70.83 121.31 69.13 119.91 67.08C118.814 67.2877 117.68 67.1332 116.68 66.64C115.508 66.0665 114.536 65.1536 113.89 64.02C113.55 64.2806 113.151 64.4511 112.728 64.5158C112.304 64.5805 111.872 64.5372 111.47 64.39C110.238 63.9289 109.186 63.084 108.47 61.98C108.022 62.3136 107.465 62.4671 106.91 62.41C103.91 62.17 99.91 56.25 99.62 49.95C99.6171 49.817 99.6652 49.688 99.7544 49.5894C99.8437 49.4908 99.9674 49.4302 100.1 49.42C100.166 49.4173 100.231 49.4276 100.293 49.4503C100.355 49.473 100.411 49.5076 100.46 49.5522C100.508 49.5968 100.547 49.6504 100.574 49.7101C100.602 49.7698 100.617 49.8343 100.62 49.9C100.9 55.9 104.73 61.23 107 61.41C107.165 61.4286 107.332 61.4143 107.492 61.3679C107.652 61.3216 107.8 61.2441 107.93 61.14C107.148 59.7143 106.657 58.1474 106.485 56.5303C106.313 54.9132 106.465 53.2782 106.93 51.72C107.79 48.72 108.55 47.54 109.47 47.72C111.19 48.15 110.96 54.72 110.05 59.01C109.912 59.7837 109.627 60.5238 109.21 61.19C109.8 62.1785 110.689 62.9528 111.75 63.4C112.033 63.5076 112.34 63.5319 112.636 63.4698C112.932 63.4078 113.204 63.2621 113.42 63.05C112.64 61.12 112.42 58.48 113.54 55.12C114.94 50.69 115.54 50.57 115.85 50.49C115.967 50.4655 116.088 50.473 116.2 50.5117C116.313 50.5505 116.413 50.619 116.49 50.71C117.42 51.76 116.31 58.64 115.15 62.04C115.014 62.4492 114.826 62.8391 114.59 63.2C115.127 64.2816 116.001 65.1591 117.08 65.7C117.788 66.0443 118.575 66.1928 119.36 66.13C119.27 65.94 119.19 65.75 119.11 65.55C118.32 63.4 118.71 60.93 120.3 57.97C121.35 56.02 122.21 55.1 123.01 55.1C123.222 55.1028 123.429 55.1665 123.607 55.2835C123.784 55.4005 123.924 55.5659 124.01 55.76C124.88 57.37 124.25 62.68 122.53 65.32C122.127 65.9252 121.567 66.4092 120.91 66.72C122.25 68.48 124.8 70.03 128.91 71.61C128.972 71.6322 129.028 71.6666 129.076 71.711C129.124 71.7554 129.163 71.8091 129.19 71.8687C129.217 71.9284 129.232 71.9929 129.234 72.0584C129.235 72.1239 129.224 72.189 129.2 72.25C129.161 72.3542 129.089 72.4428 128.995 72.5024C128.902 72.5619 128.791 72.5892 128.68 72.58ZM123 56.11C123 56.11 122.43 56.11 121.17 58.46C119.72 61.14 119.35 63.35 120.04 65.21C120.124 65.4403 120.224 65.6642 120.34 65.88C120.882 65.6562 121.342 65.2724 121.66 64.78C123.06 62.64 123.73 58.24 123.21 56.52C123.14 56.17 123 56.11 123 56.11ZM115.82 51.9C115.279 53.0385 114.831 54.2191 114.48 55.43C113.713 57.5287 113.581 59.8067 114.1 61.98L114.19 61.72C115.24 58.5503 115.8 55.2388 115.85 51.9H115.82ZM109.24 48.75C109.07 48.9 108.58 49.53 107.89 51.97C107.074 54.7083 107.331 57.6547 108.61 60.21C108.815 59.7629 108.966 59.2929 109.06 58.81C110.13 53.9 109.83 49.46 109.27 48.75H109.24Z" fill="#263238"/>
<path d="M166.7 125C165.101 125.015 163.527 124.605 162.14 123.81C162.026 123.741 161.943 123.631 161.909 123.502C161.876 123.373 161.894 123.236 161.96 123.12C161.993 123.064 162.037 123.014 162.089 122.975C162.141 122.936 162.201 122.908 162.264 122.892C162.328 122.876 162.393 122.873 162.458 122.883C162.523 122.893 162.584 122.916 162.64 122.95C166.21 125.04 170.82 123.58 171.77 122.05C171.839 121.954 171.887 121.845 171.913 121.73C171.939 121.615 171.941 121.496 171.92 121.38C170.094 121.485 168.287 120.97 166.79 119.92C164.24 118.33 164.04 117.85 164.06 117.47C164.065 117.361 164.099 117.255 164.159 117.163C164.219 117.072 164.302 116.998 164.4 116.95C165.4 116.45 169.91 118.52 171.79 119.76C172.015 119.91 172.223 120.084 172.41 120.28C173.149 120.112 173.815 119.713 174.31 119.14C174.589 118.812 174.791 118.426 174.9 118.01H174.7C173.1 118.17 171.5 117.48 169.79 115.9C168.61 114.82 168.16 114.07 168.31 113.48C168.355 113.314 168.447 113.165 168.575 113.05C168.703 112.935 168.86 112.858 169.03 112.83C170.41 112.48 173.83 113.94 175.22 115.47C175.53 115.803 175.75 116.209 175.86 116.65C177.17 116.04 178.55 114.65 180.18 112.38C180.218 112.326 180.266 112.28 180.322 112.245C180.378 112.209 180.44 112.185 180.505 112.174C180.57 112.163 180.637 112.165 180.701 112.18C180.765 112.194 180.826 112.222 180.88 112.26C180.987 112.338 181.059 112.455 181.082 112.586C181.104 112.716 181.075 112.851 181 112.96C179.11 115.6 177.53 117.1 175.95 117.71C175.868 118.449 175.565 119.146 175.08 119.71C174.504 120.38 173.747 120.869 172.9 121.12C172.948 121.359 172.947 121.604 172.899 121.843C172.851 122.082 172.756 122.308 172.62 122.51C171.78 123.94 169.36 125 166.7 125ZM165.81 118.06C166.15 118.31 166.63 118.64 167.32 119.06C168.395 119.785 169.631 120.238 170.92 120.38C169.31 119.415 167.596 118.636 165.81 118.06ZM169.3 113.81C169.587 114.351 169.986 114.825 170.47 115.2C171.95 116.57 173.3 117.2 174.6 117.04H174.92C174.849 116.729 174.697 116.443 174.48 116.21C173.08 114.63 170 113.65 169.3 113.81Z" fill="#263238"/>
<path d="M179.94 123.63L164.36 126.46L150.21 49.24L120.15 54.7L71.15 141.7L76.41 170.41L139.26 159L143.56 182.48L173.62 177L169.32 153.52L184.9 150.69L179.94 123.63ZM101.09 138L127.09 92.43L134.34 131.97L101.09 138Z" fill="#407BFF"/>
<path d="M305.43 44C304.957 39.1457 303.882 34.3691 302.23 29.78C300.531 25.3841 298.17 21.2735 295.23 17.59C291.75 13.3046 287.427 9.77863 282.53 7.23C277.197 4.30333 270.123 2.26667 261.31 1.12C243.01 -1.26667 228.75 1.98 218.53 10.86C208.31 19.74 201.577 36.74 198.33 61.86C197.034 71.2481 196.699 80.7439 197.33 90.2C197.997 98.8667 199.59 105.843 202.11 111.13C205.317 118.259 210.376 124.399 216.76 128.91C223.073 133.343 231.74 136.273 242.76 137.7C262.347 140.253 276.87 136.49 286.33 126.41C295.79 116.33 302.057 99.2967 305.13 75.31C306.496 64.9239 306.597 54.4104 305.43 44Z" fill="#407BFF"/>
<path d="M251.77 127.43C249.36 127.35 246.77 127.13 244.16 126.79C235 125.6 227.92 123.28 223.1 119.9C218.293 116.506 214.493 111.876 212.1 106.5L212.05 106.39C210.13 102.39 208.87 96.64 208.32 89.39C207.737 80.6814 208.046 71.936 209.24 63.29C212.81 35.57 220.18 24 225.73 19.18C232.21 13.56 240.96 11.02 252.46 11.42C254.82 11.5 257.32 11.71 259.89 12.04C267.27 13.04 273.12 14.64 277.26 16.9C280.837 18.7423 284.004 21.2902 286.57 24.39C288.815 27.1897 290.619 30.3157 291.92 33.66C293.249 37.3891 294.108 41.2688 294.48 45.21C295.546 54.7598 295.449 64.4037 294.19 73.93C291.42 95.47 286.06 110.61 278.27 118.93C272.49 125.09 263.82 127.93 251.76 127.47L251.77 127.43Z" fill="#263238"/>
<path d="M271.34 44.29L271.47 40.5L269.14 39.74C269.041 38.4581 268.833 37.1869 268.52 35.94L270.52 34.48L269.18 30.92L266.74 31.12C266.166 29.9758 265.497 28.882 264.74 27.85L266 25.74L263.4 22.97L261.22 24.09C260.245 23.2514 259.201 22.4954 258.1 21.83L258.45 19.41L254.99 17.84L253.41 19.7C252.186 19.3035 250.932 19.0092 249.66 18.82L249.07 16.45L245.27 16.32L244.52 18.64C243.239 18.7426 241.968 18.9499 240.72 19.26L239.25 17.26L235.69 18.59L235.89 21.03C234.746 21.6043 233.652 22.2733 232.62 23.03L230.52 21.76L227.74 24.35L228.86 26.54C228.019 27.5148 227.266 28.5622 226.61 29.67L224.19 29.3L222.61 32.76L224.48 34.34C224.074 35.5643 223.78 36.8228 223.6 38.1L221.22 38.7L221.09 42.48L223.42 43.24C223.518 44.5254 223.725 45.8 224.04 47.05L222.04 48.5L223.38 52.06L225.82 51.86C226.388 53.0074 227.057 54.1017 227.82 55.13L226.55 57.24L229.15 60.01L231.33 58.9C232.306 59.7354 233.349 60.488 234.45 61.15L234.09 63.57L237.55 65.14L239.14 63.29C240.367 63.6843 241.625 63.9753 242.9 64.16L243.49 66.54L247.28 66.67L248.03 64.34C249.315 64.2424 250.59 64.035 251.84 63.72L253.29 65.72L256.85 64.39L256.66 61.96C257.8 61.3784 258.893 60.7097 259.93 59.96L262.03 61.22L264.81 58.63L263.7 56.44C264.538 55.4685 265.287 54.4244 265.94 53.32L268.36 53.68L269.94 50.22L268.08 48.64C268.478 47.4175 268.769 46.1628 268.95 44.89L271.34 44.29ZM245.74 56.56C242.778 56.4518 239.915 55.4686 237.511 53.7344C235.108 52.0003 233.272 49.593 232.235 46.8163C231.198 44.0397 231.008 41.0181 231.687 38.1332C232.366 35.2482 233.884 32.629 236.051 30.6063C238.217 28.5836 240.934 27.2479 243.859 26.768C246.783 26.288 249.785 26.6853 252.484 27.9096C255.183 29.1339 257.459 31.1304 259.024 33.647C260.59 36.1637 261.375 39.0877 261.28 42.05C261.217 44.0245 260.764 45.9671 259.948 47.7662C259.132 49.5653 257.969 51.1855 256.525 52.5337C255.081 53.882 253.385 54.9317 251.534 55.6226C249.683 56.3136 247.714 56.6321 245.74 56.56Z" fill="#407BFF"/>
<path opacity="0.3" d="M287.12 113.87L287.4 111.31L285.86 110.69C285.858 109.819 285.784 108.949 285.64 108.09L287.03 107.2L286.32 104.73H284.66C284.332 103.927 283.934 103.154 283.47 102.42L284.41 101.06L282.81 99.06L281.28 99.7C280.66 99.0867 279.991 98.5248 279.28 98.02L279.65 96.4L277.4 95.16L276.22 96.35C275.416 96.0192 274.587 95.755 273.74 95.56L273.46 93.93L270.91 93.64L270.28 95.18C269.411 95.1841 268.545 95.2644 267.69 95.42L266.8 94L264.33 94.73V96.39C263.526 96.7219 262.753 97.1234 262.02 97.59L260.66 96.59L258.66 98.19L259.3 99.72C258.69 100.341 258.132 101.009 257.63 101.72L256.01 101.36L254.78 103.61L255.96 104.78C255.625 105.585 255.36 106.419 255.17 107.27L253.53 107.54L253.26 110.09L254.79 110.73C254.791 111.595 254.868 112.458 255.02 113.31L253.61 114.2L254.33 116.67H256C256.334 117.469 256.735 118.239 257.2 118.97L256.2 120.33L257.8 122.33L259.35 121.68C259.965 122.295 260.635 122.854 261.35 123.35L261 125L263.25 126.23L264.42 125.06C265.225 125.383 266.054 125.64 266.9 125.83L267.19 127.47L269.74 127.75L270.36 126.22C271.244 126.219 272.127 126.145 273 126L273.89 127.41L276.35 126.69V125.03C277.154 124.692 277.93 124.291 278.67 123.83L280.01 124.83L282.01 123.22L281.36 121.69C281.976 121.07 282.541 120.401 283.05 119.69L284.66 120.05L285.9 117.8L284.72 116.64C285.042 115.835 285.299 115.006 285.49 114.16L287.12 113.87ZM274.25 112.87C273.827 113.644 273.184 114.276 272.402 114.684C271.619 115.093 270.734 115.26 269.857 115.165C268.979 115.07 268.15 114.717 267.473 114.151C266.797 113.585 266.304 112.83 266.056 111.983C265.808 111.137 265.817 110.235 266.082 109.394C266.346 108.552 266.855 107.808 267.542 107.255C268.23 106.702 269.066 106.366 269.945 106.288C270.824 106.211 271.706 106.396 272.48 106.82C273.514 107.39 274.281 108.346 274.613 109.48C274.945 110.614 274.814 111.832 274.25 112.87Z" fill="#407BFF"/>
<path d="M301.29 70.65L298.29 68.59C297.995 67.5191 297.593 66.4806 297.09 65.49L297.85 62.49L293.53 57.86L290.53 58.42C289.578 57.8534 288.574 57.3811 287.53 57.01L285.68 53.89L279.35 53.68L277.29 56.68C276.218 56.9707 275.179 57.3729 274.19 57.88L271.19 57.11L266.56 61.44L267.12 64.44C266.545 65.3874 266.073 66.393 265.71 67.44L262.6 69.29L262.38 75.62L265.38 77.68C265.671 78.7588 266.073 79.8044 266.58 80.8L265.82 83.8L270.14 88.43L273.14 87.88C274.092 88.4457 275.097 88.9179 276.14 89.29L277.98 92.4L284.32 92.62L286.37 89.62C287.451 89.3266 288.5 88.9245 289.5 88.42L292.5 89.18L297.13 84.86L296.58 81.86C297.148 80.9092 297.621 79.9043 297.99 78.86L301.1 77.01L301.29 70.65ZM281.56 80.27C280.153 80.2217 278.791 79.7571 277.648 78.935C276.504 78.1128 275.63 76.9701 275.136 75.6513C274.643 74.3325 274.551 72.8968 274.873 71.5258C275.195 70.1549 275.916 68.9102 276.946 67.9493C277.975 66.9884 279.267 66.3543 280.657 66.1273C282.046 65.9003 283.472 66.0905 284.754 66.674C286.036 67.2574 287.116 68.2079 287.857 69.4051C288.599 70.6023 288.969 71.9926 288.92 73.4C288.852 75.286 288.039 77.0683 286.66 78.356C285.28 79.6438 283.446 80.3321 281.56 80.27Z" fill="#ECF8FF"/>
<path d="M323 20.12L323.52 18.87C323.874 18.6707 324.208 18.4398 324.52 18.18H325.68L327.04 16.18L326.6 15.11C326.768 14.7536 326.902 14.3819 327 14L328 13.08L327.58 10.73L326.32 10.21C326.122 9.85536 325.891 9.5205 325.63 9.20998V8.04999L323.68 6.68999L322.6 7.13998C322.205 7.00094 321.796 6.90701 321.38 6.85999L320.46 5.85999L318.12 6.27998L317.59 7.53999C317.219 7.73237 316.867 7.96009 316.54 8.21999H315.39L314.03 10.22L314.47 11.29C314.336 11.6861 314.242 12.0949 314.19 12.51L313.19 13.44L313.61 15.78L314.87 16.3C315.061 16.6564 315.289 16.9916 315.55 17.3V18.45L317.55 19.81L318.62 19.37C319.02 19.5 319.432 19.5904 319.85 19.64L320.77 20.64L323 20.12ZM318 13.64C317.905 13.1182 317.968 12.5801 318.179 12.0938C318.391 11.6075 318.741 11.1948 319.187 10.908C319.633 10.6211 320.154 10.473 320.685 10.4825C321.215 10.4919 321.73 10.6584 322.166 10.9609C322.601 11.2634 322.937 11.6883 323.131 12.1818C323.325 12.6753 323.368 13.2153 323.255 13.7334C323.142 14.2514 322.878 14.7243 322.496 15.0922C322.114 15.4601 321.632 15.7064 321.11 15.8C320.412 15.9225 319.693 15.7644 319.111 15.3599C318.528 14.9554 318.129 14.3372 318 13.64Z" fill="#407BFF"/>
<path d="M295.61 13.49L294.84 12.84C296.49 10.7933 298.529 9.09394 300.84 7.83997L301.31 8.71997C299.113 9.91636 297.175 11.5378 295.61 13.49Z" fill="#407BFF"/>
<path d="M303.59 7.8L303.2 6.87999C306.893 5.27524 310.931 4.6286 314.94 4.99999L314.84 5.99999C310.998 5.63786 307.127 6.25721 303.59 7.8Z" fill="#407BFF"/>
<path d="M301.7 14.72L300.88 14.16C303.289 10.9067 306.796 8.63652 310.75 7.77002L310.94 8.77002C307.244 9.57706 303.964 11.6896 301.7 14.72Z" fill="#407BFF"/>
<path d="M235.34 111C235.204 110.996 235.074 110.938 234.98 110.84L232.89 108.68C231.824 108.583 230.77 108.389 229.74 108.1L226.47 109.54C226.398 109.579 226.317 109.6 226.235 109.6C226.153 109.6 226.072 109.579 226 109.54L220.52 105.91C220.449 105.863 220.392 105.799 220.353 105.724C220.315 105.649 220.296 105.565 220.3 105.48V101.92C219.631 101.083 219.042 100.186 218.54 99.24L215.73 98.16C215.651 98.1295 215.582 98.0796 215.527 98.0149C215.473 97.9502 215.436 97.8728 215.42 97.79L214.12 91.35C214.103 91.2678 214.107 91.1825 214.131 91.1021C214.156 91.0217 214.2 90.9487 214.26 90.89L216.42 88.8C216.523 87.7354 216.717 86.6816 217 85.65L215.56 82.38C215.521 82.308 215.5 82.2271 215.5 82.145C215.5 82.0629 215.521 81.9821 215.56 81.91L219.19 76.43C219.235 76.3579 219.299 76.2993 219.375 76.2606C219.45 76.2218 219.535 76.2043 219.62 76.21L223.18 76.26C224.014 75.5878 224.912 74.9984 225.86 74.5L226.95 71.69C226.979 71.6121 227.027 71.5427 227.09 71.4885C227.153 71.4342 227.229 71.3969 227.31 71.38L233.75 70.08C233.832 70.0619 233.918 70.0652 233.998 70.0897C234.079 70.1142 234.152 70.1591 234.21 70.22L236.3 72.38C237.369 72.4775 238.426 72.6716 239.46 72.96L242.72 71.52C242.794 71.4806 242.876 71.46 242.96 71.46C243.044 71.46 243.126 71.4806 243.2 71.52L248.67 75.15C248.739 75.1986 248.796 75.2629 248.836 75.3376C248.876 75.4123 248.898 75.4953 248.9 75.58L248.84 79.14C249.512 79.9764 250.105 80.8736 250.61 81.82L253.41 82.91C253.488 82.9388 253.557 82.9869 253.612 83.0499C253.666 83.1129 253.703 83.1886 253.72 83.27L255.03 89.71C255.045 89.7923 255.041 89.8771 255.016 89.9572C254.992 90.0373 254.949 90.1103 254.89 90.17L252.72 92.27C252.62 93.3318 252.426 94.3826 252.14 95.41L253.58 98.68C253.619 98.7539 253.64 98.8363 253.64 98.92C253.64 99.0037 253.619 99.0862 253.58 99.16L250 104.59C249.953 104.658 249.89 104.713 249.817 104.752C249.744 104.79 249.663 104.81 249.58 104.81L246.01 104.76C245.173 105.423 244.279 106.012 243.34 106.52L242.25 109.33C242.22 109.409 242.171 109.479 242.106 109.534C242.041 109.588 241.963 109.625 241.88 109.64L235.44 111H235.34ZM229.71 107C229.756 106.991 229.804 106.991 229.85 107C230.93 107.315 232.039 107.519 233.16 107.61C233.28 107.624 233.392 107.677 233.48 107.76L235.48 109.86L241.38 108.67L242.44 105.93C242.489 105.819 242.574 105.728 242.68 105.67C243.679 105.153 244.621 104.533 245.49 103.82C245.582 103.743 245.7 103.703 245.82 103.71L249.29 103.76L252.61 98.76L251.21 95.58C251.17 95.4702 251.17 95.3499 251.21 95.24C251.519 94.1589 251.724 93.0504 251.82 91.93C251.83 91.8089 251.883 91.6954 251.97 91.61L254.07 89.61L252.88 83.71L250.15 82.65C250.033 82.6073 249.936 82.5215 249.88 82.41C249.361 81.4125 248.741 80.4709 248.03 79.6C247.959 79.5086 247.92 79.396 247.92 79.28V75.8L242.92 72.48L239.75 73.88C239.637 73.9205 239.513 73.9205 239.4 73.88C238.316 73.567 237.204 73.3627 236.08 73.27C235.96 73.2559 235.848 73.2032 235.76 73.12L233.76 71.02L227.86 72.22L226.81 75C226.768 75.1146 226.686 75.2104 226.58 75.27C225.577 75.7852 224.632 76.4054 223.76 77.12C223.717 77.159 223.666 77.1889 223.611 77.2078C223.556 77.2267 223.498 77.2343 223.44 77.23L219.97 77.18L216.64 82.18L218.04 85.36C218.072 85.4272 218.089 85.5006 218.089 85.575C218.089 85.6494 218.072 85.7228 218.04 85.79C217.744 86.8456 217.55 87.9273 217.46 89.02C217.451 89.1414 217.397 89.2552 217.31 89.34L215.21 91.34L216.41 97.24L219.13 98.3C219.251 98.3504 219.351 98.4427 219.41 98.56C219.926 99.5509 220.542 100.486 221.25 101.35C221.324 101.44 221.363 101.554 221.36 101.67V105.15L226.36 108.47L229.54 107.07C229.592 107.037 229.65 107.013 229.71 107ZM234.62 103.76C232.213 103.758 229.852 103.104 227.787 101.867C225.722 100.63 224.031 98.8563 222.893 96.735C221.756 94.6138 221.214 92.224 221.326 89.8196C221.438 87.4153 222.2 85.0862 223.53 83.08C224.802 81.1554 226.552 79.5938 228.608 78.5481C230.665 77.5023 232.957 77.0082 235.262 77.1141C237.567 77.2199 239.804 77.9221 241.756 79.1519C243.708 80.3818 245.308 82.0971 246.398 84.1303C247.488 86.1635 248.032 88.4448 247.977 90.7512C247.921 93.0576 247.268 95.31 246.081 97.2883C244.894 99.2666 243.214 100.903 241.205 102.037C239.196 103.172 236.927 103.765 234.62 103.76ZM224.37 83.63C223.024 85.6609 222.31 88.0453 222.319 90.4817C222.328 92.9181 223.059 95.2972 224.42 97.3181C225.781 99.3389 227.711 100.911 229.965 101.835C232.22 102.76 234.697 102.995 237.085 102.511C239.473 102.027 241.664 100.846 243.381 99.1176C245.098 97.3888 246.263 95.1898 246.731 92.7985C247.198 90.4073 246.945 87.9313 246.006 85.6834C245.066 83.4356 243.48 81.5169 241.45 80.17C240.104 79.2688 238.592 78.6432 237.002 78.3293C235.413 78.0154 233.777 78.0194 232.189 78.3411C230.601 78.6628 229.093 79.2958 227.751 80.2035C226.409 81.1113 225.26 82.2759 224.37 83.63Z" fill="white"/>
<path d="M425.83 132.65L410.13 130.53L420.51 52.72L390.23 48.64L316.78 116.26L312.92 145.19L376.21 153.73L373.05 177.4L403.33 181.48L406.49 157.82L422.19 159.94L425.83 132.65ZM346.41 121.93L385.17 86.6L379.85 126.44L346.41 121.93Z" fill="#407BFF"/>
<path d="M394.13 180.74H394C393.87 180.716 393.755 180.641 393.68 180.532C393.606 180.424 393.577 180.29 393.6 180.16L417 52.22C417.027 52.0915 417.102 51.9783 417.21 51.9038C417.318 51.8293 417.45 51.7993 417.58 51.82C417.71 51.8443 417.825 51.9189 417.9 52.0276C417.974 52.1362 418.003 52.2701 417.98 52.4L394.63 180.33C394.607 180.446 394.544 180.55 394.453 180.624C394.362 180.699 394.248 180.74 394.13 180.74Z" fill="#263238"/>
<path d="M414.83 54.37C414.822 54.5875 414.728 54.7929 414.569 54.9411C414.409 55.0892 414.197 55.168 413.98 55.16C413.763 55.1521 413.557 55.058 413.409 54.8986C413.261 54.7392 413.182 54.5275 413.19 54.31C413.198 54.0925 413.292 53.8871 413.451 53.739C413.611 53.5908 413.823 53.5121 414.04 53.52C414.257 53.528 414.463 53.622 414.611 53.7814C414.759 53.9408 414.838 54.1525 414.83 54.37Z" fill="#263238"/>
<path d="M411.5 71.67C411.494 71.832 411.44 71.9886 411.345 72.12C411.25 72.2514 411.118 72.3516 410.966 72.4081C410.814 72.4646 410.649 72.4747 410.491 72.4373C410.333 72.3998 410.19 72.3164 410.08 72.1977C409.97 72.0789 409.897 71.9301 409.871 71.77C409.845 71.61 409.867 71.4459 409.935 71.2984C410.002 71.151 410.112 71.0268 410.25 70.9417C410.388 70.8565 410.548 70.8142 410.71 70.82C410.818 70.8239 410.924 70.8489 411.022 70.8937C411.12 70.9386 411.208 71.0023 411.281 71.0812C411.355 71.1602 411.412 71.2528 411.449 71.3538C411.487 71.4548 411.504 71.5623 411.5 71.67Z" fill="#263238"/>
<path d="M408.17 89C408.166 89.1077 408.141 89.2136 408.096 89.3116C408.051 89.4096 407.988 89.4978 407.909 89.5712C407.83 89.6446 407.737 89.7016 407.636 89.7392C407.535 89.7767 407.428 89.794 407.32 89.79C407.213 89.7874 407.107 89.7635 407.009 89.7198C406.911 89.676 406.823 89.6133 406.749 89.5351C406.676 89.457 406.619 89.365 406.581 89.2646C406.543 89.1641 406.526 89.0572 406.53 88.95C406.533 88.8414 406.557 88.7344 406.601 88.6353C406.645 88.5361 406.709 88.4467 406.788 88.3723C406.867 88.2979 406.96 88.2399 407.062 88.2017C407.163 88.1636 407.272 88.146 407.38 88.15C407.597 88.1604 407.801 88.2551 407.948 88.414C408.096 88.5728 408.176 88.7832 408.17 89Z" fill="#263238"/>
<path d="M401.61 107C401.588 107.201 401.492 107.386 401.342 107.521C401.192 107.655 400.997 107.73 400.795 107.73C400.593 107.73 400.398 107.655 400.248 107.521C400.098 107.386 400.002 107.201 399.98 107C399.967 106.885 399.979 106.769 400.014 106.66C400.049 106.55 400.107 106.449 400.184 106.363C400.261 106.277 400.355 106.208 400.46 106.161C400.566 106.114 400.68 106.09 400.795 106.09C400.91 106.09 401.024 106.114 401.13 106.161C401.235 106.208 401.329 106.277 401.406 106.363C401.483 106.449 401.541 106.55 401.576 106.66C401.611 106.769 401.623 106.885 401.61 107Z" fill="#263238"/>
<path d="M401.5 123.57C401.497 123.678 401.473 123.785 401.429 123.883C401.385 123.982 401.321 124.071 401.242 124.144C401.162 124.218 401.069 124.275 400.968 124.312C400.866 124.349 400.758 124.365 400.65 124.36C400.488 124.354 400.331 124.3 400.2 124.205C400.069 124.11 399.968 123.978 399.912 123.826C399.855 123.674 399.845 123.509 399.883 123.351C399.92 123.193 400.004 123.05 400.122 122.94C400.241 122.83 400.39 122.757 400.55 122.731C400.71 122.705 400.874 122.727 401.022 122.795C401.169 122.862 401.293 122.972 401.378 123.11C401.463 123.248 401.506 123.408 401.5 123.57Z" fill="#263238"/>
<path d="M398.17 140.87C398.166 141.033 398.114 141.19 398.02 141.323C397.926 141.456 397.795 141.558 397.643 141.616C397.491 141.674 397.325 141.685 397.167 141.649C397.008 141.612 396.864 141.53 396.753 141.411C396.642 141.293 396.568 141.144 396.541 140.984C396.515 140.823 396.536 140.659 396.604 140.511C396.671 140.362 396.78 140.238 396.919 140.152C397.057 140.067 397.218 140.024 397.38 140.03C397.596 140.038 397.8 140.13 397.948 140.288C398.095 140.445 398.175 140.654 398.17 140.87Z" fill="#263238"/>
<path d="M394.84 158.17C394.832 158.388 394.739 158.595 394.579 158.745C394.42 158.894 394.208 158.975 393.99 158.97C393.882 158.966 393.776 158.941 393.678 158.896C393.58 158.851 393.492 158.788 393.419 158.709C393.345 158.63 393.288 158.537 393.251 158.436C393.213 158.335 393.196 158.228 393.2 158.12C393.203 158.012 393.228 157.906 393.272 157.808C393.316 157.71 393.379 157.621 393.458 157.547C393.536 157.474 393.629 157.416 393.729 157.378C393.83 157.34 393.937 157.322 394.045 157.325C394.153 157.328 394.259 157.353 394.357 157.397C394.455 157.441 394.544 157.504 394.617 157.583C394.691 157.661 394.749 157.754 394.787 157.854C394.825 157.955 394.843 158.062 394.84 158.17Z" fill="#263238"/>
<path d="M391.5 175.48C391.494 175.642 391.44 175.799 391.345 175.93C391.25 176.061 391.118 176.162 390.966 176.218C390.814 176.275 390.649 176.285 390.491 176.247C390.333 176.21 390.19 176.127 390.08 176.008C389.97 175.889 389.897 175.74 389.871 175.58C389.845 175.42 389.867 175.256 389.935 175.108C390.002 174.961 390.112 174.837 390.25 174.752C390.388 174.667 390.548 174.624 390.71 174.63C390.818 174.633 390.925 174.657 391.023 174.701C391.122 174.745 391.211 174.809 391.284 174.888C391.358 174.968 391.415 175.061 391.452 175.162C391.489 175.264 391.505 175.372 391.5 175.48Z" fill="#263238"/>
<path d="M400.79 107.45C400.677 107.45 400.568 107.411 400.481 107.34C400.393 107.269 400.333 107.17 400.31 107.06C400.295 106.996 400.293 106.929 400.305 106.864C400.316 106.799 400.34 106.737 400.375 106.681C400.41 106.625 400.456 106.577 400.51 106.539C400.564 106.501 400.626 106.474 400.69 106.46L403.17 105.93C403.235 105.915 403.302 105.914 403.368 105.926C403.434 105.937 403.496 105.962 403.552 105.999C403.608 106.035 403.656 106.082 403.694 106.137C403.731 106.193 403.757 106.255 403.77 106.32C403.783 106.384 403.783 106.451 403.771 106.515C403.759 106.58 403.733 106.641 403.697 106.696C403.661 106.751 403.614 106.798 403.56 106.834C403.506 106.871 403.444 106.897 403.38 106.91L400.9 107.44L400.79 107.45Z" fill="#263238"/>
<path d="M409.08 98.24C407.9 101.3 406.899 104.425 406.08 107.6C405.33 111.13 405.29 119.03 405.29 119.03" fill="#263238"/>
<path d="M405.29 119.53C405.157 119.525 405.032 119.469 404.939 119.374C404.846 119.28 404.792 119.153 404.79 119.02C404.79 118.7 404.85 111.02 405.6 107.5C406.414 104.297 407.416 101.145 408.6 98.06C408.62 97.9942 408.653 97.9332 408.698 97.8809C408.743 97.8286 408.798 97.786 408.859 97.7559C408.921 97.7258 408.989 97.7088 409.057 97.7059C409.126 97.703 409.195 97.7143 409.259 97.7392C409.323 97.764 409.381 97.8018 409.43 97.8502C409.479 97.8986 409.517 97.9566 409.543 98.0205C409.568 98.0844 409.58 98.1529 409.578 98.2216C409.576 98.2903 409.56 98.3579 409.53 98.42C408.352 101.456 407.35 104.558 406.53 107.71C405.8 111.15 405.75 118.95 405.74 119.03C405.741 119.154 405.695 119.275 405.612 119.367C405.528 119.459 405.414 119.518 405.29 119.53Z" fill="#263238"/>
<path d="M222.45 205.84C223.84 183.44 221.29 142.71 263.4 148.11C308.53 153.88 295.62 206.66 295.62 206.66L222.45 205.84Z" fill="#263238"/>
<path d="M251.51 192.38C261.661 192.38 269.89 184.151 269.89 174C269.89 163.849 261.661 155.62 251.51 155.62C241.359 155.62 233.13 163.849 233.13 174C233.13 184.151 241.359 192.38 251.51 192.38Z" fill="#ECF8FF"/>
<path d="M253.93 155.65C245.22 154.17 235.93 160.58 235 167.08L269.51 170.26C268.29 162.85 260.83 156.83 253.93 155.65Z" fill="#263238"/>
<path d="M265.58 173.54C265.33 178.35 262.71 182.12 259.73 181.96C256.75 181.8 254.53 177.79 254.73 172.96C254.93 168.13 257.6 164.38 260.58 164.54C263.56 164.7 265.82 168.74 265.58 173.54Z" fill="#263238"/>
<path d="M251.51 193.38C247.677 193.38 243.93 192.243 240.743 190.114C237.556 187.984 235.072 184.958 233.605 181.416C232.138 177.875 231.755 173.978 232.502 170.219C233.25 166.46 235.096 163.007 237.806 160.296C240.517 157.586 243.97 155.74 247.729 154.992C251.489 154.245 255.385 154.628 258.926 156.095C262.468 157.562 265.494 160.046 267.624 163.233C269.753 166.42 270.89 170.167 270.89 174C270.885 179.138 268.841 184.065 265.208 187.698C261.575 191.331 256.648 193.375 251.51 193.38ZM251.51 156.63C248.072 156.63 244.711 157.65 241.853 159.56C238.995 161.47 236.767 164.185 235.452 167.361C234.137 170.538 233.793 174.033 234.465 177.404C235.136 180.776 236.792 183.873 239.224 186.303C241.656 188.733 244.753 190.388 248.125 191.057C251.498 191.727 254.992 191.381 258.168 190.064C261.344 188.747 264.057 186.518 265.966 183.659C267.874 180.799 268.892 177.438 268.89 174C268.885 169.393 267.052 164.977 263.793 161.72C260.535 158.463 256.117 156.633 251.51 156.63Z" fill="#407BFF"/>
<path opacity="0.3" d="M290.49 205.28H290.37C290.306 205.266 290.245 205.239 290.191 205.201C290.138 205.163 290.092 205.115 290.058 205.059C290.023 205.003 290 204.94 289.99 204.875C289.98 204.81 289.984 204.744 290 204.68C290 204.55 293.22 190.99 289.91 177.28C289.878 177.147 289.9 177.008 289.972 176.891C290.043 176.775 290.157 176.692 290.29 176.66C290.423 176.628 290.562 176.65 290.679 176.722C290.795 176.793 290.878 176.907 290.91 177.04C294.28 191.04 291.03 204.78 291 204.91C290.97 205.021 290.903 205.118 290.811 205.185C290.718 205.253 290.605 205.286 290.49 205.28Z" fill="white"/>
<path opacity="0.3" d="M287.7 169.76C287.604 169.759 287.51 169.731 287.429 169.68C287.348 169.629 287.282 169.556 287.24 169.47C285.997 166.723 284.404 164.148 282.5 161.81C282.417 161.708 282.378 161.577 282.391 161.446C282.404 161.315 282.468 161.194 282.57 161.11C282.621 161.067 282.68 161.035 282.743 161.016C282.807 160.996 282.874 160.99 282.94 160.996C283.006 161.003 283.07 161.022 283.128 161.054C283.187 161.085 283.238 161.128 283.28 161.18C285.231 163.586 286.867 166.231 288.15 169.05C288.178 169.109 288.195 169.173 288.198 169.238C288.202 169.304 288.192 169.369 288.169 169.431C288.147 169.492 288.112 169.549 288.068 169.597C288.023 169.645 287.97 169.683 287.91 169.71C287.844 169.741 287.773 169.758 287.7 169.76Z" fill="white"/>
<path d="M128.73 310.92H128.36C127.034 310.883 125.777 310.32 124.865 309.357C123.954 308.393 123.463 307.106 123.5 305.78C123.537 304.454 124.1 303.197 125.063 302.285C126.027 301.374 127.314 300.883 128.64 300.92H128.73C131.62 300.92 138.57 297.41 153.11 274.49C153.496 273.881 154.009 273.363 154.614 272.971C155.219 272.579 155.901 272.323 156.615 272.219C157.328 272.116 158.055 272.168 158.746 272.372C159.438 272.575 160.077 272.926 160.62 273.4C172.039 283.216 184.492 291.76 197.76 298.88C198.374 299.159 198.925 299.56 199.38 300.058C199.835 300.556 200.185 301.14 200.408 301.777C200.632 302.414 200.724 303.089 200.679 303.762C200.634 304.435 200.454 305.092 200.149 305.693C199.844 306.295 199.42 306.829 198.903 307.262C198.387 307.696 197.787 308.02 197.142 308.216C196.496 308.412 195.818 308.475 195.147 308.402C194.477 308.329 193.828 308.121 193.24 307.79C180.909 301.237 169.252 293.487 158.44 284.65C146.25 303 137.21 310.92 128.73 310.92Z" fill="#263238"/>
<path d="M159.67 272.5H159.24C158.454 272.386 157.746 271.965 157.269 271.33C156.793 270.694 156.589 269.896 156.7 269.11C157.41 264.11 156.53 245.48 150.22 230.98C149.94 230.339 149.893 229.621 150.086 228.949C150.28 228.277 150.702 227.694 151.28 227.3C164.98 217.97 194.16 216.85 195.4 216.81C195.794 216.797 196.187 216.861 196.556 217C196.925 217.139 197.263 217.349 197.551 217.618C197.838 217.887 198.07 218.211 198.233 218.57C198.396 218.929 198.487 219.316 198.5 219.71C198.513 220.104 198.449 220.497 198.31 220.866C198.171 221.235 197.961 221.573 197.692 221.861C197.423 222.148 197.099 222.38 196.74 222.543C196.381 222.706 195.994 222.797 195.6 222.81C195.33 222.81 169.82 223.81 156.72 231.01C162.3 245.45 163.57 263.44 162.64 269.95C162.532 270.66 162.173 271.308 161.628 271.776C161.083 272.244 160.388 272.501 159.67 272.5Z" fill="#263238"/>
<path d="M164.71 268.62C162.71 263.91 153.71 264.44 148.44 268.48C145.62 270.63 141.8 277.12 141.44 279.48C141.32 280.041 141.338 280.622 141.492 281.174C141.647 281.727 141.933 282.233 142.327 282.65C142.72 283.068 143.209 283.383 143.751 283.569C144.294 283.755 144.873 283.807 145.44 283.72C148.89 283.42 153.62 278.41 153.62 278.41C150.47 281.5 154.54 283.68 160.62 279.21C163.94 276.72 166.94 273.89 164.71 268.62Z" fill="#407BFF"/>
<path d="M336.71 207.16C336.664 207.17 336.616 207.17 336.57 207.16C336.506 207.143 336.447 207.113 336.395 207.072C336.343 207.031 336.3 206.98 336.268 206.923C336.236 206.865 336.216 206.801 336.21 206.735C336.203 206.669 336.21 206.603 336.23 206.54C337.56 201.9 339.01 199.07 340.92 197.54C340.621 196.465 340.677 195.321 341.08 194.28C341.546 193.065 342.369 192.019 343.44 191.28C343.149 190.965 342.942 190.582 342.839 190.166C342.736 189.75 342.739 189.314 342.85 188.9C343.212 187.647 343.961 186.541 344.99 185.74C344.619 185.325 344.416 184.787 344.42 184.23C344.42 181.23 349.93 176.71 356.18 175.85C356.313 175.831 356.447 175.866 356.554 175.947C356.661 176.028 356.731 176.147 356.75 176.28C356.769 176.413 356.734 176.547 356.653 176.654C356.572 176.761 356.453 176.831 356.32 176.85C350.38 177.66 345.4 181.96 345.42 184.23C345.418 184.568 345.547 184.895 345.78 185.14C347.125 184.228 348.639 183.593 350.232 183.272C351.825 182.951 353.466 182.95 355.06 183.27C358.13 183.86 359.38 184.51 359.24 185.44C358.96 187.19 352.43 187.56 348.05 187.04C347.265 186.969 346.502 186.748 345.8 186.39C344.857 187.061 344.156 188.019 343.8 189.12C343.714 189.411 343.715 189.722 343.802 190.013C343.889 190.304 344.058 190.563 344.29 190.76C346.15 189.76 348.76 189.4 352.21 190.16C356.74 191.16 356.91 191.71 357.02 192.04C357.055 192.157 357.058 192.281 357.028 192.399C356.998 192.517 356.937 192.624 356.85 192.71C355.9 193.71 348.95 193.24 345.46 192.38C345.039 192.284 344.632 192.133 344.25 191.93C343.217 192.558 342.422 193.511 341.99 194.64C341.701 195.37 341.622 196.167 341.76 196.94C341.938 196.834 342.122 196.737 342.31 196.65C344.38 195.65 346.88 195.83 349.97 197.15C351.97 198.02 352.97 198.8 353.07 199.59C353.074 199.793 353.024 199.993 352.923 200.169C352.823 200.345 352.677 200.491 352.5 200.59C350.97 201.59 345.63 201.45 342.85 199.97C342.211 199.623 341.678 199.108 341.31 198.48C339.68 199.98 338.36 202.65 337.16 206.84C337.124 206.931 337.062 207.009 336.982 207.066C336.902 207.123 336.808 207.156 336.71 207.16ZM342.13 197.83C342.408 198.347 342.833 198.772 343.35 199.05C345.61 200.25 350.05 200.52 351.71 199.85C352.05 199.71 352.1 199.6 352.1 199.6C352.1 199.6 352.05 199.04 349.6 197.99C346.8 196.79 344.6 196.62 342.77 197.47C342.549 197.576 342.336 197.697 342.13 197.83ZM345.47 191.26L345.72 191.33C348.976 192.081 352.328 192.333 355.66 192.08C354.478 191.642 353.26 191.307 352.02 191.08C349.866 190.497 347.588 190.559 345.47 191.26ZM346.73 185.64C347.192 185.806 347.672 185.913 348.16 185.96C353.16 186.55 357.55 185.86 358.16 185.23C357.99 185.08 357.32 184.65 354.84 184.18C352.049 183.623 349.151 184.145 346.73 185.64Z" fill="#263238"/>
<path d="M206.53 309.25C207.19 309.04 206.97 308.4 206.23 308.4H192.69C166.91 305.67 148.9 309.33 160.25 310.19C171.6 311.05 159.45 310.87 151.16 314.01C142.87 317.15 212.81 317.94 219.16 314.01C225 310.39 197.39 312.18 206.53 309.25Z" fill="#263238"/>
<path d="M303.47 313.24L185.67 309.33L180.78 195.11L319.89 198.22L303.47 313.24Z" fill="#407BFF"/>
<path d="M222.45 311.05C222.324 311.05 222.203 311.003 222.11 310.918C222.017 310.833 221.96 310.716 221.95 310.59L212.51 195.87C212.502 195.738 212.545 195.608 212.631 195.507C212.717 195.406 212.838 195.343 212.97 195.33C213.102 195.324 213.23 195.368 213.331 195.454C213.431 195.539 213.495 195.659 213.51 195.79L223 310.51C223.005 310.576 222.998 310.642 222.978 310.705C222.958 310.767 222.925 310.826 222.882 310.876C222.84 310.926 222.787 310.967 222.729 310.997C222.67 311.027 222.606 311.045 222.54 311.05H222.45Z" fill="#263238"/>
<path d="M303.47 313.24L335.13 308.42L345.1 202.21L319.89 198.22L303.47 313.24Z" fill="#407BFF"/>
<path opacity="0.2" d="M303.47 313.24L335.13 308.42L345.1 202.21L319.89 198.22L303.47 313.24Z" fill="black"/>
<path d="M195.73 287.32L192.83 219.45C192.758 217.773 193.032 216.1 193.633 214.533C194.234 212.966 195.15 211.539 196.324 210.34C197.498 209.142 198.906 208.196 200.46 207.563C202.015 206.93 203.682 206.623 205.36 206.66L293.42 208.66C295.154 208.699 296.86 209.106 298.425 209.852C299.991 210.599 301.38 211.669 302.502 212.992C303.624 214.315 304.452 215.861 304.933 217.527C305.413 219.194 305.535 220.943 305.29 222.66L295.53 291C295.108 293.993 293.595 296.725 291.283 298.672C288.971 300.619 286.021 301.644 283 301.55L207.61 299.05C204.515 298.955 201.571 297.692 199.367 295.517C197.164 293.342 195.865 290.413 195.73 287.32Z" fill="#263238"/>
<path d="M205.25 227.49L218.87 227.92L218.76 231.43L210.23 231.16L210.15 233.78L218.06 234.03L217.95 237.39L210.04 237.13L209.94 240.38L218.71 240.66L218.59 244.38L204.72 243.94L205.25 227.49Z" fill="#ECF8FF"/>
<path d="M221.4 244.47L221.92 228.02L230.4 228.29C231.616 228.284 232.826 228.459 233.99 228.81C234.815 229.086 235.521 229.637 235.99 230.37C236.338 230.904 236.571 231.504 236.677 232.132C236.783 232.76 236.758 233.404 236.604 234.022C236.45 234.64 236.171 235.22 235.783 235.726C235.395 236.231 234.907 236.651 234.35 236.96C233.781 237.253 233.171 237.455 232.54 237.56C233.005 237.71 233.446 237.925 233.85 238.2C234.142 238.471 234.403 238.773 234.63 239.1C234.888 239.411 235.115 239.746 235.31 240.1L237.62 244.95L231.88 244.76L229.32 239.65C229.117 239.162 228.818 238.72 228.44 238.35C228.081 238.09 227.653 237.944 227.21 237.93H226.76L226.55 244.6L221.4 244.47ZM226.82 234.85L228.96 234.92C229.414 234.892 229.866 234.829 230.31 234.73C230.645 234.679 230.948 234.504 231.16 234.24C231.376 233.973 231.499 233.643 231.51 233.3C231.529 233.071 231.497 232.841 231.415 232.627C231.334 232.412 231.206 232.219 231.04 232.06C230.482 231.699 229.823 231.528 229.16 231.57L226.92 231.5L226.82 234.85Z" fill="#ECF8FF"/>
<path d="M239.28 245L239.8 228.55L248.27 228.82C249.486 228.813 250.696 228.988 251.86 229.34C252.687 229.613 253.394 230.165 253.86 230.9C254.368 231.701 254.606 232.644 254.54 233.59C254.543 234.388 254.33 235.172 253.923 235.859C253.516 236.545 252.931 237.109 252.23 237.49C251.661 237.781 251.05 237.984 250.42 238.09C250.882 238.239 251.32 238.455 251.72 238.73C252.019 238.993 252.284 239.292 252.51 239.62C252.766 239.933 252.993 240.267 253.19 240.62L255.5 245.46L249.76 245.28L247.2 240.17C246.995 239.683 246.696 239.241 246.32 238.87C245.963 238.6 245.528 238.453 245.08 238.45H244.64L244.42 245.13L239.28 245ZM244.69 235.38L246.84 235.44C247.295 235.423 247.747 235.363 248.19 235.26C248.523 235.211 248.823 235.035 249.03 234.77C249.254 234.508 249.378 234.175 249.38 233.83C249.402 233.602 249.372 233.372 249.292 233.157C249.212 232.943 249.085 232.749 248.92 232.59C248.362 232.221 247.697 232.048 247.03 232.1L244.8 232.03L244.69 235.38Z" fill="#ECF8FF"/>
<path d="M256.32 237.36C256.243 236.212 256.421 235.061 256.841 233.99C257.262 232.919 257.914 231.955 258.752 231.166C259.589 230.377 260.591 229.784 261.685 229.428C262.779 229.073 263.939 228.964 265.08 229.11C266.232 229.072 267.379 229.265 268.455 229.679C269.53 230.093 270.511 230.719 271.34 231.52C272.08 232.372 272.638 233.365 272.982 234.439C273.326 235.514 273.448 236.647 273.34 237.77C273.348 239.404 272.964 241.015 272.22 242.47C271.546 243.66 270.538 244.627 269.32 245.25C267.885 245.936 266.297 246.239 264.71 246.13C263.128 246.143 261.563 245.802 260.13 245.13C258.91 244.468 257.915 243.459 257.27 242.23C256.514 240.724 256.185 239.04 256.32 237.36ZM261.4 237.54C261.25 238.801 261.536 240.074 262.21 241.15C262.525 241.502 262.908 241.787 263.336 241.988C263.764 242.188 264.228 242.301 264.7 242.319C265.172 242.336 265.643 242.259 266.084 242.091C266.526 241.923 266.929 241.667 267.27 241.34C268.011 240.217 268.363 238.882 268.27 237.54C268.404 236.335 268.11 235.121 267.44 234.11C267.137 233.761 266.762 233.481 266.341 233.289C265.92 233.097 265.463 232.999 265 233C264.533 232.966 264.065 233.039 263.63 233.212C263.196 233.385 262.806 233.655 262.49 234C261.733 235.021 261.348 236.27 261.4 237.54Z" fill="#ECF8FF"/>
<path d="M275.91 246.21L276.43 229.75L284.9 230.02C286.116 230.018 287.325 230.193 288.49 230.54C289.313 230.821 290.017 231.37 290.49 232.1C290.995 232.902 291.233 233.844 291.17 234.79C291.175 235.59 290.962 236.376 290.556 237.064C290.149 237.753 289.563 238.318 288.86 238.7C288.288 238.983 287.679 239.182 287.05 239.29C287.513 239.442 287.951 239.661 288.35 239.94C288.649 240.203 288.914 240.502 289.14 240.83C289.398 241.141 289.625 241.476 289.82 241.83L292.13 246.68L286.39 246.5L283.83 241.38C283.626 240.895 283.327 240.456 282.95 240.09C282.591 239.822 282.158 239.671 281.71 239.66H281.27L281.05 246.34L275.91 246.21ZM281.32 236.58L283.47 236.65C283.925 236.633 284.377 236.572 284.82 236.47C285.151 236.417 285.451 236.242 285.66 235.98C285.896 235.701 286.021 235.345 286.01 234.98C286.032 234.754 286.001 234.525 285.922 234.312C285.842 234.099 285.715 233.907 285.55 233.75C284.992 233.38 284.327 233.208 283.66 233.26L281.43 233.19L281.32 236.58Z" fill="#ECF8FF"/>
<path d="M284 274.16C283.812 274.164 283.626 274.127 283.454 274.053C283.281 273.979 283.127 273.869 283 273.73L274.44 264.36L265.2 272.8C264.944 273.035 264.605 273.158 264.258 273.143C263.912 273.128 263.585 272.976 263.35 272.72L254.79 263.35L245.55 271.79C245.294 272.025 244.955 272.148 244.608 272.133C244.262 272.118 243.935 271.966 243.7 271.71L235.13 262.34L225.9 270.78C225.765 270.902 225.607 270.995 225.435 271.054C225.263 271.112 225.081 271.135 224.9 271.12C224.553 271.099 224.227 270.945 223.99 270.69L215.43 261.33L206.2 269.76C205.942 269.995 205.602 270.119 205.253 270.104C204.905 270.089 204.577 269.936 204.34 269.68C204.223 269.553 204.133 269.404 204.074 269.242C204.015 269.08 203.989 268.908 203.998 268.736C204.006 268.564 204.049 268.395 204.123 268.24C204.197 268.084 204.301 267.945 204.43 267.83L214.63 258.5C214.888 258.265 215.228 258.141 215.577 258.156C215.925 258.171 216.253 258.324 216.49 258.58L225.05 267.95L234.28 259.51C234.542 259.28 234.882 259.158 235.23 259.17C235.578 259.189 235.905 259.343 236.14 259.6L244.7 268.97L253.94 260.53C254.066 260.413 254.214 260.321 254.376 260.262C254.538 260.202 254.71 260.175 254.882 260.183C255.054 260.19 255.223 260.232 255.379 260.305C255.535 260.379 255.674 260.482 255.79 260.61L264.35 269.98L273.59 261.54C273.846 261.305 274.185 261.182 274.532 261.197C274.878 261.212 275.205 261.364 275.44 261.62L285 272C285.171 272.191 285.282 272.427 285.321 272.681C285.36 272.934 285.324 273.193 285.218 273.426C285.112 273.66 284.94 273.857 284.724 273.994C284.508 274.132 284.256 274.203 284 274.2V274.16Z" fill="#ECF8FF"/>
<path d="M125.75 315.67L119.49 312.68L113.91 285.51L116.94 282.18L125.75 315.67Z" fill="#407BFF"/>
<path d="M125.75 315.67L134.06 310.81L126.94 288.43L116.94 282.18L125.75 315.67Z" fill="#407BFF"/>
<path opacity="0.2" d="M125.75 315.67L134.06 310.81L126.94 288.43L116.94 282.18L125.75 315.67Z" fill="black"/>
<path d="M262 320.61H261.31C259.984 320.574 258.726 320.013 257.814 319.05C256.902 318.087 256.409 316.801 256.445 315.475C256.481 314.149 257.042 312.891 258.005 311.979C258.968 311.067 260.254 310.574 261.58 310.61C269.28 310.86 285.58 306.13 294.9 297.09C295.463 296.538 296.148 296.127 296.9 295.89C312.69 291.15 318.56 300.72 318.8 301.13L310.2 306.22C310.23 306.284 310.267 306.344 310.31 306.4C310.22 306.27 307.98 303.4 300.86 305.16C289.17 315.82 271.23 320.61 262 320.61Z" fill="#263238"/>
<path d="M261.39 327.25L243.18 326.11L241.75 292.53L266.22 293.44L261.39 327.25Z" fill="#407BFF"/>
<path d="M261.39 327.25L265.65 323.01L268.29 302.08L266.22 293.44L261.39 327.25Z" fill="#407BFF"/>
<path opacity="0.2" d="M261.39 327.25L265.65 323.01L268.29 302.08L266.22 293.44L261.39 327.25Z" fill="black"/>
<path d="M366.91 314.54C366.256 314.539 365.621 314.325 365.1 313.93C354.7 306.03 340.65 292 335.26 278.47C335.179 278.274 335.122 278.069 335.09 277.86C332.46 262.22 329.95 229.31 329.84 227.92C329.81 227.526 329.859 227.13 329.982 226.755C330.106 226.38 330.302 226.032 330.56 225.733C331.08 225.128 331.819 224.755 332.615 224.695C333.411 224.635 334.197 224.894 334.802 225.415C335.407 225.935 335.78 226.674 335.84 227.47C335.84 227.8 338.41 261.03 340.97 276.54C346.35 289.7 360.97 303.21 368.75 309.15C369.251 309.53 369.62 310.058 369.804 310.659C369.989 311.26 369.98 311.904 369.779 312.5C369.578 313.096 369.195 313.613 368.683 313.979C368.172 314.345 367.559 314.541 366.93 314.54H366.91Z" fill="#263238"/>
<path d="M380.78 316.05C378.46 316.05 375.83 315 372.96 312.93C372.316 312.463 371.883 311.76 371.757 310.974C371.632 310.188 371.823 309.385 372.29 308.74C372.757 308.096 373.46 307.663 374.246 307.537C375.032 307.412 375.836 307.603 376.48 308.07C378.96 309.86 380.31 310.07 380.78 310.07C381.576 310.07 382.339 310.386 382.901 310.949C383.464 311.511 383.78 312.274 383.78 313.07C383.78 313.866 383.464 314.629 382.901 315.191C382.339 315.754 381.576 316.07 380.78 316.07V316.05Z" fill="#263238"/>
<path d="M373.8 312.84C377.01 303.31 390.17 305.19 394.71 306.61C398.588 307.736 402.308 309.349 405.78 311.41C408.23 313.01 408.27 315.7 405 317.23C401 319.11 390.84 317.44 390.84 317.44C396.08 319.73 390.84 323.44 381.63 319.8C378.64 318.62 372.67 316.34 373.8 312.84Z" fill="#407BFF"/>
<path d="M341.86 232C340.67 240.1 333.96 246.07 328.5 245.27C323.04 244.47 322.82 237.27 324.01 229.13C325.2 220.99 327.36 215.13 332.82 215.93C338.28 216.73 343.05 223.93 341.86 232Z" fill="#263238"/>
<path d="M209.88 199.7C210.333 199.7 210.7 199.333 210.7 198.88C210.7 198.427 210.333 198.06 209.88 198.06C209.427 198.06 209.06 198.427 209.06 198.88C209.06 199.333 209.427 199.7 209.88 199.7Z" fill="#263238"/>
<path d="M218.21 204.78C218.21 204.942 218.162 205.101 218.072 205.236C217.982 205.37 217.854 205.476 217.704 205.538C217.554 205.6 217.389 205.616 217.23 205.584C217.071 205.553 216.925 205.475 216.81 205.36C216.695 205.245 216.617 205.099 216.586 204.94C216.554 204.781 216.57 204.616 216.632 204.466C216.694 204.316 216.8 204.188 216.934 204.098C217.069 204.008 217.228 203.96 217.39 203.96C217.607 203.96 217.816 204.046 217.97 204.2C218.124 204.354 218.21 204.563 218.21 204.78Z" fill="#263238"/>
<path d="M219.13 301.68C219.13 301.842 219.082 302.001 218.992 302.136C218.902 302.27 218.774 302.376 218.624 302.438C218.474 302.5 218.309 302.516 218.15 302.484C217.991 302.453 217.845 302.375 217.73 302.26C217.615 302.145 217.537 301.999 217.506 301.84C217.474 301.681 217.49 301.516 217.552 301.366C217.614 301.216 217.72 301.088 217.854 300.998C217.989 300.908 218.148 300.86 218.31 300.86C218.527 300.86 218.736 300.946 218.89 301.1C219.044 301.254 219.13 301.463 219.13 301.68Z" fill="#263238"/>
<path d="M226.64 307.59C226.64 307.752 226.592 307.911 226.502 308.046C226.412 308.18 226.284 308.286 226.134 308.348C225.984 308.41 225.819 308.426 225.66 308.394C225.501 308.363 225.355 308.285 225.24 308.17C225.125 308.055 225.047 307.909 225.016 307.75C224.984 307.591 225 307.426 225.062 307.276C225.124 307.126 225.23 306.998 225.364 306.908C225.499 306.818 225.658 306.77 225.82 306.77C226.037 306.77 226.246 306.856 226.4 307.01C226.554 307.164 226.64 307.373 226.64 307.59Z" fill="#263238"/>
<path d="M82.51 317.42C81.0704 317.353 79.6642 316.963 78.3955 316.279C77.1268 315.595 76.0279 314.635 75.18 313.47C75.1384 313.416 75.1082 313.355 75.0912 313.289C75.0741 313.223 75.0707 313.155 75.0809 313.088C75.0912 313.021 75.115 312.957 75.1509 312.899C75.1868 312.841 75.2341 312.792 75.2898 312.753C75.3455 312.714 75.4085 312.687 75.475 312.674C75.5414 312.66 75.61 312.66 75.6764 312.674C75.7429 312.688 75.8058 312.715 75.8615 312.754C75.9171 312.793 75.9642 312.842 76 312.9C77.87 315.6 82 317.03 83.8 316.18C83.9803 316.103 84.1409 315.987 84.27 315.84C83.3605 315.44 82.5635 314.822 81.9496 314.04C81.3357 313.259 80.9237 312.338 80.75 311.36C80.52 310.09 80.34 308.36 81.38 308.14C82.82 307.82 84.7 311.29 85.38 313.92C85.5032 314.355 85.5472 314.809 85.51 315.26C86.0868 315.432 86.6934 315.48 87.29 315.4C87.5588 315.379 87.8204 315.303 88.058 315.175C88.2956 315.048 88.504 314.872 88.67 314.66C88.0119 314.163 87.4659 313.533 87.0679 312.811C86.6698 312.089 86.4286 311.292 86.36 310.47C85.98 307.73 86.27 307.26 86.57 307.02C86.6672 306.945 86.7832 306.899 86.9051 306.887C87.0269 306.875 87.1498 306.896 87.26 306.95C88.33 307.4 89.62 311.28 89.87 313.48C89.9 313.709 89.9 313.941 89.87 314.17C90.3011 314.336 90.7582 314.424 91.22 314.43C92.068 314.463 92.9066 314.244 93.63 313.8C93.49 313.71 93.36 313.61 93.23 313.51C92.23 312.62 91.77 311.2 91.95 309.18C92.09 307.61 92.44 306.75 93.07 306.48C93.2732 306.398 93.4958 306.378 93.7106 306.42C93.9255 306.463 94.1233 306.567 94.28 306.72C94.955 307.465 95.4595 308.349 95.7583 309.309C96.057 310.269 96.1429 311.283 96.01 312.28C95.9232 312.695 95.7494 313.087 95.5 313.43C97.34 313.75 99.92 313.23 102.15 312.68C102.216 312.664 102.284 312.662 102.35 312.672C102.417 312.683 102.481 312.706 102.539 312.742C102.596 312.777 102.646 312.823 102.686 312.878C102.726 312.932 102.754 312.994 102.77 313.06C102.786 313.126 102.788 313.194 102.778 313.26C102.767 313.327 102.744 313.391 102.708 313.449C102.673 313.506 102.627 313.556 102.572 313.596C102.518 313.636 102.456 313.664 102.39 313.68C99.68 314.35 96.76 314.9 94.7 314.3C93.6944 315.064 92.4631 315.472 91.2 315.46C90.6395 315.453 90.0845 315.348 89.56 315.15C89.3273 315.51 89.0152 315.811 88.6477 316.032C88.2801 316.252 87.867 316.385 87.44 316.42C86.6883 316.517 85.9247 316.452 85.2 316.23C84.9667 316.623 84.6173 316.934 84.2 317.12C83.6636 317.336 83.0881 317.439 82.51 317.42ZM81.65 309.14C81.5117 309.82 81.5391 310.523 81.73 311.19C81.8711 311.99 82.2028 312.743 82.6972 313.387C83.1916 314.032 83.834 314.547 84.57 314.89C84.556 314.653 84.5158 314.418 84.45 314.19C83.67 311.33 82.17 309.36 81.65 309.14ZM87.22 308.27C87.2265 308.96 87.2833 309.648 87.39 310.33C87.5002 311.549 88.0388 312.69 88.91 313.55C88.6639 311.704 88.0917 309.916 87.22 308.27ZM93.51 307.4C93.51 307.4 93.13 307.59 92.99 309.26C92.85 310.93 93.14 312.08 93.92 312.75C94.1046 312.899 94.3059 313.027 94.52 313.13C94.783 312.849 94.969 312.504 95.06 312.13C95.2381 310.556 94.8129 308.973 93.87 307.7C93.66 307.44 93.54 307.4 93.51 307.4Z" fill="#263238"/>
<path d="M228.87 324.98L231.58 320.28L228.87 315.58H225.97L227.61 320.28L225.97 324.98H228.87Z" fill="#263238"/>
<path d="M226.16 322.73C225.826 322.751 225.491 322.704 225.175 322.591C224.86 322.478 224.572 322.301 224.327 322.072C224.083 321.843 223.888 321.566 223.755 321.259C223.622 320.951 223.554 320.62 223.554 320.285C223.554 319.95 223.622 319.619 223.755 319.311C223.888 319.004 224.083 318.727 224.327 318.498C224.572 318.269 224.86 318.092 225.175 317.979C225.491 317.866 225.826 317.819 226.16 317.84L221.56 316.92L220.33 320.64L222.39 323.78L226.16 322.73Z" fill="#263238"/>
<path d="M226.56 315.58H221.13L218.42 320.28L221.13 324.98H226.56L229.27 320.28L226.56 315.58ZM223.85 322.73C223.365 322.732 222.89 322.59 222.486 322.322C222.082 322.054 221.766 321.672 221.579 321.224C221.392 320.777 221.342 320.284 221.436 319.808C221.529 319.332 221.762 318.895 222.104 318.551C222.446 318.207 222.883 317.973 223.358 317.878C223.834 317.782 224.327 317.83 224.775 318.016C225.223 318.201 225.607 318.515 225.876 318.918C226.146 319.321 226.29 319.795 226.29 320.28C226.29 320.928 226.033 321.55 225.576 322.009C225.119 322.468 224.498 322.727 223.85 322.73Z" fill="#407BFF"/>
<path d="M417.89 315.26L415.88 311.77L417.89 308.28H420.04L418.83 311.77L420.04 315.26H417.89Z" fill="#407BFF"/>
<path d="M419.9 313.59C420.15 313.608 420.401 313.575 420.637 313.492C420.873 313.41 421.09 313.279 421.273 313.109C421.457 312.938 421.603 312.732 421.703 312.502C421.803 312.273 421.855 312.025 421.855 311.775C421.855 311.525 421.803 311.277 421.703 311.047C421.603 310.818 421.457 310.612 421.273 310.441C421.09 310.271 420.873 310.14 420.637 310.057C420.401 309.975 420.15 309.941 419.9 309.96L423.32 309.28L424.23 312.04L422.71 314.37L419.9 313.59Z" fill="#407BFF"/>
<path d="M419.61 308.28H423.61L425.61 311.77L423.61 315.26H419.61L417.61 311.77L419.61 308.28ZM421.61 313.59C421.97 313.592 422.323 313.487 422.624 313.288C422.924 313.089 423.159 312.806 423.299 312.473C423.438 312.141 423.475 311.775 423.406 311.421C423.337 311.067 423.165 310.742 422.91 310.487C422.656 310.231 422.332 310.057 421.979 309.986C421.625 309.915 421.259 309.95 420.926 310.088C420.593 310.225 420.308 310.458 420.107 310.758C419.907 311.057 419.8 311.41 419.8 311.77C419.799 312.009 419.845 312.247 419.936 312.468C420.027 312.689 420.161 312.891 420.33 313.06C420.499 313.229 420.701 313.363 420.922 313.454C421.143 313.545 421.381 313.591 421.62 313.59H421.61Z" fill="#263238"/>
<path d="M343 319.9H347.52C348.086 319.897 348.628 319.671 349.027 319.27C349.426 318.869 349.65 318.326 349.65 317.76C349.65 317.194 349.426 316.651 349.027 316.25C348.628 315.849 348.086 315.623 347.52 315.62H343C342.432 315.62 341.888 315.845 341.487 316.247C341.085 316.648 340.86 317.192 340.86 317.76C340.86 318.327 341.085 318.872 341.487 319.273C341.888 319.674 342.432 319.9 343 319.9Z" fill="#263238"/>
<path d="M335.73 315.86C336.149 315.097 336.783 314.474 337.553 314.067C338.322 313.659 339.194 313.486 340.061 313.569C340.927 313.651 341.751 313.986 342.43 314.531C343.109 315.076 343.613 315.807 343.882 316.636C344.15 317.464 344.169 318.353 343.938 319.192C343.707 320.031 343.236 320.785 342.582 321.359C341.928 321.934 341.12 322.305 340.258 322.426C339.396 322.547 338.517 322.412 337.73 322.04C336.649 321.482 335.831 320.52 335.457 319.362C335.082 318.204 335.18 316.946 335.73 315.86Z" fill="#407BFF"/>
<path d="M336.95 322.039L338.189 322.623L342.496 313.487L341.256 312.903L336.95 322.039Z" fill="#263238"/>
</svg>
