<svg viewBox="0 0 266 220" fill="none" xmlns="http://www.w3.org/2000/svg">
<path d="M1.05058 158.18C2.72058 175.45 38.1006 175.03 43.4006 175.03C48.6906 175.03 51.5406 172.54 51.5406 172.54L49.9406 183.11L47.2806 200.66H83.7306C83.7306 200.66 187.661 106.69 187.661 92.42C187.661 78.16 180.041 72.82 173.971 72.23C167.911 71.64 138.461 64.09 138.011 61.72C137.571 59.35 138.771 53.66 138.771 53.66C156.361 55.28 157.921 38.05 157.921 38.05C161.801 30.77 162.121 19.36 155.001 22.84C147.881 26.32 138.091 22.6 136.641 20.57C135.181 18.55 131.861 17.42 131.461 17.9C131.051 18.39 131.461 22.51 131.461 22.51L128.061 23.08C128.061 23.08 126.931 28.34 126.851 29.96C126.771 31.58 125.551 31.9 124.991 31.9C124.421 31.9 123.611 24.21 123.611 24.21C123.611 24.21 116.901 23.08 116.901 29.96C116.901 36.84 122.721 37.32 122.721 37.32C121.521 49.73 116.511 55.36 111.501 57.94C111.501 57.94 111.501 57.94 111.501 57.95C106.271 60.65 101.021 60.02 100.101 60.31C98.2906 60.87 80.3106 59.82 80.3106 59.82C60.1106 58.29 50.2206 75.43 48.4106 77.65C46.6006 79.88 36.5706 92 20.9706 110.11C5.36058 128.22 -0.629417 140.9 1.05058 158.18Z" fill="#18C5FF"/>
<path d="M122.771 71.09C135.161 72.51 138.011 61.72 138.011 61.72C137.571 59.35 138.771 53.66 138.771 53.66C156.361 55.28 157.921 38.05 157.921 38.05C161.801 30.77 162.121 19.36 155.001 22.84C147.881 26.32 138.091 22.6 136.641 20.57C135.181 18.55 131.861 17.42 131.461 17.9C131.051 18.39 131.461 22.51 131.461 22.51L128.061 23.08C128.061 23.08 126.931 28.34 126.851 29.96C126.771 31.58 125.551 31.9 124.991 31.9C124.421 31.9 123.611 24.21 123.611 24.21C123.611 24.21 116.901 23.08 116.901 29.96C116.901 36.84 122.721 37.32 122.721 37.32C121.521 49.73 116.511 55.36 111.501 57.94C111.501 57.94 111.501 57.94 111.501 57.95C111.461 58.36 110.601 69.7 122.771 71.09Z" fill="#FDAC9D"/>
<path d="M49.9405 183.11C49.9405 183.11 63.3905 181.58 69.3405 179.43C75.2805 177.28 86.6705 175.44 86.6705 175.44V157.92L51.1105 170.19L51.3605 173.71L49.9405 183.11Z" fill="#37164D"/>
<path d="M52.6506 143.72C53.8606 142.9 53.8806 141.07 52.7206 140.17C52.1306 139.71 51.3906 139.34 50.4906 139.21C47.8206 138.83 37.6606 138.29 34.5906 138.13C33.9906 138.1 33.5506 138.57 32.9706 138.7C30.7906 139.21 27.5706 144 27.4006 148.67C27.1706 154.64 26.4506 173.57 29.1806 174.36C31.5706 175.05 44.6406 175.95 49.2006 173.94C50.0306 173.58 50.5606 172.76 50.5606 171.86C50.5406 167.24 50.4406 149.07 50.5006 147.43C50.5406 146.26 51.3306 144.63 52.6506 143.72Z" fill="#35174D"/>
<path d="M50.5006 139.72C50.6306 139.72 50.7606 139.67 50.8606 139.57L63.8206 126.16C64.0106 125.96 64.0106 125.64 63.8106 125.45C63.6106 125.26 63.2906 125.26 63.1006 125.46L50.1406 138.87C49.9506 139.07 49.9506 139.39 50.1506 139.58C50.2506 139.67 50.3806 139.72 50.5006 139.72Z" fill="#35164B"/>
<path d="M80.8106 91.63H246.161V200.66H80.8106V91.63Z" fill="#3A3A47"/>
<path d="M80.8106 91.63H246.161V100.22H80.8106V91.63Z" fill="#FFBB4E"/>
<path d="M177.321 124.22H197.171C197.721 124.22 198.171 123.77 198.171 123.22C198.171 122.67 197.721 122.22 197.171 122.22H177.321C176.771 122.22 176.321 122.67 176.321 123.22C176.321 123.77 176.771 124.22 177.321 124.22Z" fill="#E5E6ED"/>
<path d="M172.081 130.61H191.921C192.471 130.61 192.921 130.16 192.921 129.61C192.921 129.06 192.471 128.61 191.921 128.61H172.071C171.521 128.61 171.071 129.06 171.071 129.61C171.071 130.16 171.521 130.61 172.081 130.61Z" fill="#E5E6ED"/>
<path d="M180.891 157.6H193.601C194.151 157.6 194.601 157.15 194.601 156.6C194.601 156.05 194.151 155.6 193.601 155.6H180.891C180.341 155.6 179.891 156.05 179.891 156.6C179.891 157.15 180.331 157.6 180.891 157.6Z" fill="#E5E6ED"/>
<path d="M168.551 164.98H193.601C194.151 164.98 194.601 164.53 194.601 163.98C194.601 163.43 194.151 162.98 193.601 162.98H168.551C168.001 162.98 167.551 163.43 167.551 163.98C167.551 164.53 168.001 164.98 168.551 164.98Z" fill="#E5E6ED"/>
<path d="M150.121 172.36H187.761C188.311 172.36 188.761 171.91 188.761 171.36C188.761 170.81 188.311 170.36 187.761 170.36H150.121C149.571 170.36 149.121 170.81 149.121 171.36C149.121 171.91 149.571 172.36 150.121 172.36Z" fill="#E5E6ED"/>
<path d="M161.481 179.74H183.511C184.061 179.74 184.511 179.29 184.511 178.74C184.511 178.19 184.061 177.74 183.511 177.74H161.481C160.931 177.74 160.481 178.19 160.481 178.74C160.481 179.29 160.931 179.74 161.481 179.74Z" fill="#E5E6ED"/>
<path d="M166.311 188.07H188.341C188.891 188.07 189.341 187.62 189.341 187.07C189.341 186.52 188.891 186.07 188.341 186.07H166.311C165.761 186.07 165.311 186.52 165.311 187.07C165.311 187.62 165.751 188.07 166.311 188.07Z" fill="#E5E6ED"/>
<path d="M122.531 188.07H144.561C145.111 188.07 145.561 187.62 145.561 187.07C145.561 186.52 145.111 186.07 144.561 186.07H122.531C121.981 186.07 121.531 186.52 121.531 187.07C121.531 187.62 121.981 188.07 122.531 188.07Z" fill="#E5E6ED"/>
<path d="M133.551 179.74H155.581C156.131 179.74 156.581 179.29 156.581 178.74C156.581 178.19 156.131 177.74 155.581 177.74H133.551C133.001 177.74 132.551 178.19 132.551 178.74C132.551 179.29 133.001 179.74 133.551 179.74Z" fill="#BB7FEF"/>
<path d="M129.171 116.72H151.201C151.751 116.72 152.201 116.27 152.201 115.72C152.201 115.17 151.751 114.72 151.201 114.72H129.171C128.621 114.72 128.171 115.17 128.171 115.72C128.171 116.27 128.621 116.72 129.171 116.72Z" fill="#BB7FEF"/>
<path d="M136.061 172.36H144.311C144.861 172.36 145.311 171.91 145.311 171.36C145.311 170.81 144.861 170.36 144.311 170.36H136.061C135.511 170.36 135.061 170.81 135.061 171.36C135.061 171.91 135.501 172.36 136.061 172.36Z" fill="#11BDED"/>
<path d="M151.811 188.07H160.061C160.611 188.07 161.061 187.62 161.061 187.07C161.061 186.52 160.611 186.07 160.061 186.07H151.811C151.261 186.07 150.811 186.52 150.811 187.07C150.811 187.62 151.261 188.07 151.811 188.07Z" fill="#11BDED"/>
<path d="M116.471 164.98H161.481C162.031 164.98 162.481 164.53 162.481 163.98C162.481 163.43 162.031 162.98 161.481 162.98H116.471C115.921 162.98 115.471 163.43 115.471 163.98C115.471 164.53 115.921 164.98 116.471 164.98Z" fill="#E5E6ED"/>
<path d="M162.081 137.19H181.921C182.471 137.19 182.921 136.74 182.921 136.19C182.921 135.64 182.471 135.19 181.921 135.19H162.071C161.521 135.19 161.071 135.64 161.071 136.19C161.071 136.74 161.521 137.19 162.081 137.19Z" fill="#E5E6ED"/>
<path d="M103.281 116.72H123.131C123.681 116.72 124.131 116.27 124.131 115.72C124.131 115.17 123.681 114.72 123.131 114.72H103.281C102.731 114.72 102.281 115.17 102.281 115.72C102.281 116.27 102.721 116.72 103.281 116.72Z" fill="#E5E6ED"/>
<path d="M168.551 143.91H181.921C182.471 143.91 182.921 143.46 182.921 142.91C182.921 142.36 182.471 141.91 181.921 141.91H168.551C168.001 141.91 167.551 142.36 167.551 142.91C167.551 143.46 168.001 143.91 168.551 143.91Z" fill="#E5E6ED"/>
<path d="M138.971 150.21H181.921C182.471 150.21 182.921 149.76 182.921 149.21C182.921 148.66 182.471 148.21 181.921 148.21H138.961C138.411 148.21 137.961 148.66 137.961 149.21C137.961 149.76 138.411 150.21 138.971 150.21Z" fill="#E5E6ED"/>
<path d="M121.551 124.22H153.271C153.821 124.22 154.271 123.77 154.271 123.22C154.271 122.67 153.821 122.22 153.271 122.22H121.551C121.001 122.22 120.551 122.67 120.551 123.22C120.551 123.77 121.001 124.22 121.551 124.22Z" fill="#E5E6ED"/>
<path d="M88.6106 124.22H116.471C117.021 124.22 117.471 123.77 117.471 123.22C117.471 122.67 117.021 122.22 116.471 122.22H88.6106C88.0606 122.22 87.6106 122.67 87.6106 123.22C87.6106 123.77 88.0606 124.22 88.6106 124.22Z" fill="#11BDED"/>
<path d="M143.541 194.39H171.401C171.951 194.39 172.401 193.94 172.401 193.39C172.401 192.84 171.951 192.39 171.401 192.39H143.541C142.991 192.39 142.541 192.84 142.541 193.39C142.541 193.94 142.991 194.39 143.541 194.39Z" fill="#11BDED"/>
<path d="M158.821 124.32H170.571C171.121 124.32 171.571 123.87 171.571 123.32C171.571 122.77 171.121 122.32 170.571 122.32H158.821C158.271 122.32 157.821 122.77 157.821 123.32C157.821 123.87 158.261 124.32 158.821 124.32Z" fill="#F39695"/>
<path d="M144.191 137.19H155.941C156.491 137.19 156.941 136.74 156.941 136.19C156.941 135.64 156.491 135.19 155.941 135.19H144.191C143.641 135.19 143.191 135.64 143.191 136.19C143.191 136.74 143.641 137.19 144.191 137.19Z" fill="#F39695"/>
<path d="M129.211 143.91H163.341C163.891 143.91 164.341 143.46 164.341 142.91C164.341 142.36 163.891 141.91 163.341 141.91H129.211C128.661 141.91 128.211 142.36 128.211 142.91C128.211 143.46 128.661 143.91 129.211 143.91Z" fill="#F39695"/>
<path d="M92.7505 143.91H108.421C108.971 143.91 109.421 143.46 109.421 142.91C109.421 142.36 108.971 141.91 108.421 141.91H92.7505C92.2005 141.91 91.7505 142.36 91.7505 142.91C91.7505 143.46 92.2005 143.91 92.7505 143.91Z" fill="#F39695"/>
<path d="M113.201 143.91H125.491C126.041 143.91 126.491 143.46 126.491 142.91C126.491 142.36 126.041 141.91 125.491 141.91H113.201C112.651 141.91 112.201 142.36 112.201 142.91C112.201 143.46 112.651 143.91 113.201 143.91Z" fill="#FFBB4E"/>
<path d="M175.851 194.39H188.151C188.701 194.39 189.151 193.94 189.151 193.39C189.151 192.84 188.701 192.39 188.151 192.39H175.861C175.311 192.39 174.861 192.84 174.861 193.39C174.861 193.94 175.301 194.39 175.851 194.39Z" fill="#FFBB4E"/>
<path d="M141.821 110.22H154.111C154.661 110.22 155.111 109.77 155.111 109.22C155.111 108.67 154.661 108.22 154.111 108.22H141.821C141.271 108.22 140.821 108.67 140.821 109.22C140.821 109.77 141.261 110.22 141.821 110.22Z" fill="#FFBB4E"/>
<path d="M205.431 91.62H246.161V200.65H205.431V91.62Z" fill="#1C1A23"/>
<path d="M205.431 127.98H246.161V136.19H205.431V127.98Z" fill="black"/>
<path d="M237.151 120.14H241.971V124.96H237.151V120.14Z" fill="#62687E"/>
<path d="M232.531 129.61H237.351V134.43H232.531V129.61Z" fill="#62687E"/>
<path d="M225.461 138.09H230.281V142.91H225.461V138.09Z" fill="#62687E"/>
<path d="M225.461 146.14H230.281V150.96H225.461V146.14Z" fill="#62687E"/>
<path d="M225.461 154.19H230.281V159.01H225.461V154.19Z" fill="#62687E"/>
<path d="M225.461 162.24H230.281V167.06H225.461V162.24Z" fill="#62687E"/>
<path d="M225.461 170.29H230.281V175.11H225.461V170.29Z" fill="#62687E"/>
<path d="M148.961 67.05V115.49H250.931V67.05C250.931 63.05 247.691 59.81 243.691 59.81H156.201C152.201 59.81 148.961 63.05 148.961 67.05Z" fill="#D9DEF1"/>
<path d="M148.961 67.05V77.38H250.931V67.05C250.931 63.05 247.691 59.81 243.691 59.81H156.201C152.201 59.81 148.961 63.05 148.961 67.05Z" fill="#33184B"/>
<path d="M209.091 84.2H232.111C232.511 84.2 232.831 84.52 232.831 84.92V107.94C232.831 108.34 232.511 108.66 232.111 108.66H209.091C208.691 108.66 208.371 108.34 208.371 107.94V84.91C208.371 84.52 208.691 84.2 209.091 84.2ZM209.801 85.63V89.98H231.391V85.63H209.801ZM231.391 107.21V91.4H209.801V107.21H231.391Z" fill="white"/>
<path d="M226.331 100H219.171C218.771 100 218.451 99.68 218.451 99.28C218.451 98.88 218.771 98.56 219.171 98.56H226.331C226.731 98.56 227.051 98.88 227.051 99.28C227.041 99.68 226.721 100 226.331 100Z" fill="white"/>
<path d="M226.331 102.87H220.601C220.201 102.87 219.881 102.55 219.881 102.15C219.881 101.75 220.201 101.43 220.601 101.43H226.331C226.731 101.43 227.051 101.75 227.051 102.15C227.051 102.55 226.721 102.87 226.331 102.87Z" fill="white"/>
<path d="M219.161 104.3H226.321C226.721 104.3 227.041 104.62 227.041 105.02C227.041 105.42 226.721 105.74 226.321 105.74H219.161C218.761 105.74 218.441 105.42 218.441 105.02C218.441 104.62 218.771 104.3 219.161 104.3Z" fill="white"/>
<path d="M223.971 96.93C223.691 97.21 223.241 97.21 222.961 96.93C222.681 96.65 222.681 96.2 222.961 95.92L223.891 94.99L222.961 94.06C222.681 93.78 222.681 93.33 222.961 93.05C223.241 92.77 223.691 92.77 223.971 93.05L225.401 94.48C225.681 94.76 225.681 95.21 225.401 95.49L223.971 96.93Z" fill="white"/>
<path d="M217.311 94.99L218.231 95.91C218.511 96.19 218.511 96.64 218.231 96.92C217.951 97.2 217.501 97.2 217.221 96.92L215.791 95.49C215.511 95.21 215.511 94.76 215.791 94.48L217.231 93.04C217.511 92.76 217.961 92.76 218.241 93.04C218.521 93.32 218.521 93.77 218.241 94.05L217.311 94.99Z" fill="white"/>
<path d="M221.631 97.06C221.281 97.24 220.851 97.09 220.671 96.74L219.241 93.87C219.061 93.52 219.211 93.09 219.561 92.91C219.911 92.73 220.341 92.88 220.521 93.23L221.951 96.1C222.131 96.45 221.991 96.88 221.631 97.06Z" fill="white"/>
<path d="M214.871 98.57H216.301C216.701 98.57 217.021 98.89 217.021 99.29C217.021 99.69 216.701 100.01 216.301 100.01H214.871C214.471 100.01 214.151 99.69 214.151 99.29C214.151 98.89 214.471 98.57 214.871 98.57Z" fill="white"/>
<path d="M214.871 101.44H217.741C218.141 101.44 218.461 101.76 218.461 102.16C218.461 102.56 218.141 102.88 217.741 102.88H214.871C214.471 102.88 214.151 102.56 214.151 102.16C214.151 101.76 214.471 101.44 214.871 101.44Z" fill="white"/>
<path d="M214.871 104.3H216.301C216.701 104.3 217.021 104.62 217.021 105.02C217.021 105.42 216.701 105.74 216.301 105.74H214.871C214.471 105.74 214.151 105.42 214.151 105.02C214.151 104.62 214.471 104.3 214.871 104.3Z" fill="white"/>
<path d="M212.001 88.54C211.603 88.54 211.281 88.2177 211.281 87.82C211.281 87.4224 211.603 87.1 212.001 87.1C212.398 87.1 212.721 87.4224 212.721 87.82C212.721 88.2177 212.398 88.54 212.001 88.54Z" fill="white"/>
<path d="M214.871 88.54C214.473 88.54 214.151 88.2177 214.151 87.82C214.151 87.4224 214.473 87.1 214.871 87.1C215.268 87.1 215.591 87.4224 215.591 87.82C215.591 88.2177 215.268 88.54 214.871 88.54Z" fill="white"/>
<path d="M217.731 88.54C217.333 88.54 217.011 88.2177 217.011 87.82C217.011 87.4224 217.333 87.1 217.731 87.1C218.128 87.1 218.451 87.4224 218.451 87.82C218.451 88.2177 218.128 88.54 217.731 88.54Z" fill="white"/>
<path d="M87.9705 105C88.8005 104.93 89.2205 103.96 88.7105 103.3C87.7305 102.03 85.8605 100.6 82.6705 101.38C82.6705 101.38 76.6806 99.92 75.7006 106.73C74.7306 113.53 73.5905 115.96 73.4305 123.58C73.2705 131.19 76.8305 143.5 61.6105 143.18L53.6705 143.19C53.6705 143.19 50.5905 142.86 50.4305 149.34C50.2905 154.9 49.7905 168.2 49.6605 171.87C49.6405 172.41 50.0305 172.88 50.5705 172.96C54.3605 173.49 68.5005 175.4 73.1105 175.26C78.4605 175.1 92.0605 170.56 91.2505 154.53C90.4405 138.49 89.1405 120.35 90.2805 116.63C91.3905 112.97 92.5105 109.78 88.8505 108.44C88.7105 108.39 88.5705 108.37 88.4205 108.38C87.5305 108.44 84.3705 109.12 83.9605 115.5C83.4705 122.95 82.1805 133.97 81.2105 133.16C80.2405 132.35 81.0505 114.69 81.8605 112.43C82.6205 110.26 80.6805 105.59 87.9705 105Z" fill="#FFAA97"/>
<path d="M87.7206 179.53V211.83C87.7206 216.03 91.1306 219.44 95.3306 219.44H127.631C131.831 219.44 135.231 216.03 135.231 211.83V179.53C135.231 175.33 131.831 171.93 127.631 171.93H95.3306C91.1306 171.93 87.7206 175.33 87.7206 179.53Z" fill="#F7684E"/>
<path d="M87.7206 179.53V191.13C96.0106 188.28 102.121 191.61 105.331 195.68C108.541 199.75 112.571 207.88 120.891 204.67C129.201 201.47 135.231 205.98 135.231 205.98V179.53C135.231 175.33 131.831 171.93 127.631 171.93H95.3306C91.1306 171.93 87.7206 175.33 87.7206 179.53Z" fill="#FFBB4E"/>
<path d="M120.891 197.74C116.036 197.74 112.101 193.805 112.101 188.95C112.101 184.095 116.036 180.16 120.891 180.16C125.745 180.16 129.681 184.095 129.681 188.95C129.681 193.805 125.745 197.74 120.891 197.74Z" fill="white"/>
<path d="M157.601 74.6H228.501C231.721 74.6 234.331 71.99 234.331 68.77C234.331 65.55 231.721 62.94 228.501 62.94H157.611C154.391 62.94 151.781 65.55 151.781 68.77C151.781 72 154.391 74.6 157.601 74.6Z" fill="white"/>
<path d="M241.971 74.6C245.191 74.6 247.801 71.99 247.801 68.77C247.801 65.55 245.191 62.94 241.971 62.94C238.751 62.94 236.141 65.55 236.141 68.77C236.141 72 238.751 74.6 241.971 74.6Z" fill="white"/>
<path d="M157.471 92.37H197.171C197.581 92.37 197.921 92.03 197.921 91.62C197.921 91.21 197.581 90.87 197.171 90.87H157.471C157.061 90.87 156.721 91.21 156.721 91.62C156.721 92.03 157.061 92.37 157.471 92.37Z" fill="white"/>
<path d="M171.071 87.99H197.421C197.691 87.99 197.921 87.65 197.921 87.24C197.921 86.83 197.701 86.49 197.421 86.49H171.071C170.801 86.49 170.571 86.83 170.571 87.24C170.571 87.65 170.801 87.99 171.071 87.99Z" fill="white"/>
<path d="M186.751 96.42H197.171C197.581 96.42 197.921 96.08 197.921 95.67C197.921 95.26 197.581 94.92 197.171 94.92H186.741C186.331 94.92 185.991 95.26 185.991 95.67C185.991 96.08 186.331 96.42 186.751 96.42Z" fill="white"/>
<path d="M177.681 107.96H196.561C197.311 107.96 197.921 107.62 197.921 107.21C197.921 106.8 197.311 106.46 196.561 106.46H177.681C176.931 106.46 176.321 106.8 176.321 107.21C176.321 107.62 176.931 107.96 177.681 107.96Z" fill="white"/>
<path d="M157.471 96.42H183.671C184.081 96.42 184.421 96.08 184.421 95.67C184.421 95.26 184.081 94.92 183.671 94.92H157.471C157.061 94.92 156.721 95.26 156.721 95.67C156.721 96.08 157.061 96.42 157.471 96.42Z" fill="white"/>
<path d="M157.471 100.97H197.171C197.581 100.97 197.921 100.63 197.921 100.22C197.921 99.81 197.581 99.47 197.171 99.47H157.471C157.061 99.47 156.721 99.81 156.721 100.22C156.721 100.63 157.061 100.97 157.471 100.97Z" fill="white"/>
<path d="M175.251 104.39H197.501C197.731 104.39 197.921 104.05 197.921 103.64C197.921 103.23 197.731 102.89 197.501 102.89H175.251C175.021 102.89 174.831 103.23 174.831 103.64C174.831 104.05 175.021 104.39 175.251 104.39Z" fill="white"/>
<path d="M157.241 104.39H173.071C173.241 104.39 173.371 104.05 173.371 103.64C173.371 103.23 173.241 102.89 173.071 102.89H157.241C157.071 102.89 156.941 103.23 156.941 103.64C156.941 104.05 157.081 104.39 157.241 104.39Z" fill="white"/>
<path d="M257.841 57.56C263.371 57.45 265.211 61.37 265.211 71.21C265.211 81.05 265.211 86.74 265.211 86.74C265.211 86.74 268.441 95.34 261.521 97.64C261.521 97.64 263.361 103.78 257.831 106.7C257.831 106.7 263.041 115.32 246.151 123.31V115.48H250.921C250.921 115.48 246.161 112.23 238.791 110.54C231.421 108.85 230.501 102.71 233.111 101.02C235.721 99.33 244.011 100.56 244.011 100.56C244.011 100.56 231.681 94.72 231.781 88.58C231.881 82.44 238.941 83.82 238.941 83.82C238.941 83.82 235.561 78.75 237.251 75.68C238.941 72.61 248.151 72.45 253.381 76.29L252.921 65.69C252.931 65.7 253.521 57.65 257.841 57.56Z" fill="#FBA795"/>
<path d="M220.601 121.88H234.321V123.21H220.601V121.88Z" fill="#62687E"/>
<path d="M220.001 131.35H229.701V132.68H220.001V131.35Z" fill="#62687E"/>
<path d="M212.141 139.83H222.641V141.16H212.141V139.83Z" fill="#62687E"/>
<path d="M212.141 147.88H222.641V149.21H212.141V147.88Z" fill="#62687E"/>
<path d="M212.141 155.93H222.641V157.26H212.141V155.93Z" fill="#62687E"/>
<path d="M212.141 163.98H222.641V165.31H212.141V163.98Z" fill="#62687E"/>
<path d="M212.141 172.03H222.641V173.36H212.141V172.03Z" fill="#62687E"/>
<path d="M232.531 179.61H237.351V184.43H232.531V179.61Z" fill="#62687E"/>
<path d="M215.981 181.35H229.701V182.68H215.981V181.35Z" fill="#62687E"/>
<path d="M232.531 187.07H237.351V191.89H232.531V187.07Z" fill="#62687E"/>
<path d="M215.981 188.81H229.701V190.14H215.981V188.81Z" fill="#62687E"/>
<path d="M264.371 87.04C264.461 87.04 264.551 87.01 264.631 86.95C264.831 86.8 264.871 86.5 264.731 86.29C264.521 85.98 259.441 78.73 254.011 76.33C253.781 76.23 253.521 76.34 253.431 76.58C253.341 76.82 253.441 77.09 253.671 77.19C258.871 79.48 263.961 86.76 264.011 86.83C264.091 86.97 264.231 87.04 264.371 87.04Z" fill="#DD6B66"/>
<path d="M261.531 98.15C261.651 98.15 261.781 98.1 261.881 98.01C262.081 97.82 262.091 97.5 261.901 97.3C261.371 96.74 248.751 83.63 238.981 83.32C238.701 83.28 238.471 83.53 238.461 83.8C238.451 84.08 238.671 84.31 238.941 84.32C248.301 84.62 261.041 97.85 261.171 97.99C261.271 98.1 261.401 98.15 261.531 98.15Z" fill="#DD6B66"/>
<path d="M257.841 107.21C257.971 107.21 258.101 107.16 258.201 107.06C258.391 106.86 258.391 106.55 258.191 106.35C257.991 106.16 253.211 101.62 244.101 100.07C243.831 100.02 243.571 100.21 243.521 100.48C243.471 100.75 243.661 101.01 243.931 101.06C252.711 102.55 257.441 107.02 257.491 107.07C257.591 107.16 257.721 107.21 257.841 107.21Z" fill="#DD6B66"/>
<path d="M142.781 31.75C142.941 31.75 143.091 31.71 143.241 31.64C143.721 31.39 143.921 30.8 143.681 30.31C143.591 30.13 141.421 25.98 134.261 28.63C133.741 28.82 133.481 29.4 133.671 29.91C133.861 30.43 134.431 30.69 134.961 30.5C140.351 28.5 141.841 31.1 141.901 31.21C142.071 31.56 142.421 31.75 142.781 31.75Z" fill="#746C4F"/>
<path d="M150.121 32.83C150.431 32.83 150.741 32.68 150.941 32.41C153.411 28.89 156.641 30.46 157.001 30.65C157.481 30.91 158.091 30.73 158.351 30.24C158.611 29.76 158.431 29.15 157.951 28.89C156.201 27.94 152.151 27.21 149.311 31.26C148.991 31.71 149.101 32.34 149.551 32.65C149.721 32.77 149.921 32.83 150.121 32.83Z" fill="#746C4F"/>
<path d="M143.561 45.52C143.571 45.52 143.581 45.52 143.591 45.52C144.061 45.49 146.421 45.3 147.051 44.15C147.211 43.86 147.331 43.38 146.981 42.76C146.081 41.15 146.211 35.4 148.211 34.2C148.451 34.06 148.521 33.75 148.381 33.51C148.241 33.27 147.931 33.2 147.691 33.34C145.091 34.9 144.961 41.2 146.101 43.25C146.251 43.52 146.191 43.63 146.161 43.68C145.891 44.17 144.421 44.48 143.521 44.53C143.241 44.55 143.031 44.78 143.051 45.06C143.081 45.32 143.301 45.52 143.561 45.52Z" fill="#DD6B66"/>
<path d="M142.921 48.7C144.181 48.7 145.111 48.4 145.131 48.4C145.391 48.31 145.541 48.03 145.451 47.77C145.361 47.51 145.081 47.36 144.821 47.45C144.661 47.5 140.831 48.7 138.751 45.65C138.591 45.42 138.281 45.37 138.051 45.52C137.821 45.68 137.761 45.99 137.921 46.22C139.321 48.25 141.361 48.7 142.921 48.7Z" fill="#DD6B66"/>
<path d="M150.781 40.12C151.471 40.12 152.081 39.4 152.261 38.36C152.451 37.24 152.031 36.3 151.281 36.17C150.881 36.1 150.471 36.29 150.151 36.68C149.901 37 149.711 37.43 149.631 37.91C149.441 39.03 149.861 39.97 150.611 40.1C150.671 40.11 150.731 40.12 150.781 40.12ZM151.121 37.16C151.191 37.2 151.381 37.58 151.271 38.19C151.171 38.8 150.871 39.1 150.771 39.11C150.701 39.07 150.511 38.69 150.621 38.08C150.731 37.47 151.031 37.17 151.121 37.16Z" fill="#72727B"/>
<path d="M138.171 38.95C138.861 38.95 139.471 38.23 139.651 37.19C139.841 36.07 139.421 35.13 138.671 35C138.271 34.94 137.861 35.12 137.541 35.51C137.291 35.83 137.101 36.26 137.021 36.74C136.831 37.86 137.251 38.8 138.001 38.93C138.061 38.94 138.121 38.95 138.171 38.95ZM138.511 35.99C138.581 36.03 138.771 36.41 138.661 37.02C138.561 37.63 138.261 37.93 138.161 37.94C138.091 37.9 137.901 37.52 138.011 36.91C138.121 36.3 138.421 36 138.511 35.99Z" fill="#72727B"/>
<path d="M120.851 34.27C120.951 34.27 121.051 34.24 121.141 34.18C121.371 34.02 121.421 33.71 121.271 33.48C120.291 32.07 119.931 30.79 120.191 29.67C120.521 28.24 121.791 27.53 121.801 27.53C122.041 27.4 122.131 27.09 122.001 26.85C121.871 26.61 121.571 26.52 121.321 26.65C121.251 26.69 119.661 27.57 119.221 29.43C118.881 30.84 119.301 32.4 120.451 34.06C120.531 34.19 120.691 34.27 120.851 34.27Z" fill="#DD6B66"/>
<path d="M121.981 31.26H121.991C122.271 31.25 122.481 31.02 122.481 30.75C122.481 30.6 122.421 29.31 121.591 28.76C121.291 28.56 120.771 28.39 120.021 28.69C119.761 28.79 119.641 29.08 119.741 29.34C119.841 29.6 120.141 29.72 120.391 29.62C120.671 29.51 120.891 29.5 121.041 29.6C121.361 29.81 121.471 30.49 121.481 30.78C121.491 31.05 121.711 31.26 121.981 31.26Z" fill="#DD6B66"/>
<path d="M156.741 9.49999C160.741 18.7 160.407 26.3333 159.741 29L152.241 25.5L136.741 24.5L130.241 25.5L124.741 33.5C124.407 32 123.641 28.1 123.241 24.5C122.741 20 123.241 15.5 124.741 9.49999C125.941 4.69997 132.241 1.83331 135.241 0.999985C140.741 -1.46031e-05 152.741 0.299986 156.741 9.49999Z" fill="#FDAC9D" stroke="#FDAC9D"/>
</svg>
