<svg width="96" height="132" viewBox="0 0 96 132" fill="none" xmlns="http://www.w3.org/2000/svg">
<path d="M0 105L45.702 19.308C46.665 17.502 49.269 17.535 50.184 19.368L66 51L0 105Z" fill="#FF8F00"/>
<path d="M0 104.976L16.638 2.37901C17.073 -0.305993 20.679 -0.887993 21.939 1.52401L54 62.976L0 104.976Z" fill="#FFA000"/>
<path d="M0.0239868 104.958L0.623986 104.487L53.211 61.464L38.379 33.036L0.0239868 104.958Z" fill="#FF6F00"/>
<path d="M0 105L79.998 27.861C81.675 26.244 84.474 27.198 84.816 29.502L96 105L51 131.229C49.173 132.255 46.944 132.255 45.117 131.229L0 105Z" fill="#FFC400"/>
</svg>
