<svg width="1162" height="1064" viewBox="0 0 1162 1064" fill="none" xmlns="http://www.w3.org/2000/svg">
<path d="M96 982.5C223.1 982.5 350.3 982.5 477.4 982.5C603.9 982.5 730.3 982.5 856.8 982.5C928 982.5 999.2 982.5 1070.5 982.5C1072.4 982.5 1072.4 979.5 1070.5 979.5C943.4 979.5 816.2 979.5 689.1 979.5C562.6 979.5 436.2 979.5 309.7 979.5C238.5 979.5 167.3 979.5 96 979.5C94 979.5 94 982.5 96 982.5Z" fill="#E8E8E8"/>
<path d="M313.9 1004C407.7 1004 501.6 1004 595.4 1004C622 1004 648.6 1004 675.3 1004C677.2 1004 677.2 1001 675.3 1001C581.5 1001 487.6 1001 393.8 1001C367.2 1001 340.6 1001 313.9 1001C312 1001 312 1004 313.9 1004Z" fill="#E8E8E8"/>
<path d="M628.9 1025.4C719.2 1025.4 809.5 1025.4 899.7 1025.4C925.4 1025.4 951 1025.4 976.7 1025.4C978.6 1025.4 978.6 1022.4 976.7 1022.4C886.4 1022.4 796.1 1022.4 705.9 1022.4C680.2 1022.4 654.6 1022.4 628.9 1022.4C627 1022.4 627 1025.4 628.9 1025.4Z" fill="#E8E8E8"/>
<path d="M111.8 1008.5C149.8 1008.5 187.8 1008.5 225.8 1008.5C227.7 1008.5 227.7 1005.5 225.8 1005.5C187.8 1005.5 149.8 1005.5 111.8 1005.5C109.8 1005.5 109.8 1008.5 111.8 1008.5Z" fill="#E8E8E8"/>
<path d="M190.6 889.9C194.7 919.8 201.5 949.3 211 977.9C211.6 979.7 214.5 978.9 213.9 977.1C204.4 948.4 197.6 919 193.5 889.1C193.2 887.2 190.3 888 190.6 889.9Z" fill="#E8E8E8"/>
<path d="M191.8 891.1C227.4 904.2 266.5 905.6 303 895.1C304.9 894.6 304.1 891.7 302.2 892.2C266.2 902.6 227.8 901.1 192.6 888.2C190.8 887.5 190 890.4 191.8 891.1Z" fill="#E8E8E8"/>
<path d="M301.1 894.2C298.8 923.3 294.8 952.1 288.9 980.7C288.5 982.6 291.4 983.4 291.8 981.5C297.8 952.7 301.9 923.6 304.1 894.2C304.3 892.3 301.3 892.3 301.1 894.2Z" fill="#E8E8E8"/>
<path d="M223.5 896.3C212.5 887 205.3 874.4 202.8 860.2C202.5 860.8 202.1 861.4 201.8 862C204.4 861.4 206.4 861.7 208.7 863C210 863.8 211.4 862.2 210.8 860.9C209.1 857.7 207.5 854.6 205.8 851.4C205 849.8 204.1 848.3 203.3 846.7C202 843.9 200.7 836.6 206.1 837.7C207.3 837.9 208.2 837 207.9 835.9C204.4 818.4 201 800.6 199.9 782.8C199.4 774.6 199.5 766.2 201.4 758.1C202.3 754.2 203.6 750.4 205.3 746.8C206.5 744.3 207.3 741.2 211.3 743.2C212.7 743.9 214.1 745.7 215.2 746.9C225.7 757.9 231.1 772.7 235 787.1C239.6 803.6 243.4 820.4 246.7 837.2C250.7 857.6 253.1 878.3 252.4 899.2C252.3 901.1 255.3 901.1 255.4 899.2C256.1 878.8 253.7 858.4 249.9 838.3C246.3 819.1 242 799.8 236.3 781.1C231.8 766.3 225.2 750.7 212.8 740.7C201.2 731.4 197 764.6 196.7 771C195.8 792.8 200.6 815.4 204.9 836.7C205.5 836.1 206.1 835.5 206.7 834.9C202.3 834 198.9 837.3 198.7 841.7C198.6 844.9 200.3 847.9 201.7 850.6C203.8 854.6 205.8 858.5 207.9 862.5C208.6 861.8 209.3 861.1 210 860.4C207 858.7 204.1 858.3 200.8 859.1C200 859.3 199.6 860.2 199.8 860.9C202.4 875.5 209.9 888.7 221.2 898.3C222.9 899.6 225 897.5 223.5 896.3Z" fill="#E8E8E8"/>
<path d="M250.7 838.7C250.4 827.8 255.5 818 260.9 808.8C266.2 799.7 272.3 791.1 279 782.9C278.2 782.7 277.3 782.5 276.5 782.2C277 783.6 277.5 785.1 278.1 786.5C278.5 787.7 280.1 788 280.8 786.9C288.6 775.4 297 764.4 306.1 753.9C305.2 753.5 304.4 753.2 303.5 752.8C303.9 767.2 302.8 781.5 299.9 795.6C297.6 806.6 295.3 824 283.6 829C282.1 829.7 283.1 831.6 284.4 831.8C295.7 833.2 283.5 855.2 281.4 860.9C276.7 873.6 272.6 886.6 268.6 899.5C268 901.3 270.9 902.1 271.5 900.3C276.3 885.1 281 869.7 287 854.9C288.7 850.8 291.3 846.7 292.2 842.3C293.4 836.2 291.3 829.6 284.5 828.8C284.8 829.7 285 830.7 285.3 831.6C296.9 826.6 299.7 811 302.2 800.1C305.7 784.6 307.2 768.7 306.7 752.8C306.7 751.6 305 750.7 304.1 751.7C294.9 762.4 286.3 773.6 278.3 785.3C279.2 785.4 280.1 785.5 281 785.7C280.5 784.3 280 782.8 279.4 781.4C279.1 780.4 277.7 779.8 276.9 780.7C269.7 789.5 263.1 798.8 257.5 808.7C252.2 817.9 247.5 827.7 247.8 838.6C247.7 840.7 250.7 840.7 250.7 838.7Z" fill="#E8E8E8"/>
<path d="M192.8 890.7C196.2 889.6 200.1 891.1 203.5 891.6C207.3 892.1 211.1 892.4 214.9 892.5C216.8 892.5 216.8 889.5 214.9 889.5C210.1 889.4 205.4 889 200.7 888.1C197.7 887.6 195 886.8 192 887.8C190.2 888.4 190.9 891.3 192.8 890.7Z" fill="#E8E8E8"/>
<path d="M273.1 894.7C282.9 894.9 292.7 895.3 302.4 895.9C304.3 896 304.3 893 302.4 892.9C292.6 892.3 282.9 891.9 273.1 891.7C271.2 891.6 271.2 894.6 273.1 894.7Z" fill="#E8E8E8"/>
<path d="M204.8 893.1C208.9 894.1 213 895.1 217 896C218.9 896.5 219.7 893.6 217.8 893.1C213.7 892.1 209.6 891.1 205.6 890.2C203.7 889.8 202.9 892.7 204.8 893.1Z" fill="#E8E8E8"/>
<path d="M273 892.8C270.7 893.3 270 896.4 272.3 897.5C274.5 898.5 279 897.3 281.3 897.2C284.8 897 288.3 896.7 291.8 896.5C293.7 896.4 293.7 893.4 291.8 893.5C288.6 893.7 285.3 893.9 282.1 894.2C280.6 894.3 279.1 894.4 277.6 894.5C276.9 894.6 276.1 894.6 275.4 894.7C274.1 894.3 273.6 894.7 273.9 895.8C275.7 895.3 274.9 892.4 273 892.8Z" fill="#E8E8E8"/>
<path d="M206.8 961.4C211 968.9 216.6 975.5 223.4 980.8C224.9 982 227 979.9 225.5 978.7C218.9 973.5 213.5 967.3 209.4 959.9C208.5 958.1 205.9 959.7 206.8 961.4Z" fill="#E8E8E8"/>
<path d="M195.9 919.4C210.4 942.6 228.4 963.3 249.5 980.8C251 982 253.1 979.9 251.6 978.7C230.7 961.4 212.8 941 198.4 917.9C197.5 916.2 194.9 917.7 195.9 919.4Z" fill="#E8E8E8"/>
<path d="M201.5 893.4C211.1 910.4 221.1 927.4 234.4 941.8C248.4 956.9 265.3 969.7 281.7 981.9C283.3 983.1 284.7 980.4 283.2 979.3C266.9 967.2 250.3 954.6 236.5 939.7C223.4 925.5 213.6 908.6 204.1 891.9C203.1 890.2 200.5 891.7 201.5 893.4Z" fill="#E8E8E8"/>
<path d="M230.9 900.2C246.5 924.9 267.7 945.6 292.9 960.5C294.6 961.5 296.1 958.9 294.4 957.9C269.7 943.2 248.8 922.9 233.5 898.6C232.4 897.1 229.8 898.6 230.9 900.2Z" fill="#E8E8E8"/>
<path d="M264.9 902C273.3 914.3 283.4 925.3 295.1 934.5C296.6 935.7 298.7 933.6 297.2 932.4C285.7 923.3 275.7 912.6 267.5 900.5C266.4 898.9 263.8 900.4 264.9 902Z" fill="#E8E8E8"/>
<path d="M286.7 899.5C290.5 904.9 294.8 909.7 299.6 914.1C301 915.4 303.2 913.3 301.7 912C297 907.8 292.9 903.1 289.2 898C288.2 896.5 285.5 898 286.7 899.5Z" fill="#E8E8E8"/>
<path d="M857.9 902.7C861.2 929.1 866.2 955.3 873.2 981C873.7 982.9 876.6 982.1 876.1 980.2C869.2 954.8 864.2 928.9 860.9 902.7C860.6 900.8 857.6 900.8 857.9 902.7Z" fill="#E8E8E8"/>
<path d="M859.6 903.4C886.6 910.8 915 910.9 942 903.7C943.9 903.2 943.1 900.3 941.2 900.8C914.7 907.9 886.9 907.8 860.4 900.5C858.5 900 857.8 902.8 859.6 903.4Z" fill="#E8E8E8"/>
<path d="M940.5 902.7C938.8 929.3 933.7 955.4 925.2 980.6C924.6 982.4 927.5 983.2 928.1 981.4C936.6 955.9 941.8 929.5 943.5 902.7C943.6 900.8 940.6 900.8 940.5 902.7Z" fill="#E8E8E8"/>
<path d="M884.5 905.4C879.3 898.5 875.2 890.9 872.7 882.6C871.5 878.6 870.6 874.6 870 870.4C869.5 866.6 867.3 858.7 873 858.9C873.9 858.9 874.8 857.9 874.4 857C873.1 853 872.3 849.2 872.1 845C871.7 845.5 871.4 846 871 846.4C873.9 845.4 875.1 843.1 875.6 840.2C876.6 834.4 876.1 828 876.2 822.1C876.6 808.5 876.9 794.9 877.3 781.2C876.5 781.6 875.8 782.1 875 782.5C883.8 788.5 887.9 800.7 891.3 810.4C894.8 820.6 897.2 831.2 898.7 841.8C901.8 863.6 901.5 885.7 900.4 907.7C900.3 909.6 903.3 909.6 903.4 907.7C904.5 884.3 904.8 860.7 901 837.6C899.1 826.1 896.3 814.7 892 803.9C888.5 795.1 884.6 785.5 876.5 780C875.5 779.3 874.3 780.2 874.2 781.3C873.9 791.7 873.7 802.1 873.4 812.4C873.3 817.6 873.1 822.8 873 828C872.9 831.3 874.3 842.1 870.1 843.6C869.5 843.8 869 844.4 869 845C869.2 849.4 870 853.6 871.4 857.8C871.9 857.2 872.4 856.5 872.8 855.9C869.8 855.8 866.7 856.5 866.2 859.7C865.5 864.8 866.7 871 867.7 876.1C870 887.3 874.9 897.8 881.7 907C883 908.5 885.6 907 884.5 905.4Z" fill="#E8E8E8"/>
<path d="M901.9 837.3C904.5 828.3 907.5 819.4 910.6 810.6C909.9 810.9 909.1 811.2 908.4 811.5C909.4 812.1 910.4 812.8 911.5 813.4C912.2 813.8 913.1 813.5 913.6 812.9C920.8 800.9 928 789 935.2 777C934.3 776.7 933.3 776.5 932.4 776.2C936.7 820.4 929.7 865.2 912.1 906.1C911.3 907.9 913.9 909.4 914.7 907.6C932.5 866.3 939.7 821 935.4 776.2C935.3 774.8 933.4 774.1 932.6 775.4C925.4 787.4 918.2 799.3 911 811.3C911.7 811.1 912.4 810.9 913.1 810.8C912.1 810.2 911.1 809.5 910 808.9C909.1 808.4 908.1 808.9 907.8 809.8C904.6 818.6 901.7 827.5 899.1 836.5C898.5 838.3 901.4 839.1 901.9 837.3Z" fill="#E8E8E8"/>
<path d="M861 903.5C866.7 903.7 872.3 904 878 904.2C879.9 904.3 879.9 901.3 878 901.2C872.3 901 866.7 900.7 861 900.5C859.1 900.4 859.1 903.4 861 903.5Z" fill="#E8E8E8"/>
<path d="M874.9 904.1C876.8 904.9 878.8 905.6 880.8 905.9C882.7 906.2 883.5 903.3 881.6 903C879.8 902.7 878 902.2 876.4 901.5C874.6 900.8 873.1 903.3 874.9 904.1Z" fill="#E8E8E8"/>
<path d="M916.2 905.2C924.5 904 932.7 903.2 941.1 902.7C943 902.6 943 899.6 941.1 899.7C932.5 900.2 923.9 901 915.4 902.3C913.5 902.6 914.3 905.5 916.2 905.2Z" fill="#E8E8E8"/>
<path d="M915.2 906.6C919.6 905.9 924.1 905.5 928.6 905.1C930.5 905 930.5 902 928.6 902.1C923.8 902.4 919.1 903 914.4 903.7C912.5 904 913.3 906.8 915.2 906.6Z" fill="#E8E8E8"/>
<path d="M862.1 918C868.7 917.8 874.1 921.7 880.5 922.6C887.6 923.6 892 917.7 898.7 917.8C905.4 917.9 911.2 922.3 918 922.3C921 922.3 924 921.7 926.7 920.5C930.7 918.9 934.4 915.7 938.9 917.5C940.7 918.2 941.5 915.3 939.7 914.6C933.5 912.2 928.5 917.3 922.7 918.7C914.5 920.7 908 915.8 900.2 914.9C892.9 914.1 887.8 920.6 880.7 919.6C874.3 918.6 868.8 914.8 862.1 915.1C860.1 915.1 860.1 918.1 862.1 918Z" fill="#E8E8E8"/>
<path d="M863.4 933.8C887.6 943.4 914.7 943.7 939.1 934.6C940.9 933.9 940.1 931 938.3 931.7C914.3 940.6 888 940.3 864.2 930.9C862.4 930.2 861.6 933.1 863.4 933.8Z" fill="#E8E8E8"/>
<path d="M5.7002 504.7C5.7002 565.6 5.7002 626.4 5.7002 687.3C5.7002 689.2 8.7002 689.2 8.7002 687.3C8.7002 626.4 8.7002 565.6 8.7002 504.7C8.7002 502.7 5.7002 502.7 5.7002 504.7Z" fill="#E8E8E8"/>
<path d="M7.6999 505.8C49.1999 505.8 90.6999 505.8 132.2 505.8C134.1 505.8 134.1 502.8 132.2 502.8C90.6999 502.8 49.1999 502.8 7.6999 502.8C5.7999 502.8 5.7999 505.8 7.6999 505.8Z" fill="#E8E8E8"/>
<path d="M132.5 504.3C132.5 564.7 132.5 625.1 132.5 685.6C132.5 687.5 135.5 687.5 135.5 685.6C135.5 625.2 135.5 564.8 135.5 504.3C135.5 502.3 132.5 502.3 132.5 504.3Z" fill="#E8E8E8"/>
<path d="M8.5998 689.2C50.1998 689.2 91.8998 689.2 133.5 689.2C135.4 689.2 135.4 686.2 133.5 686.2C91.8998 686.2 50.1998 686.2 8.5998 686.2C6.6998 686.2 6.6998 689.2 8.5998 689.2Z" fill="#E8E8E8"/>
<path d="M122.8 519.6C121.3 519.2 119.7 518 119.8 516.2C119.9 514.2 121.9 513 123.7 513.8C125.2 514.5 126.4 516.2 126.1 517.8C126 519.3 124.1 520.6 122.8 519.6C121.3 518.3 119.1 520.4 120.6 521.7C123.1 523.7 126.8 523 128.5 520.2C130.3 517 128.3 512.9 125.3 511.3C122.1 509.6 118.2 511.2 117.1 514.7C116 518.2 118.6 521.7 122 522.5C123.9 522.9 124.7 520 122.8 519.6Z" fill="#E8E8E8"/>
<path d="M118.8 673.5C117.4 672.3 117 669.9 118.4 668.5C119.9 666.9 122.7 667.4 123.8 669.2C124.5 670.4 125.5 673.5 123.8 674.4C122.9 674.9 121.7 674.1 121 673.6C120 673 119 672.5 117.9 672.1C116.1 671.4 115.3 674.3 117.1 675C119 675.7 120.5 677.1 122.5 677.5C124.1 677.8 125.8 677.1 126.7 675.8C128.6 673 127.5 668.5 125.2 666.2C122.7 663.8 118.2 664 116 666.7C113.8 669.3 114.2 673.4 116.7 675.6C118.1 677 120.3 674.8 118.8 673.5Z" fill="#E8E8E8"/>
<path d="M15.5998 516.7C40.4998 516.6 65.3998 516.6 90.1998 516.5C92.0998 516.5 92.0998 513.5 90.1998 513.5C65.2998 513.6 40.3998 513.6 15.5998 513.7C13.6998 513.7 13.6998 516.7 15.5998 516.7Z" fill="#E8E8E8"/>
<path d="M15.5998 523.9C25.7998 524.6 36.1998 526.2 46.3998 524.3C48.2998 523.9 47.4998 521.1 45.5998 521.4C35.7998 523.2 25.4998 521.6 15.5998 520.9C13.6998 520.8 13.6998 523.8 15.5998 523.9Z" fill="#E8E8E8"/>
<path d="M17.1003 676.8C16.3003 676.5 16.0003 675.4 16.1003 674.6C16.3003 673.5 17.4002 673.1 18.4002 673.3C19.7002 673.5 20.7003 674.4 20.8003 675.7C20.9003 676.7 19.7003 678.3 18.6003 677.4C17.1003 676.2 15.0003 678.3 16.5003 679.5C18.9003 681.4 22.5003 680.5 23.6003 677.5C24.6003 674.6 22.8002 671.4 19.9002 670.5C17.3002 669.7 14.2002 670.8 13.4002 673.5C12.6002 676 13.9002 678.8 16.4002 679.6C18.2002 680.3 19.0003 677.5 17.1003 676.8Z" fill="#E8E8E8"/>
<path d="M18.9001 548.1C45.6001 548.1 72.4001 548.1 99.1001 548.1C101 548.1 101 545.1 99.1001 545.1C72.4001 545.1 45.6001 545.1 18.9001 545.1C17.0001 545.1 17.0001 548.1 18.9001 548.1Z" fill="#E8E8E8"/>
<path d="M23.4001 558C44.4001 558 65.5001 558 86.5001 558C88.4001 558 88.4001 555 86.5001 555C65.5001 555 44.4001 555 23.4001 555C21.5001 555 21.5001 558 23.4001 558Z" fill="#E8E8E8"/>
<path d="M22.5002 575.2C42.8002 575.2 63.1002 575.2 83.3002 575.2C85.2002 575.2 85.2002 572.2 83.3002 572.2C63.0002 572.2 42.7002 572.2 22.5002 572.2C20.6002 572.2 20.6002 575.2 22.5002 575.2Z" fill="#E8E8E8"/>
<path d="M3.5 420.8C3.5 416.3 3.5 411.8 3.5 407.3C3.5 405.4 0.5 405.4 0.5 407.3C0.5 411.8 0.5 416.3 0.5 420.8C0.5 422.7 3.5 422.7 3.5 420.8Z" fill="#E8E8E8"/>
<path d="M3.0002 407C88.0002 407 173 407 258 407C281.9 407 305.8 407 329.7 407C331.6 407 331.6 404 329.7 404C244.7 404 159.7 404 74.7002 404C50.8002 404 26.9002 404 3.0002 404C1.1002 404 1.1002 407 3.0002 407Z" fill="#E8E8E8"/>
<path d="M2.2998 422.6C87.4998 422.6 172.7 422.6 257.9 422.6C282.1 422.6 306.3 422.6 330.5 422.6C332.4 422.6 332.4 419.6 330.5 419.6C245.3 419.6 160.1 419.6 74.8998 419.6C50.6998 419.6 26.4998 419.6 2.2998 419.6C0.299805 419.6 0.299805 422.6 2.2998 422.6Z" fill="#E8E8E8"/>
<path d="M329.4 405.6C329.4 410.3 329.4 415 329.4 419.7C329.4 421.6 332.4 421.6 332.4 419.7C332.4 415 332.4 410.3 332.4 405.6C332.4 403.7 329.4 403.7 329.4 405.6Z" fill="#E8E8E8"/>
<path d="M163.2 404.7C163.2 397.4 163.2 390.2 163.2 382.9C163.2 381 160.2 381 160.2 382.9C160.2 390.2 160.2 397.4 160.2 404.7C160.2 406.6 163.2 406.6 163.2 404.7Z" fill="#E8E8E8"/>
<path d="M172.3 381C172.3 388.3 172.3 395.5 172.3 402.8C172.3 404.7 175.3 404.7 175.3 402.8C175.3 395.5 175.3 388.3 175.3 381C175.3 379 172.3 379 172.3 381Z" fill="#E8E8E8"/>
<path d="M173.9 382.5C197.1 382.5 220.3 382.5 243.6 382.5C245.5 382.5 245.5 379.5 243.6 379.5C220.4 379.5 197.2 379.5 173.9 379.5C172 379.5 172 382.5 173.9 382.5Z" fill="#E8E8E8"/>
<path d="M245.5 380.6C245.5 352.1 245.5 323.7 245.5 295.2C245.5 293.3 242.5 293.3 242.5 295.2C242.5 323.7 242.5 352.1 242.5 380.6C242.5 382.5 245.5 382.5 245.5 380.6Z" fill="#E8E8E8"/>
<path d="M244 293.5C195.4 293.5 146.8 293.5 98.1999 293.5C96.2999 293.5 96.2999 296.5 98.1999 296.5C146.8 296.5 195.4 296.5 244 296.5C245.9 296.5 245.9 293.5 244 293.5Z" fill="#E8E8E8"/>
<path d="M96 295.2C96 321.4 96 347.7 96 373.9C96 375.8 99 375.8 99 373.9C99 347.7 99 321.4 99 295.2C99 293.3 96 293.3 96 295.2Z" fill="#E8E8E8"/>
<path d="M161.5 381.1C140.3 381.1 119.1 381.1 98.0002 381.1C96.1002 381.1 96.1002 384.1 98.0002 384.1C119.2 384.1 140.4 384.1 161.5 384.1C163.4 384.1 163.4 381.1 161.5 381.1Z" fill="#E8E8E8"/>
<path d="M96 371.2C96 374.5 96 377.9 96 381.2C96 383.1 99 383.1 99 381.2C99 377.9 99 374.5 99 371.2C99 369.3 96 369.3 96 371.2Z" fill="#E8E8E8"/>
<path d="M104.7 301.9C104.7 325.6 104.7 349.3 104.7 373C104.7 374.9 107.7 374.9 107.7 373C107.7 349.3 107.7 325.6 107.7 301.9C107.7 300 104.7 300 104.7 301.9Z" fill="#E8E8E8"/>
<path d="M106.6 374.7C148.9 374.7 191.2 374.7 233.5 374.7C235.4 374.7 235.4 371.7 233.5 371.7C191.2 371.7 148.9 371.7 106.6 371.7C104.7 371.7 104.7 374.7 106.6 374.7Z" fill="#E8E8E8"/>
<path d="M235.5 371.7C235.5 349.3 235.5 326.8 235.5 304.4C235.5 302.5 232.5 302.5 232.5 304.4C232.5 326.8 232.5 349.3 232.5 371.7C232.5 373.6 235.5 373.6 235.5 371.7Z" fill="#E8E8E8"/>
<path d="M106.9 303.2C149.3 303.2 191.6 303.2 234 303.2C235.9 303.2 235.9 300.2 234 300.2C191.6 300.2 149.3 300.2 106.9 300.2C104.9 300.2 104.9 303.2 106.9 303.2Z" fill="#E8E8E8"/>
<path d="M232.2 303.2C232.2 303.4 232.2 303.6 232.2 303.9C232.2 304.7 232.9 305.4 233.7 305.4C234.5 305.4 235.2 304.7 235.2 303.9C235.2 303.7 235.2 303.5 235.2 303.2C235.2 302.4 234.5 301.7 233.7 301.7C232.9 301.8 232.2 302.4 232.2 303.2Z" fill="#E8E8E8"/>
<path d="M833.5 463.6C846.8 467.4 861.2 467.8 874.8 469.3C890.2 471 905.6 472.6 921 474.3C951.5 477.6 981.9 480.8 1012.4 484.1C1014.3 484.3 1014.3 481.3 1012.4 481.1C982.6 477.9 952.8 474.7 923 471.5C908.3 469.9 893.5 468.3 878.8 466.8C864.1 465.2 848.5 464.9 834.3 460.8C832.5 460.2 831.7 463.1 833.5 463.6Z" fill="black"/>
<path d="M1047.4 417.5C1037.6 439.8 1026.1 461.3 1013 481.9C1012 483.5 1014.6 485 1015.6 483.4C1028.7 462.8 1040.2 441.3 1050 419C1050.8 417.3 1048.2 415.8 1047.4 417.5Z" fill="black"/>
<path d="M835.3 462.6C855.7 447.9 875.5 432.3 894.4 415.8C895.9 414.5 893.7 412.4 892.3 413.7C873.5 430 854 445.5 833.8 460C832.3 461.1 833.8 463.8 835.3 462.6Z" fill="black"/>
<path d="M894 415.4C919.4 412.4 945.1 414.4 970.6 415.7C996.5 417 1022.5 418.3 1048.4 419.6C1050.3 419.7 1050.3 416.7 1048.4 416.6C1022.5 415.3 996.5 414 970.6 412.7C945.1 411.4 919.4 409.4 894 412.4C892.1 412.6 892.1 415.6 894 415.4Z" fill="black"/>
<path d="M926.6 434.4C925 437.1 923.3 439.7 921.7 442.4C921.1 443.3 921.9 444.7 923 444.7C926.6 444.6 930.2 444.6 933.8 445.1C935.8 445.3 939.2 446.7 941.3 446C944.5 444.9 946.7 439 948 436.4C948.9 434.7 946.3 433.2 945.4 434.9C944.5 436.6 943.6 438.8 942.4 440.3C940.3 442.8 938.3 442.8 935.3 442.3C931.2 441.7 927.1 441.6 923 441.7C923.4 442.5 923.9 443.2 924.3 444C925.9 441.3 927.6 438.7 929.2 436C930.2 434.3 927.6 432.8 926.6 434.4Z" fill="#E8E8E8"/>
<path d="M928.6 435.9C934.4 434.4 940 434.4 945.6 436.8C947.4 437.6 948.9 435 947.1 434.2C940.7 431.4 934.4 431.2 927.7 433C925.9 433.5 926.7 436.4 928.6 435.9Z" fill="#E8E8E8"/>
<path d="M882.4 438.2C887.7 438 892.8 438.5 897.9 439.8C899.8 440.3 900.6 437.4 898.7 436.9C893.3 435.6 887.9 435 882.4 435.2C880.5 435.3 880.5 438.3 882.4 438.2Z" fill="#E8E8E8"/>
<path d="M883 436.9C886.2 433.4 889.6 430.1 893.1 426.9C894.5 425.6 892.4 423.5 891 424.8C887.5 428 884.2 431.4 880.9 434.8C879.6 436.2 881.7 438.4 883 436.9Z" fill="#E8E8E8"/>
<path d="M891.1 427C895.5 429.2 901.2 428.6 906.1 428.7C908 428.8 908 425.8 906.1 425.7C902 425.6 896.4 426.3 892.6 424.4C890.9 423.6 889.4 426.1 891.1 427Z" fill="#E8E8E8"/>
<path d="M903.9 426.8C901.5 430.1 899.1 433.5 896.9 437C895.9 438.6 898.5 440.1 899.5 438.5C901.7 435 904 431.6 906.5 428.3C907.6 426.7 905 425.2 903.9 426.8Z" fill="#E8E8E8"/>
<path d="M1026.1 285.3C1026.1 315.6 1026.1 346 1026.1 376.3C1026.1 378.2 1029.1 378.2 1029.1 376.3C1029.1 346 1029.1 315.6 1029.1 285.3C1029.1 283.3 1026.1 283.3 1026.1 285.3Z" fill="#E8E8E8"/>
<path d="M1028.3 377.8C1072 377.8 1115.8 377.8 1159.5 377.8C1161.4 377.8 1161.4 374.8 1159.5 374.8C1115.8 374.8 1072 374.8 1028.3 374.8C1026.3 374.8 1026.3 377.8 1028.3 377.8Z" fill="#E8E8E8"/>
<path d="M1161.1 376.1C1160.8 345.9 1160.4 315.7 1160.1 285.6C1160.1 283.7 1157.1 283.7 1157.1 285.6C1157.4 315.8 1157.8 346 1158.1 376.1C1158.1 378 1161.1 378 1161.1 376.1Z" fill="#E8E8E8"/>
<path d="M1028 286C1070.9 286 1113.8 286 1156.6 286C1158.5 286 1158.5 283 1156.6 283C1113.7 283 1070.8 283 1028 283C1026.1 283 1026.1 286 1028 286Z" fill="#E8E8E8"/>
<path d="M1092.4 283.1C1092 280.4 1092.1 277.6 1092.9 274.9C1093.5 272.6 1095.6 267.2 1099 268.9C1101 269.9 1101.6 273.5 1101.9 275.5C1102.3 278.2 1102.3 280.9 1102 283.6C1101.8 285.5 1104.8 285.5 1105 283.6C1105.5 278.6 1105.5 264.9 1097.3 265.6C1089.7 266.3 1088.7 278.4 1089.5 283.9C1089.8 285.8 1092.7 285 1092.4 283.1Z" fill="#E8E8E8"/>
<path d="M870 118C870 154.8 870 191.5 870 228.3C870 230.2 873 230.2 873 228.3C873 191.5 873 154.8 873 118C873 116.1 870 116.1 870 118Z" fill="#E8E8E8"/>
<path d="M872.4 229.8C925.4 229.8 978.3 229.8 1031.3 229.8C1033.2 229.8 1033.2 226.8 1031.3 226.8C978.3 226.8 925.4 226.8 872.4 226.8C870.5 226.8 870.5 229.8 872.4 229.8Z" fill="#E8E8E8"/>
<path d="M1033 228C1032.6 191.4 1032.2 154.9 1031.8 118.3C1031.8 116.4 1028.8 116.4 1028.8 118.3C1029.2 154.9 1029.6 191.4 1030 228C1030 229.9 1033 229.9 1033 228Z" fill="#E8E8E8"/>
<path d="M872.1 118.6C924 118.6 976 118.6 1027.9 118.6C1029.8 118.6 1029.8 115.6 1027.9 115.6C976 115.6 924 115.6 872.1 115.6C870.2 115.6 870.2 118.6 872.1 118.6Z" fill="#E8E8E8"/>
<path d="M949.8 115.5C949.3 112.1 949.5 108.7 950.4 105.4C951.2 102.5 953.8 95.7 958.3 97.9C963.3 100.4 962.6 111.5 962.1 115.9C961.9 117.8 964.9 117.8 965.1 115.9C965.7 110.1 965.8 93.5 956.1 94.5C947.1 95.4 946 109.8 947 116.3C947.2 118.2 950.1 117.4 949.8 115.5Z" fill="#E8E8E8"/>
<path d="M878.5 126.4C878.5 156.5 878.5 186.6 878.5 216.6C878.5 218.5 881.5 218.5 881.5 216.6C881.5 186.5 881.5 156.4 881.5 126.4C881.5 124.4 878.5 124.4 878.5 126.4Z" fill="#E8E8E8"/>
<path d="M880 220.1C926.8 220.1 973.6 220.1 1020.4 220.1C1022.3 220.1 1022.3 217.1 1020.4 217.1C973.6 217.1 926.8 217.1 880 217.1C878.1 217.1 878 220.1 880 220.1Z" fill="#E8E8E8"/>
<path d="M1023.9 217.4C1023.9 187.9 1023.9 158.3 1023.9 128.8C1023.9 126.9 1020.9 126.9 1020.9 128.8C1020.9 158.3 1020.9 187.9 1020.9 217.4C1020.9 219.3 1023.9 219.3 1023.9 217.4Z" fill="#E8E8E8"/>
<path d="M881.2 127.5C928 127.5 974.8 127.5 1021.6 127.5C1023.5 127.5 1023.5 124.5 1021.6 124.5C974.8 124.5 928 124.5 881.2 124.5C879.3 124.5 879.3 127.5 881.2 127.5Z" fill="#E8E8E8"/>
<path d="M896.8 640.4C945.1 640.4 993.4 640.4 1041.7 640.4C1043.6 640.4 1043.6 637.4 1041.7 637.4C993.4 637.4 945.1 637.4 896.8 637.4C894.8 637.4 894.8 640.4 896.8 640.4Z" fill="#E8E8E8"/>
<path d="M965.6 643.1C965.6 652.3 965.6 661.5 965.6 670.7C965.6 672.6 968.6 672.6 968.6 670.7C968.6 661.5 968.6 652.3 968.6 643.1C968.6 641.1 965.6 641.1 965.6 643.1Z" fill="#E8E8E8"/>
<path d="M943.7 676.3C967.6 676.3 991.5 676.3 1015.5 676.3C1017.4 676.3 1017.4 673.3 1015.5 673.3C991.6 673.3 967.7 673.3 943.7 673.3C941.8 673.3 941.7 676.3 943.7 676.3Z" fill="#E8E8E8"/>
<path d="M202.4 572.7C202.4 605.8 202.4 639 202.4 672.1C202.4 674 205.4 674 205.4 672.1C205.4 639 205.4 605.8 205.4 572.7C205.4 570.8 202.4 570.8 202.4 572.7Z" fill="#E8E8E8"/>
<path d="M203.9 574.2C252.7 574.2 301.4 574.2 350.2 574.2C352.1 574.2 352.1 571.2 350.2 571.2C301.4 571.2 252.7 571.2 203.9 571.2C201.9 571.2 201.9 574.2 203.9 574.2Z" fill="#E8E8E8"/>
<path d="M204 674.3C253 674.2 302 674.2 351 674.1C352.9 674.1 352.9 671.1 351 671.1C302 671.2 253 671.2 204 671.3C202.1 671.3 202.1 674.3 204 674.3Z" fill="#E8E8E8"/>
<path d="M349.6 573.1C349.6 605.5 349.6 637.9 349.6 670.4C349.6 672.3 352.6 672.3 352.6 670.4C352.6 638 352.6 605.6 352.6 573.1C352.6 571.2 349.6 571.2 349.6 573.1Z" fill="#E8E8E8"/>
<path d="M215 586.6C212.9 585.4 213.4 582 216 581.9C219.5 581.8 217.4 587.8 215.1 586.3C213.5 585.2 212 587.8 213.6 588.9C219.2 592.7 224.3 581.4 217.7 579.2C215.1 578.3 212.1 579.8 211 582.3C209.9 584.9 211.1 587.8 213.4 589.2C215.2 590.2 216.7 587.6 215 586.6Z" fill="#E8E8E8"/>
<path d="M221.5 597.7C250.3 597.7 279.1 597.7 307.9 597.7C309.8 597.7 309.8 594.7 307.9 594.7C279.1 594.7 250.3 594.7 221.5 594.7C219.5 594.7 219.5 597.7 221.5 597.7Z" fill="#E8E8E8"/>
<path d="M222.8 608.3C239.4 608.3 256 608.3 272.6 608.3C274.5 608.3 274.5 605.3 272.6 605.3C256 605.3 239.4 605.3 222.8 605.3C220.8 605.3 220.8 608.3 222.8 608.3Z" fill="#E8E8E8"/>
<path d="M225.6 671.6C225.6 661 225.6 650.3 225.6 639.7C225.6 637.8 222.6 637.8 222.6 639.7C222.6 650.3 222.6 661 222.6 671.6C222.6 673.5 225.6 673.5 225.6 671.6Z" fill="#E8E8E8"/>
<path d="M224.4 640.2C248.5 640.2 272.7 640.2 296.8 640.2C298.7 640.2 298.7 637.2 296.8 637.2C272.7 637.2 248.5 637.2 224.4 637.2C222.5 637.2 222.5 640.2 224.4 640.2Z" fill="#E8E8E8"/>
<path d="M295.3 639.4C295.3 649.9 295.3 660.4 295.3 671C295.3 672.9 298.3 672.9 298.3 671C298.3 660.5 298.3 650 298.3 639.4C298.3 637.4 295.3 637.4 295.3 639.4Z" fill="#E8E8E8"/>
<path d="M239.2 671.2C239.2 664.2 239.2 657.2 239.2 650.3C239.2 648.4 236.2 648.4 236.2 650.3C236.2 657.3 236.2 664.3 236.2 671.2C236.2 673.2 239.2 673.2 239.2 671.2Z" fill="#E8E8E8"/>
<path d="M251.2 671.2C251.2 664.2 251.2 657.2 251.2 650.3C251.2 648.4 248.2 648.4 248.2 650.3C248.2 657.3 248.2 664.3 248.2 671.2C248.2 673.2 251.2 673.2 251.2 671.2Z" fill="#E8E8E8"/>
<path d="M262.8 670.9C262.8 664.5 262.8 658.1 262.8 651.6C262.8 649.7 259.8 649.7 259.8 651.6C259.8 658 259.8 664.4 259.8 670.9C259.8 672.8 262.8 672.8 262.8 670.9Z" fill="#E8E8E8"/>
<path d="M274.8 671.9C274.8 665.3 274.8 658.6 274.8 652C274.8 650.1 271.8 650.1 271.8 652C271.8 658.6 271.8 665.3 271.8 671.9C271.8 673.8 274.8 673.8 274.8 671.9Z" fill="#E8E8E8"/>
<path d="M287.7 670.2C287.7 664 287.7 657.8 287.7 651.6C287.7 649.7 284.7 649.7 284.7 651.6C284.7 657.8 284.7 664 284.7 670.2C284.7 672.2 287.7 672.2 287.7 670.2Z" fill="#E8E8E8"/>
<path d="M341.1 582.7C339.9 582.2 339.7 580.1 341.1 579.6C341.7 579.4 342.7 579.5 342.9 580.2C343.1 580.6 342.7 581.6 342.1 581.5C341.3 581.4 340.5 581.7 340.3 582.5C340.1 583.2 340.5 584.2 341.3 584.3C343.7 584.7 345.8 582.9 345.9 580.5C346 578.2 343.8 576.4 341.6 576.4C339.4 576.4 337.6 577.8 337.1 580C336.7 582 337.5 584.3 339.4 585.2C341.3 586.1 342.8 583.5 341.1 582.7Z" fill="#E8E8E8"/>
<path d="M847.4 554.1C854.856 554.1 860.9 548.056 860.9 540.6C860.9 533.144 854.856 527.1 847.4 527.1C839.944 527.1 833.9 533.144 833.9 540.6C833.9 548.056 839.944 554.1 847.4 554.1Z" fill="#EC615B"/>
<path d="M874.1 524.5C878.021 524.5 881.2 521.321 881.2 517.4C881.2 513.479 878.021 510.3 874.1 510.3C870.179 510.3 867 513.479 867 517.4C867 521.321 870.179 524.5 874.1 524.5Z" fill="#EC615B"/>
<path d="M729.2 53C738.81 53 746.6 45.2097 746.6 35.6C746.6 25.9902 738.81 18.2 729.2 18.2C719.59 18.2 711.8 25.9902 711.8 35.6C711.8 45.2097 719.59 53 729.2 53Z" fill="#5222D0"/>
<path d="M201.8 486.8C207.047 486.8 211.3 482.547 211.3 477.3C211.3 472.053 207.047 467.8 201.8 467.8C196.553 467.8 192.3 472.053 192.3 477.3C192.3 482.547 196.553 486.8 201.8 486.8Z" fill="#5222D0"/>
<path d="M214.2 467.6C219.833 467.6 224.4 463.033 224.4 457.4C224.4 451.767 219.833 447.2 214.2 447.2C208.567 447.2 204 451.767 204 457.4C204 463.033 208.567 467.6 214.2 467.6Z" fill="#EC615B"/>
<path d="M712.5 48.6C720.895 48.6 727.7 41.7947 727.7 33.4C727.7 25.0053 720.895 18.2 712.5 18.2C704.105 18.2 697.3 25.0053 697.3 33.4C697.3 41.7947 704.105 48.6 712.5 48.6Z" fill="#EC615B"/>
<path d="M765.5 263.8C765.7 261.7 766.7 260.8 768.4 260.9C769.3 260.7 770.3 260.6 771.2 260.8C772.3 260.8 773.4 261 774.4 260.8C776 260.5 777.4 260 778.5 258.8C779.6 257.5 779.8 255.9 780.1 254.3C781 249 784.8 250.8 788.3 251.7C792.2 252.7 795.4 251.8 798 248.7C799.4 247 800.3 244.9 801.3 242.9C802.5 240.5 808.3 233.1 810.3 239.1C810.9 240.9 813.8 240.1 813.2 238.3C811.6 233.6 805.9 233.1 802.4 236.1C799.3 238.8 798.5 243 796.1 246.1C792 251.6 787.7 247 782.5 247.2C780.4 247.3 778.8 248.4 777.9 250.3C776.5 253.2 778 254.5 774.8 256.5C771.9 258.4 771.1 257.3 768 257.7C764 258.3 759.8 263.3 764.1 266.3C765.5 267.5 767 264.9 765.5 263.8Z" fill="#EC615B"/>
<path d="M778.8 272.1C777.2 270 777.8 268.9 780.5 268.6C782.1 267.3 783.9 267.1 785.8 267.9C786.7 268 787.7 268.2 788.6 268.3C790.9 268.5 792.7 268.1 794.7 267.2C795.5 266.8 795.6 265.8 795.2 265.1C791.7 258 802.6 256.8 806.3 256.6C809.4 256.5 812.5 256.6 815.5 255.5C819.3 254 821.9 251.3 822.3 247.2C822.5 245.3 819.5 245.3 819.3 247.2C818.4 256.9 802.4 252 796.6 255.6C792.6 258 790.6 262.4 792.7 266.7C792.9 266 793.1 265.3 793.2 264.6C788.1 267 780.5 261.8 776.2 266.9C774.1 269.4 774.4 273 777.2 274.8C779 275.7 780.5 273.1 778.8 272.1Z" fill="#EC615B"/>
<path d="M413.7 80.6C411.4 71.8 422.1 64.5 428.8 71.7C435.5 78.9 427.4 89 418.8 86.1C417 85.5 416.2 88.4 418 89C429.6 92.9 439.6 78.8 430.9 69.6C422.2 60.3 407.7 69.7 410.8 81.4C411.3 83.3 414.2 82.5 413.7 80.6Z" fill="#5222D0"/>
<path d="M415.9 805.9C423.9 819.4 439 827.4 454.7 826.3C456.6 826.2 456.6 823.2 454.7 823.3C440 824.3 426 817 418.5 804.4C417.5 802.7 414.9 804.2 415.9 805.9Z" fill="#5222D0"/>
<path d="M409.8 823.1C420.3 833.9 434.2 840.2 449.3 840.9C451.2 841 451.2 838 449.3 837.9C435 837.2 421.9 831.2 411.9 820.9C410.6 819.6 408.4 821.8 409.8 823.1Z" fill="#5222D0"/>
<path d="M1083.7 139.1C1077.1 147.4 1083.9 160.7 1094.6 159.5C1099.8 158.9 1106.3 155.8 1108.4 162.9C1109.4 166.2 1108.8 169.8 1109.6 173.1C1110.7 177.9 1114.6 183 1120 181.2C1121.8 180.6 1121 177.7 1119.2 178.3C1111.9 180.7 1112.4 168 1111.7 163.9C1111.1 160.3 1109.6 156.9 1106 155.6C1100.8 153.7 1095.4 158 1090.3 156.1C1084.6 154 1082 146 1085.9 141.2C1087 139.8 1084.9 137.6 1083.7 139.1Z" fill="#E8E8E8"/>
<path d="M1069.8 159.4C1067.3 163.5 1069.2 167.8 1072.7 170.7C1077.2 174.3 1082.3 174 1087.8 174.5C1092.5 174.9 1096.2 176.2 1098.7 180.4C1100.4 183.3 1101 186.7 1102.8 189.5C1105.3 193.3 1109.7 196.1 1114.2 194.2C1116 193.5 1115.2 190.6 1113.4 191.3C1107 194 1104.3 185.7 1102.5 181.5C1101 177.9 1099 174.9 1095.3 173.2C1092.1 171.7 1088.4 171.6 1084.9 171.4C1080.4 171.1 1067.9 168.5 1072.4 161C1073.4 159.3 1070.8 157.8 1069.8 159.4Z" fill="#E8E8E8"/>
<path d="M52.7998 732.8C54.0998 729.4 55.7998 728.4 57.7998 729.9C58.5998 730.2 59.3999 730.7 59.9999 731.3C61.1999 732.2 62.1998 733.2 63.3998 734.1C64.7998 735.1 66.3999 736.2 68.0999 736.6C70.8999 737.3 73.3998 736.4 75.3998 734.4C77.6998 732.1 78.2998 727.8 80.8998 725.8C83.3998 723.9 84.9998 726.9 86.7998 728.6C88.5998 730.2 90.4998 731.7 92.3998 733.1C93.9998 734.2 95.4998 731.6 93.8998 730.5C90.2998 727.9 87.0999 724.9 84.0999 721.6C83.7999 721.2 83.0999 721.1 82.5999 721.2C79.3999 722.2 77.6999 724.7 76.0999 727.6C74.6999 730.2 73.8998 732.4 70.7998 733.2C66.7998 734.2 64.4999 730.9 61.4999 728.7C58.4999 726.5 54.6998 724.9 51.3998 727.5C49.1998 729.3 48.5998 731.8 49.8998 734.3C51.1998 736 53.7998 734.5 52.7998 732.8Z" fill="#E8E8E8"/>
<path d="M53.6999 746.3C54.7999 751.6 59.7999 755.8 65.3999 755C68.5999 754.6 70.7999 752.4 73.4999 750.8C78.3999 747.8 83.7999 747.8 88.5999 750.9C90.1999 751.9 91.6999 749.3 90.0999 748.3C85.4999 745.4 79.9999 744.5 74.7999 746.6C72.3999 747.6 70.5999 749.3 68.3999 750.6C63.4999 753.4 57.6999 751.2 56.4999 745.4C56.1999 743.6 53.2999 744.4 53.6999 746.3Z" fill="#E8E8E8"/>
<path d="M249.3 35.3C257.5 36.1 264.5 41.1 268.2 48.4C269.1 50.1 271.7 48.6 270.8 46.9C266.6 38.6 258.6 33.2 249.3 32.3C247.4 32.1 247.4 35.1 249.3 35.3Z" fill="#161616"/>
<path d="M250.1 6.3C263.7 12.8 274.4 23.9 280.2 37.8C280.9 39.6 283.8 38.8 283.1 37C277 22.3 265.9 10.5 251.6 3.7C249.9 2.9 248.4 5.5 250.1 6.3Z" fill="#161616"/>
<path d="M282.4 2.69999C288.6 9.69999 291.7 18.3 291.6 27.7C291.6 29.6 294.6 29.6 294.6 27.7C294.7 17.6 291.2 8.19999 284.5 0.599991C283.3 -0.900009 281.2 1.19999 282.4 2.69999Z" fill="#161616"/>
<path d="M738.9 844.7C737.6 835.8 747.6 827.5 755.1 834.7C762 841.3 753.5 852 745.8 847C744.2 845.9 742.7 848.5 744.3 849.6C754.4 856.2 766.1 842.7 758.1 833.5C748.8 822.7 734.3 833.3 736 845.6C736.3 847.4 739.2 846.6 738.9 844.7Z" fill="#EC615B"/>
<path d="M751.2 797.6C749.6 792.5 756.2 788.4 759.5 793C762.5 797.2 757.5 802.1 753.2 799.9C751.5 799 750 801.6 751.7 802.5C759 806.3 767 797.7 761.7 791C756.3 784.1 745.8 790.3 748.3 798.4C748.9 800.2 751.8 799.5 751.2 797.6Z" fill="#EC615B"/>
<path d="M590.8 837C587.6 837.2 585.3 838.8 580.8 842C575.6 845.7 569.3 851.1 563.3 858.9C565.6 869 569.1 880.6 574.6 892.7C589.7 926.1 612.1 947.7 627.2 959.7C629.3 957.2 632.2 953.2 633.5 947.8C635.3 940.3 633.3 934.1 632.2 930.9C628.5 919 626 906.7 622.8 894.6C616.1 869.5 619.5 866.7 612.8 855.1C610.7 851.6 601.7 836.2 590.8 837Z" fill="#161616"/>
<path d="M662.8 553.9C666.4 561.1 670.7 570.8 674.7 582.7C684.5 612 685.7 636.1 686 644.1C686.3 654.1 686.5 683.4 674.7 718.6C661.3 758.5 639.9 784.2 625.8 800.6C611.9 816.9 598.5 828.9 588.8 836.9C588.8 839.3 589.2 843.8 591.9 848.2C598.4 858.4 611.7 858.2 612.6 858.2C620.7 852.5 630.7 844.8 641.4 835C659.8 818.2 671.7 803.1 676.5 796.8C684.6 786.2 699.2 766.6 710.9 737.3C723.6 705.6 727.1 676.9 727.8 657.1C728.6 635.6 726.2 620.4 722.8 598.9C717.3 563.6 710.3 549.3 705.3 540.7C700.7 532.9 696.1 527 692.8 523.2C682.8 533.4 672.8 543.6 662.8 553.9Z" fill="white"/>
<path d="M661.9 558C682 596.3 689.3 641.1 682.2 683.8C675.7 722.8 657.4 759 633 789.8C619.5 806.8 604.2 822.2 587.6 836.1C586.1 837.3 588.3 839.5 589.7 838.2C620.3 812.4 647 781.4 665 745.6C683.8 708.1 691.6 666.2 686.1 624.5C683 600.8 675.7 577.7 664.6 556.5C663.6 554.8 661 556.3 661.9 558Z" fill="#161616"/>
<path d="M698 530.4C720.6 572.6 729.7 621.5 725.2 669.1C720.6 718.1 701 763.6 670 801.6C652.8 822.7 632.9 841.3 611.5 858.1C610 859.3 612.1 861.4 613.6 860.2C652.4 829.7 687.1 792.3 707.7 747C727.6 703.3 733.5 653.7 726.3 606.4C722.1 579.3 713.5 553 700.6 528.9C699.7 527.2 697.1 528.7 698 530.4Z" fill="#161616"/>
<path d="M586.8 836.9C588.5 850.4 599.6 865 614.7 859.2C616.5 858.5 615.7 855.6 613.9 856.3C600.7 861.4 591.3 848.6 589.8 836.9C589.6 835 586.6 835 586.8 836.9Z" fill="#161616"/>
<path d="M585.9 836.6C576.3 841.6 568.4 848.7 562.2 857.5C561.1 859.1 563.7 860.6 564.8 859C570.7 850.6 578.4 843.9 587.4 839.2C589.1 838.3 587.6 835.7 585.9 836.6Z" fill="#161616"/>
<path d="M562.5 860.2C571.7 899.4 593.8 935.1 625.6 960C627.1 961.2 629.2 959.1 627.7 957.9C596.3 933.3 574.5 898.2 565.4 859.4C564.9 857.5 562 858.3 562.5 860.2Z" fill="#161616"/>
<path d="M612.1 859.6C616.5 876.2 621 892.7 625.4 909.3C629.5 924.4 638 944.9 626.2 958.6C624.9 960.1 627.1 962.2 628.3 960.7C639.3 947.9 634.3 930.7 630.4 916.1C625.3 897 620.1 877.9 615 858.8C614.5 856.9 611.6 857.7 612.1 859.6Z" fill="#161616"/>
<path d="M674.3 578.9C682.1 565.8 696.501 558 711.701 558.6C713.601 558.7 713.601 555.7 711.701 555.6C695.401 555 680.001 563.4 671.701 577.4C670.701 579 673.3 580.5 674.3 578.9Z" fill="#161616"/>
<path d="M685.5 622.1C691.9 614.3 700.5 609.5 710.4 607.9C712.3 607.6 711.5 604.7 709.6 605C699.2 606.6 690 611.9 683.4 620C682.2 621.5 684.3 623.6 685.5 622.1Z" fill="#161616"/>
<path d="M690.3 591.9C698.3 585.2 708.2 581.9 718.5 582.3C720.4 582.4 720.4 579.4 718.5 579.3C707.3 578.9 696.7 582.6 688.1 589.8C686.7 591 688.8 593.1 690.3 591.9Z" fill="#161616"/>
<path d="M686.6 678.9C690.8 673.6 698.3 673.7 704.5 673.9C712 674.2 721.3 676.8 722.4 685.6C722.6 687.5 725.6 687.5 725.4 685.6C724.3 677 716.9 672.4 708.9 671.3C701.1 670.2 689.9 670 684.5 676.9C683.3 678.3 685.4 680.5 686.6 678.9Z" fill="#161616"/>
<path d="M606.3 821C607 832.6 612.7 847.7 626 849.2C627.9 849.4 627.9 846.4 626 846.2C614.6 844.9 609.9 830.8 609.3 821C609.2 819.1 606.2 819.1 606.3 821Z" fill="#161616"/>
<path d="M626.3 800.5C628.1 809.3 633 816.7 640.3 822C641.9 823.1 643.4 820.5 641.8 819.4C635.2 814.6 630.9 807.7 629.2 799.7C628.8 797.8 625.9 798.6 626.3 800.5Z" fill="#161616"/>
<path d="M643.3 799.5C648 805.5 653.3 811.6 661.1 813.1C663 813.5 663.8 810.6 661.9 810.2C654.6 808.8 649.8 802.9 645.4 797.3C644.2 795.8 642.1 798 643.3 799.5Z" fill="#161616"/>
<path d="M666 742C678.9 741.5 691.1 746 700.7 754.7C702.1 756 704.3 753.9 702.8 752.6C692.7 743.4 679.7 738.5 666 739.1C664.1 739.1 664.1 742.1 666 742Z" fill="#161616"/>
<path d="M685.2 714.5C692.7 713.8 699.8 715.8 705.8 720.5C707.3 721.7 709.4 719.6 707.9 718.4C701.4 713.2 693.5 710.8 685.2 711.5C683.3 711.6 683.3 714.6 685.2 714.5Z" fill="#161616"/>
<path opacity="0.13" d="M691.1 538.3C695.3 551.2 700.4 569.4 704.1 591.7C707.8 614.2 712.7 643.3 707.7 678.3C702.8 712.9 690.6 737.3 681.7 754.8C658.3 800.8 626.6 833.7 599.4 855.9C595.3 849.4 591.2 842.9 587.1 836.4C595 831.4 606.1 823.5 617.4 811.9C628.2 800.8 634.6 791.1 644.1 776.5C656.1 758.1 662.4 748.4 668.6 734.6C684.1 700.2 685.7 669.6 685.9 661.7C686.8 636.5 682.2 617.1 677.2 596C673.6 580.8 669.6 568.3 666.4 559.2C674.8 552.3 683 545.3 691.1 538.3Z" fill="#666666"/>
<path opacity="0.13" d="M683.2 558.6C685.3 564.1 688.1 572 690.4 581.7C694.2 597.5 695.8 613.3 695.5 632.2C694.9 667.9 694.3 700.8 681.1 735.4C658.6 794.1 611.4 827.1 588.7 840.8C599.3 829.5 613.9 813.2 629.8 792.4C649.2 767.3 658.8 754.7 666.6 739C693.4 685 686.3 631.7 683.9 617C680.4 595.4 674 578.2 668.7 566.5C673.6 563.9 678.4 561.2 683.2 558.6Z" fill="#666666"/>
<path d="M526.3 578.3C522.1 583.1 522.3 588.6 520.7 609.6C518.4 640 517.5 633.7 516.3 654.1C512.5 719.7 518.2 777.5 518.2 777.5C519.9 795.3 526 850.1 542.6 907.2C551.2 936.7 565.8 977.4 566.4 979.2C570.7 991.2 574.4 1001.2 577 1008C577.6 1008.4 592.9 1017 603.9 1009.9C605.6 1008.8 610.3 1005.7 611.4 999.9C612.3 995.1 610.3 991.2 609.5 989.9C606.2 979.9 601.4 965 596.3 946.7C587.8 916.1 575.4 870.2 570.6 810.8C568.8 788.1 568.8 771.9 568.7 744.4C568.7 718.1 568.7 688.7 572.5 651.1C574.3 633.1 577.4 608.7 583.1 579.7C569 574.4 538 565.1 526.3 578.3Z" fill="white"/>
<path d="M576.7 1010C578.2 1013.9 579.9 1019.3 580.4 1025.9C580.9 1031 580.6 1035.5 580.1 1039C588.5 1043.7 595.6 1046.3 600.7 1047.7C603.9 1048.6 607.3 1049.4 613.2 1050.8C620 1052.4 625.2 1053.5 627.2 1053.9C648.2 1058.3 658.8 1060.5 671.2 1061.4C676.2 1061.8 683.7 1062.1 693 1061.7C694.8 1058.8 698.4 1052.1 696.1 1045.8C694.3 1040.8 689.8 1038.4 681.7 1034.3C664.8 1025.6 656.3 1021.3 656.1 1021.2C645.7 1017.1 631 1009.6 612.7 994.7C611.2 997.4 607.1 1003.5 599.3 1007.5C589.2 1012.7 579.4 1010.6 576.7 1010Z" fill="#161616"/>
<path d="M519.7 602.3C505.6 709.9 514.5 820.2 545.4 924.1C554.1 953.2 564.5 981.8 576.5 1009.7C577.3 1011.5 579.8 1009.9 579.1 1008.2C536.3 908.9 514.9 800.8 516.2 692.7C516.6 662.5 518.8 632.2 522.7 602.3C522.9 600.4 519.9 600.5 519.7 602.3Z" fill="#161616"/>
<path d="M574.3 612.7C563.7 712 563.8 813.6 585.4 911.5C591.5 939 599.3 966 608.8 992.4C609.5 994.2 612.4 993.4 611.7 991.6C577.6 897.6 567.4 796.7 571.1 697.2C572.1 669 574.3 640.8 577.3 612.7C577.5 610.7 574.5 610.7 574.3 612.7Z" fill="#161616"/>
<path d="M577.9 1010.3C591.4 1014.4 606.5 1007.6 612.3 994.6C613.1 992.9 610.5 991.3 609.7 993.1C604.5 1004.8 591 1011.1 578.7 1007.4C576.9 1006.8 576.1 1009.7 577.9 1010.3Z" fill="#161616"/>
<path d="M575.9 1010C578.2 1018.2 579.3 1026.6 579.1 1035.1C579.1 1037 582.1 1037 582.1 1035.1C582.3 1026.3 581.2 1017.7 578.8 1009.2C578.3 1007.3 575.4 1008.1 575.9 1010Z" fill="#161616"/>
<path d="M579.2 1038.1C593.2 1049.1 612.5 1051 629.4 1054.6C649.7 1058.9 670.5 1064.8 691.4 1063.5C693.3 1063.4 693.3 1060.4 691.4 1060.5C671.4 1061.7 651.6 1056.2 632.1 1052.1C615.3 1048.6 595.2 1047 581.3 1036C579.8 1034.8 577.7 1036.9 579.2 1038.1Z" fill="#161616"/>
<path d="M612.1 995.3C625.3 1007.3 640.9 1015.8 656.8 1023.7C664.9 1027.7 673 1031.5 681 1035.6C685 1037.6 689.3 1039.7 692.2 1043.2C696.7 1048.7 694.2 1055.6 691.7 1061.5C691 1063.3 693.5 1064.8 694.3 1063C697.4 1055.6 700.1 1047.3 694 1040.7C687.8 1033.8 677.1 1030.3 668.9 1026.3C649.7 1017 630.2 1007.6 614.2 993.2C612.8 991.9 610.7 994 612.1 995.3Z" fill="#161616"/>
<path d="M516.1 656C532.9 664.7 552.3 666.6 570.5 661.3C572.3 660.8 571.6 657.9 569.7 658.4C552.3 663.5 533.7 661.8 517.6 653.4C515.9 652.5 514.4 655.1 516.1 656Z" fill="#161616"/>
<path d="M514.9 686.7C525.4 691.4 536.5 693.2 548 691.8C549.9 691.6 549.9 688.6 548 688.8C537.2 690.2 526.4 688.6 516.4 684.1C514.7 683.3 513.2 685.9 514.9 686.7Z" fill="#161616"/>
<path d="M515.5 755.4C523.1 760.6 532.2 761.9 541.3 760.9C550.5 759.9 561.8 757.8 569.7 752.9C571.3 751.9 569.8 749.3 568.2 750.3C560.8 754.9 549.9 756.9 541.3 757.9C532.8 758.9 524.2 757.7 517 752.8C515.4 751.7 513.9 754.3 515.5 755.4Z" fill="#161616"/>
<path d="M521 799C537.4 805.6 556 804.1 571.2 795C572.9 794 571.4 791.4 569.7 792.4C555.1 801.1 537.5 802.4 521.8 796.1C520 795.4 519.3 798.3 521 799Z" fill="#161616"/>
<path d="M536.3 881.5C551.8 887 566.9 880 580 872C581.6 871 580.1 868.4 578.5 869.4C566 877 551.8 883.8 537.1 878.6C535.3 878 534.5 880.9 536.3 881.5Z" fill="#161616"/>
<path d="M587.4 921.8C582.4 927.3 576.2 931 569.1 932.8C567.2 933.3 568 936.2 569.9 935.7C577.6 933.8 584.3 929.8 589.6 924C590.8 922.5 588.7 920.4 587.4 921.8Z" fill="#161616"/>
<path d="M562.6 971.2C569.1 970.2 575.2 968.1 580.9 964.9C582.6 963.9 581.1 961.4 579.4 962.3C573.9 965.4 568.1 967.4 561.9 968.3C559.9 968.6 560.7 971.5 562.6 971.2Z" fill="#161616"/>
<path opacity="0.11" d="M558.3 592.5C554.4 606.1 549.6 625.9 546.8 650.2C542.8 684.8 544.9 710.7 547.5 740.4C556.7 842.7 561.5 894.6 572.8 928.1C583.6 960.1 596.2 984.9 605.3 1001C604.9 1001.5 596.3 1011.8 585.1 1009.7C581.1 1008.9 578.2 1006.9 576.4 1005.4C568.5 987.5 558.1 961.9 548.2 930.3C540 904.1 515.2 819.9 514.3 705.1C514.1 676.8 515.2 639.1 520.8 594.7C533.3 593.9 545.8 593.2 558.3 592.5Z" fill="#666666"/>
<path opacity="0.11" d="M520.8 618.5C522.2 672.7 526.2 718.3 530.2 752.8C537 812.6 542 853.8 558.4 905.8C571.6 947.8 587.4 981.1 599.5 1004C592.3 1005.2 585.1 1006.4 577.8 1007.6C570.9 992.9 564.4 977.5 558.3 961.4C510.6 835.1 509.1 713.7 520.8 618.5Z" fill="#666666"/>
<path d="M721.8 300.4C719.8 301.7 717.3 305.1 718.6 317C720.5 333.8 727.6 346.3 728.1 347.1C754.6 393.5 748.4 388.2 756.6 398.6C766.4 410.9 780.2 428.3 804.6 439C815.1 443.6 829.3 449.9 845 445.7C858.4 442.2 868.8 434.6 868.8 434.6C872.7 431.7 876.8 428 884.3 424.3C888.6 422.1 892.4 420.8 895 419.9C896.8 420.9 899.5 422.1 902.9 422.3C908.1 422.6 909.7 420.4 915.2 419.9C916 419.8 922.5 419.4 928.7 422.7C935.1 426.1 936.3 430.9 939 430.2C941.9 429.5 942.9 423.4 943 420.3C943.1 415.7 941.3 412.3 940.2 410.4C937.6 405.6 933.8 402.8 931.5 401.3C931.1 399.7 930 396.4 927.1 393.4C923.6 389.7 919.6 388.6 918 388.2C917.7 386.6 917 384.3 915.2 382.3C910.4 376.9 902 378.4 899.7 378.7C891.7 380.1 886.9 385.6 885.4 387.4C884.4 386.8 881.7 385.4 878.3 385.8C873.9 386.4 871.4 389.7 870.4 391C866.4 396.2 867.4 402.4 867.6 403.7C861 404.4 856.1 406.2 852.9 407.7C846.8 410.6 844.8 413.4 839 415.6C836.1 416.7 831.1 418.5 825.1 417.6C819.9 416.8 816.2 414.4 814 412.8C796.5 400.3 785.9 384.3 785.9 384.3C755.8 339 758.8 345.3 755.8 339.5C746 320.8 739.2 301.7 728.1 299.5C727.2 299.4 724.2 298.8 721.8 300.4Z" fill="white"/>
<path d="M733.5 299.8C746.6 328.7 763.1 356.1 782.6 381.2C799.2 402.6 821.3 429.7 851.9 423.9C853.8 423.5 853 420.6 851.1 421C819.8 426.9 796.9 395.5 780.7 373.7C763.2 350.3 748.3 325 736.2 298.3C735.3 296.5 732.7 298 733.5 299.8Z" fill="#161616"/>
<path d="M820 417.5C824.3 418.5 828.7 419.5 833.1 418.8C837.4 418.1 841.101 415.8 844.801 413.7C854.801 408.1 865.7 405.1 877.2 404.9C879.1 404.9 879.1 401.9 877.2 401.9C868.2 402.1 859.3 403.8 850.9 407.3C846.8 409 843.1 411.4 839.2 413.4C833 416.6 827.4 416.2 820.801 414.6C818.901 414.2 818.1 417 820 417.5Z" fill="#161616"/>
<path d="M722.1 337.4C735.5 365.9 749.301 395.1 771.901 417.6C791.701 437.2 821.1 453.7 849.6 445.4C857.3 443.2 864.5 439.4 871.2 435.1C878.7 430.2 886.001 422.7 895.501 422.6C897.401 422.6 897.401 419.6 895.501 419.6C882.601 419.8 872.5 431.6 861.6 437.3C846.4 445.2 830.4 446.6 814.1 441.2C785.8 431.8 764.601 408.6 749.301 383.9C739.901 368.6 732.2 352.3 724.6 336C723.9 334.1 721.3 335.7 722.1 337.4Z" fill="#161616"/>
<path d="M876.7 404C885.7 404.4 898.8 409 896.2 420.6C895.8 422.5 898.7 423.3 899.1 421.4C902.2 407.7 887.8 401.5 876.7 401C874.8 400.9 874.8 403.9 876.7 404Z" fill="#161616"/>
<path d="M869.6 402.5C870.3 398.9 870.6 395.1 871.8 391.7C873.5 386.8 880.5 388 884.6 388.7C886.5 389 887.3 386.1 885.4 385.8C881.2 385.1 874.6 383.9 871.1 387.2C867.6 390.5 867.6 397.4 866.7 401.8C866.3 403.6 869.2 404.4 869.6 402.5Z" fill="#161616"/>
<path d="M879.5 394.3C884.9 391 889.9 387.3 894.9 383.5C898.6 380.7 902.4 378.7 907.2 379.8C911.7 380.9 915 384 917.4 387.7C918.5 389.3 921.1 387.8 920 386.2C915.9 380.1 909.4 375.3 901.6 376.7C897.6 377.4 894.6 379.9 891.5 382.3C887.1 385.7 882.6 388.8 877.9 391.7C876.4 392.7 877.9 395.3 879.5 394.3Z" fill="#161616"/>
<path d="M901.1 396.2C905.5 395.3 909.1 393.6 913.1 391.9C915.3 391 917.8 390.2 920 391C921.4 391.5 922.5 392.5 923.7 393.4C925.9 395.1 928 397 929.9 399C931.3 400.4 933.4 398.2 932 396.9C928.5 393.4 923.2 387.6 917.8 387.4C915.5 387.3 913.5 388.4 911.5 389.4C907.8 391.3 904.3 392.6 900.2 393.4C898.4 393.7 899.2 396.6 901.1 396.2Z" fill="#161616"/>
<path d="M908.1 405.3C912.9 404.9 917.6 404.1 922.4 403C926 402.2 929.6 401.3 932.9 403.5C935.7 405.3 937.4 408.3 939.1 411.1C940.1 412.7 942.7 411.2 941.7 409.6C938.9 405.1 935.5 400.1 929.8 399.1C927 398.6 924.2 399.5 921.5 400.1C917 401.1 912.6 401.9 908 402.3C906.2 402.4 906.2 405.4 908.1 405.3Z" fill="#161616"/>
<path d="M898.7 423.5C904.8 425.8 910.101 423.1 916.001 421.7C925.101 419.6 931.501 425.3 937.501 431.2C938.901 432.6 941.001 430.4 939.601 429.1C934.801 424.4 929.6 419.5 922.7 418.4C914.7 417.1 907.301 423.6 899.401 420.6C897.701 419.9 896.9 422.8 898.7 423.5Z" fill="#161616"/>
<path d="M921.2 411.8C926.2 411.7 931.7 412.3 936.2 414.7C942.1 417.9 943.1 425.1 937.9 429.4C936.4 430.6 938.5 432.7 940 431.5C944.7 427.6 946 420.7 942.2 415.7C937.7 409.7 928.2 408.5 921.2 408.7C919.3 408.8 919.3 411.8 921.2 411.8Z" fill="#161616"/>
<path d="M938.6 410.6C939.5 412.5 940 414.5 940.1 416.5C940.2 418.4 943.2 418.4 943.1 416.5C942.9 413.9 942.3 411.4 941.2 409C940.4 407.4 937.8 408.9 938.6 410.6Z" fill="#161616"/>
<path d="M735.7 360.4C738.1 350.9 746.3 343.8 756.1 343C758 342.8 758 339.8 756.1 340C744.9 340.9 735.5 348.7 732.8 359.6C732.4 361.5 735.3 362.3 735.7 360.4Z" fill="#161616"/>
<path d="M747.3 379.7C747.3 374.1 749.4 369.1 753.3 365.3C754.7 363.9 752.6 361.8 751.2 363.2C746.7 367.6 744.3 373.5 744.3 379.8C744.3 381.6 747.3 381.6 747.3 379.7Z" fill="#161616"/>
<path d="M755.8 392.5C756.8 381.8 764 372.6 774.2 369.1C776 368.5 775.2 365.6 773.4 366.2C761.9 370.2 753.9 380.4 752.8 392.5C752.6 394.4 755.6 394.4 755.8 392.5Z" fill="#161616"/>
<path d="M770.8 412.7C771.6 401.9 779.6 393 790.2 390.9C792.1 390.5 791.3 387.6 789.4 388C777.5 390.3 768.6 400.6 767.8 412.6C767.7 414.6 770.7 414.6 770.8 412.7Z" fill="#161616"/>
<path d="M792.7 432.2C793.7 423.1 799.1 415.3 807 410.9C808.7 410 807.2 407.4 805.5 408.3C796.5 413.3 790.8 422 789.7 432.2C789.5 434.1 792.5 434.1 792.7 432.2Z" fill="#161616"/>
<path d="M817.7 416.8C823.3 424.7 824 434.7 819.2 443.2C818.3 444.9 820.8 446.4 821.8 444.7C827 435.3 826.5 424 820.3 415.2C819.2 413.7 816.6 415.2 817.7 416.8Z" fill="#161616"/>
<path d="M852.3 407.9C852.6 409.4 853.3 409.8 854.7 410.3C857.5 411.4 860.1 411.6 862.7 413.3C868.2 417 871.4 423.2 871.3 429.7C871.3 431.6 874.3 431.6 874.3 429.7C874.4 424.3 872.6 419.2 869.1 415C867.4 413 865.4 411.3 863.2 410C862.2 409.4 855.3 407.5 855.2 407C854.8 405.2 851.9 406 852.3 407.9Z" fill="#161616"/>
<path opacity="0.11" d="M728.7 314.6C733.9 314.2 737.1 335.3 746.7 357.9C754.8 376.8 772.4 418 808.1 429.4C826.2 435.2 852.4 434.3 873.1 423.6C882.3 418.8 887.1 413.8 899.1 411.3C912.6 408.5 933 409.4 938.8 420.7C940.5 424 940.6 427.4 940.2 430.1C934.6 423.2 929.5 421.2 925.8 420.7C920.5 420 917.6 422.3 909.9 422.9C903.9 423.3 898.8 422.4 895.5 421.5C890.1 423.4 882 426.8 873.1 432.3C864.6 437.6 862.6 440.4 856.5 443.1C846 447.7 836.1 446.4 827.6 445.3C807 442.5 792.6 432.8 785.7 428C779.7 423.8 770.5 416.6 758.3 401.3C747.7 388 732.9 366.3 721.5 334.9C722.8 325.3 725 314.9 728.7 314.6Z" fill="#666666"/>
<path d="M494.4 339.2C495.6 345.3 497.1 353.7 498.6 363.7C499.5 370.1 503 395.2 503.3 430.9C503.6 468.9 500.3 501.5 496.5 526.3C493.4 547 489.6 564.2 486.6 576.9C494.5 584.4 507.3 594.8 525.2 603C542.3 610.8 557.8 613.8 568.5 615C606.8 554.9 635.8 510.5 653.5 483.7C693.5 422.8 721.4 381.7 732.7 318.5C734.8 307 735.8 297.4 736.3 290.9C722.9 287.5 703.3 283.8 679.5 284.6C675.4 284.7 665.3 285.2 645.1 288.8C623.8 292.5 596.4 298.8 564.8 309.6C545.5 316.1 521.4 325.6 494.4 339.2Z" fill="#161616"/>
<path d="M573.6 348.3C574.6 356.9 575.7 368.4 576.5 382.1C577.5 398.9 577.5 412.2 577.5 421.8C577.3 462 575 501.5 574.6 509C572.9 537.5 570.6 573.6 567.3 615.7C586.4 608 601.7 600.6 612.3 595.1C650.7 575.4 678.2 555.4 697.5 541.2C712.6 530.1 724.7 520.4 732.8 513.8C735 492.6 736.5 474.3 737.7 459.9C739.2 441.5 740.6 424 741.6 400.7C742.2 386.9 742.5 379.9 742.6 370.3C742.8 338 740.1 316.3 739.2 309.6C738.2 301.8 737.1 295.4 736.3 291C709.5 296.1 678.4 304 644.7 316.5C617.7 326.4 594 337.4 573.6 348.3Z" fill="white"/>
<path d="M495.1 339.7C552.7 310.6 614.2 293.6 678.1 285.6C680 285.4 680 282.4 678.1 282.6C645.7 286.7 613.6 292.5 582.2 301.8C551.7 310.9 522 322.7 493.6 337.1C491.8 338 493.3 340.6 495.1 339.7Z" fill="#161616"/>
<path d="M494.5 341C508 340.3 521.4 342.4 534.8 344.2C547.6 346 560.4 347.7 573.3 349.5C575.2 349.8 576 346.9 574.1 346.6C560.6 344.7 547.2 342.9 533.7 341C520.7 339.2 507.7 337.3 494.5 338C492.6 338.1 492.6 341.1 494.5 341Z" fill="#161616"/>
<path d="M676.5 286.2C696.8 284.9 717 287 736.7 292.2C738.6 292.7 739.4 289.8 737.5 289.3C717.6 284 697.1 281.9 676.5 283.2C674.6 283.4 674.6 286.4 676.5 286.2Z" fill="#161616"/>
<path d="M576 348.4C626.9 323.2 680.9 304.6 736.5 293C738.4 292.6 737.6 289.7 735.7 290.1C679.8 301.8 625.6 320.5 574.4 345.8C572.8 346.7 574.3 349.3 576 348.4Z" fill="#161616"/>
<path d="M570.9 348.1C579.6 416.5 575.3 485.6 570.9 554.1C569.6 574.3 568.3 594.5 565.4 614.5C565.1 616.4 568 617.2 568.3 615.3C573.3 581.1 574.6 546.3 576.5 511.8C578.4 477.1 579.7 442.4 578.6 407.7C577.9 387.8 576.5 367.8 573.9 348.1C573.6 346.2 570.6 346.2 570.9 348.1Z" fill="#161616"/>
<path d="M494.1 338.7C506.5 416.8 504 496.9 486.6 574.1C486.2 576 489.1 576.8 489.5 574.9C507 497.2 509.5 416.6 497 337.9C496.7 336 493.8 336.8 494.1 338.7Z" fill="#161616"/>
<path d="M486.2 576.4C507.8 598 535.9 612.2 566.1 616.6C568 616.9 568.8 614 566.9 613.7C537.2 609.3 509.6 595.5 488.3 574.2C486.9 573 484.8 575.1 486.2 576.4Z" fill="#161616"/>
<path d="M734.4 292.8C747.3 365.9 738.9 440.3 730.5 513.5C730.3 515.4 733.3 515.4 733.5 513.5C741.9 440.1 750.3 365.5 737.3 292C737 290.1 734.1 290.9 734.4 292.8Z" fill="#161616"/>
<path d="M730.6 513.3C680.8 555.1 625.1 589.5 565.5 615.4C563.7 616.2 565.3 618.8 567 618C626.8 592 682.7 557.4 732.7 515.5C734.2 514.2 732.1 512.1 730.6 513.3Z" fill="#161616"/>
<path d="M584.1 358.8C582.4 357.4 581.6 354.8 582.9 352.9C584.1 351 587.1 350.3 589 351.6C590.8 352.8 591.4 355.6 590.3 357.5C588.8 359.9 585.4 360.1 583.4 358.3C582.3 357.3 580.7 358.9 581.8 359.9C584.6 362.4 589 362.5 591.5 359.6C593.9 356.9 593.5 352.4 590.7 350.1C588 347.9 583.8 348.4 581.5 350.9C579.1 353.7 579.7 358.1 582.5 360.4C583.7 361.3 585.3 359.7 584.1 358.8Z" fill="#161616"/>
<path d="M586.6 375C587.1 386.4 587.6 397.8 588.1 409.2C588.2 410.6 590.4 410.7 590.4 409.2C589.9 397.8 589.4 386.4 588.9 375C588.8 373.6 586.5 373.6 586.6 375Z" fill="#161616"/>
<path d="M587.8 375.5C619.9 361.6 653.1 350.2 686.9 341.3C688.3 340.9 687.7 338.8 686.3 339.1C652.3 348.1 619 359.6 586.7 373.5C585.3 374.2 586.5 376.1 587.8 375.5Z" fill="#161616"/>
<path d="M590 409.5C616.1 395.6 643.5 384.4 671.8 376.1C673.2 375.7 672.6 373.5 671.2 373.9C642.7 382.3 615.1 393.6 588.9 407.6C587.6 408.2 588.7 410.1 590 409.5Z" fill="#161616"/>
<path d="M685.5 340.5C680.8 351.9 676 363.3 671.3 374.7C670.7 376 672.9 376.6 673.5 375.3C678.2 363.9 683 352.5 687.7 341.1C688.2 339.8 686 339.2 685.5 340.5Z" fill="#161616"/>
<path d="M690.8 340C686.4 351 681.9 362 677.2 372.9C676.6 374.2 678.6 375.4 679.1 374C683.8 362.9 688.5 351.8 692.9 340.6C693.6 339.3 691.4 338.7 690.8 340Z" fill="#161616"/>
<path d="M679 374.9C688.3 370.9 697.5 366.9 706.8 362.9C708.1 362.3 707 360.4 705.7 361C696.4 365 687.2 369 677.9 373C676.6 373.5 677.7 375.5 679 374.9Z" fill="#161616"/>
<path d="M693.3 340.8C698.9 338.5 704.7 336.7 710.7 335.5C712.1 335.2 711.5 333 710.1 333.3C704.1 334.5 698.3 336.2 692.7 338.6C691.4 339.1 691.9 341.3 693.3 340.8Z" fill="#161616"/>
<path d="M709.8 335.3C707.8 343.6 706.2 352 704.9 360.5C704.7 361.9 706.9 362.5 707.1 361.1C708.4 352.6 710 344.2 712 335.9C712.3 334.5 710.1 333.9 709.8 335.3Z" fill="#161616"/>
<path d="M717.9 509.6C693.6 523.4 669.3 537.2 644.9 551C643.6 551.7 644.8 553.7 646 552.9C670.3 539.1 694.6 525.3 719 511.5C720.3 510.8 719.1 508.9 717.9 509.6Z" fill="#161616"/>
<path d="M647.4 501.9C648.1 509.9 646.9 518.2 646.3 526.3C645.7 534.9 645.1 543.5 644.4 552.1C644.3 553.5 646.5 553.5 646.7 552.1C647.3 543.5 647.9 534.9 648.6 526.3C649.2 518.3 650.4 510 649.7 501.9C649.5 500.5 647.2 500.5 647.4 501.9Z" fill="#161616"/>
<path d="M648.8 501.9C672.5 488.6 697.4 477.5 723.2 468.9C724.6 468.4 724 466.3 722.6 466.7C696.6 475.4 671.5 486.5 647.6 499.9C646.4 500.6 647.6 502.6 648.8 501.9Z" fill="#161616"/>
<path d="M722.7 468.6C721.5 482.5 719.5 496.3 716.5 509.9C716.2 511.3 718.4 511.9 718.7 510.5C721.7 496.7 723.8 482.7 725 468.6C725.1 467.2 722.9 467.2 722.7 468.6Z" fill="#161616"/>
<path d="M497.5 340.1C514.8 341.3 531.8 344.1 548.6 348.2C550.5 348.7 551.3 345.8 549.4 345.3C532.3 341.1 515 338.3 497.5 337.1C495.6 336.9 495.6 339.9 497.5 340.1Z" fill="white"/>
<path opacity="0.1" d="M667.5 309.9C662.6 318.8 655 333.1 646.7 350.9C624.3 399 568.6 518.6 605.7 554.8C612.5 561.4 627.6 570.3 665.1 562.5C632.8 580.3 600.5 598.2 568.2 616C573 571.3 575.3 533 576.5 503C577.3 483 578.3 456.9 577.7 422.1C577.2 393.2 575.7 368.4 574.1 349C585.2 343 597.3 337 610.4 331.2C630.6 322.3 649.8 315.3 667.5 309.9Z" fill="#666666"/>
<path d="M273.9 100.2C272.1 102.7 274.4 107.1 275.5 109.3C277.5 113.1 282.6 120.9 296.1 126.7C291.1 127.8 289.1 129.8 288.2 131.5C286.4 134.8 288.6 137.1 288.6 145C288.6 150.8 287.3 151.7 287.8 156.5C288.2 160.6 289.5 163.9 290.6 166C290.8 167.9 291.1 170.6 291.8 173.9C292.3 176.3 292.6 177.5 293 178.3C295.1 182.1 301 184.1 306.1 183.1C312.5 181.7 315.3 175.9 315.6 175.2C318.3 179.2 320.9 180.4 322.7 180.7C326 181.3 328.2 179.4 334.6 177.9C337.8 177.1 340.4 176.8 342.1 176.7C341.9 180.4 341.6 185.9 341.3 192.6C340.4 214.7 339.9 226.3 340.9 240.2C341.2 244.6 342.3 257.7 346.1 274.3C348.4 284.5 352 299.9 360.4 317.5C365.6 328.4 373.7 345.5 390.9 361.9C398.7 369.3 417.4 386.7 447.6 393.2C470.1 398 488.9 394.7 499.5 392C507.7 387.6 515.9 383.3 524.1 378.9C525.3 377.2 527.3 373.6 527.3 369C527.3 362.1 523 355.6 516.2 352C511 353.3 503.8 354.8 495.2 355.6C486.8 356.3 470.2 357.6 450.8 351.6C442.5 349.1 420.5 342 403.6 321.5C395.6 311.8 392.1 303.1 386.2 288.2C379.2 270.7 376.4 256.9 373.5 242.6C367.4 211.8 364.3 196.3 367.2 181.2C368.7 173.4 371.5 164.1 369.6 151.1C367.7 138.4 362.8 131.9 361.3 130.1C357.2 125 352.2 122 349.4 120.2C344.3 117 345.3 118.8 336.7 114.3C335.2 113.5 333.5 112.6 331.2 112.7C328.5 112.9 326.4 114.4 325.3 115.5C319 113.7 313.7 112 309.8 110.7C300.9 107.8 296.4 106.4 294.3 105.2C289 102.2 287.1 99.6 282 98.9C280.4 98.4 275.7 97.7 273.9 100.2Z" fill="white"/>
<path d="M368.1 156.3C364.8 178.2 365.2 200.3 368.2 222.2C371.2 244.3 376.2 266.7 383.9 287.6C390.4 305.3 399.8 321.9 414.5 334.1C427.3 344.7 442.7 351.7 458.9 355.1C477.4 359 496.8 358.1 514.9 352.7C516.7 352.1 516 349.2 514.1 349.8C482.7 359.2 446.7 354.5 420.1 334.8C404.9 323.5 394.7 307.6 388 290.1C380.7 271.4 376.1 251.4 372.7 231.7C368.5 207 367.3 181.8 371 157C371.3 155.2 368.4 154.4 368.1 156.3Z" fill="#161616"/>
<path d="M340.3 176.9C336.6 226.2 338.2 277.9 361.2 322.8C380.5 360.5 414.5 390.8 457.6 396C481 398.8 505.2 393.9 524.6 380.2C526.2 379.1 524.7 376.5 523.1 377.6C488.2 402.3 439.7 397 406.2 372.5C370.8 346.5 351.7 304.1 345.1 261.7C340.7 233.7 341.2 205.1 343.3 176.9C343.5 175 340.5 175 340.3 176.9Z" fill="#161616"/>
<path d="M514 352.6C524.5 356.8 527.9 368.9 521.7 378.2C520.6 379.8 523.2 381.3 524.3 379.7C531.7 368.7 527 354.6 514.8 349.7C513 349 512.2 351.9 514 352.6Z" fill="#161616"/>
<path d="M349.1 142.7C352.6 136.2 342.8 136.9 339.6 135.9C335.4 134.5 330.7 130.8 327.7 127.6C323.2 122.8 322.8 112.9 332.2 114.7C350.9 118.4 370.8 135.5 367.9 156C367.6 157.9 370.5 158.7 370.8 156.8C374 133.8 352.8 116.2 332.1 111.6C324.5 109.9 319.6 117.1 321.9 124.1C323.3 128.3 327 131.4 330.4 133.9C332.5 135.5 334.8 137.1 337.2 138.2C338.3 138.6 346.8 140.3 346.3 141.2C345.6 142.9 348.2 144.4 349.1 142.7Z" fill="#161616"/>
<path d="M322.5 112.8C310.6 110 299 105.9 288.1 100.3C283.1 97.7 272.8 93 272.6 102.9C272.5 110.8 279.6 118.8 285.5 123.2C294.4 129.9 305.5 132.4 316.2 134C318.1 134.3 318.9 131.4 317 131.1C301.5 128.7 281.2 123.3 276.2 106C275.8 105 275.6 104 275.6 102.9C277.5 99.7 279.6 99 282.2 100.6C284 101.4 285.6 102.4 287.4 103.3C290.7 104.9 294 106.5 297.4 107.9C305.3 111.2 313.4 113.8 321.7 115.7C323.6 116.2 324.4 113.3 322.5 112.8Z" fill="#161616"/>
<path d="M293.5 125.5C287.9 127.1 285.6 134 285.8 139.3C286.1 146.1 290.5 151.8 296.2 155.2C301.4 158.4 309.3 160.9 314.8 156.8C318.8 153.8 319.7 148.1 316.2 144.4C314.9 143 312.8 145.1 314.1 146.5C316.5 149 315.3 152.8 312.8 154.5C310.6 156 307.6 155.9 305.1 155.5C301.2 154.8 297.4 152.7 294.4 150.1C291.5 147.5 289.5 144.2 289 140.4C288.4 136.3 289.6 129.7 294.3 128.3C296.2 127.9 295.4 125 293.5 125.5Z" fill="#161616"/>
<path d="M287.6 145.5C284.3 153.8 286.5 164 293.6 169.8C296.8 172.4 301.2 174 305.3 173.3C309.4 172.5 311.8 169.6 314.2 166.4C315.3 164.8 312.7 163.3 311.6 164.9C309 168.4 306 171.1 301.4 170.2C297.6 169.5 294.4 167 292.3 163.9C288.8 158.7 288.3 152.2 290.6 146.4C291.2 144.5 288.3 143.7 287.6 145.5Z" fill="#161616"/>
<path d="M288.6 165.8C288.9 174 292.1 183.5 301.3 185.3C311.1 187.2 316.4 177.2 318.9 169.4C319.5 167.6 316.6 166.8 316 168.6C314 174.8 309.9 184 301.7 182.2C294.1 180.6 291.8 172.5 291.6 165.8C291.6 163.9 288.6 163.8 288.6 165.8Z" fill="#161616"/>
<path d="M314.7 175C315.7 179.4 320.2 181 324.3 181.6C330.8 182.6 335.6 179.3 341.9 178.6C343.8 178.4 343.8 175.4 341.9 175.6C338.8 176 336.1 177.2 333 178C329.1 179.1 318.9 180 317.6 174.2C317.2 172.3 314.3 173.1 314.7 175Z" fill="#161616"/>
<path d="M342 178C352 181.9 363.3 178.2 369.3 169.4C370.4 167.8 367.8 166.3 366.7 167.9C361.4 175.7 351.4 178.5 342.8 175.1C341 174.4 340.3 177.3 342 178Z" fill="#161616"/>
<path d="M455.2 355.6C459.1 359.4 458.2 369.3 457.9 374.3C457.5 380.8 455.6 387 451 391.8C449.7 393.2 451.8 395.3 453.1 393.9C458.2 388.5 460.4 381.6 460.8 374.3C461.2 368.3 462 358.1 457.3 353.4C455.9 352.1 453.8 354.2 455.2 355.6Z" fill="#161616"/>
<path d="M484.9 357.5C491 368.8 491.1 382.2 485.2 393.6C484.3 395.3 486.9 396.8 487.8 395.1C494.2 382.7 494.1 368.3 487.5 356C486.6 354.2 484 355.8 484.9 357.5Z" fill="#161616"/>
<path d="M342 238.7C352 242.1 362.6 241 371.8 235.7C373.5 234.7 372 232.1 370.3 233.1C361.8 238 352.2 238.9 342.8 235.8C341 235.2 340.2 238.1 342 238.7Z" fill="#161616"/>
<path d="M351.2 297.3C363.9 300 376.8 295.3 384.7 285C385.9 283.5 383.3 282 382.1 283.5C375 292.6 363.3 296.9 352 294.4C350.1 294 349.3 296.9 351.2 297.3Z" fill="#161616"/>
<path d="M405.9 326C406.3 331.6 404.4 336.7 400.5 340.7C399.1 342.1 401.3 344.2 402.6 342.8C407.1 338.3 409.3 332.3 408.9 325.9C408.8 324.1 405.8 324.1 405.9 326Z" fill="#161616"/>
<path d="M343.7 267.5C348.1 269.5 352.8 269.9 357.4 268.5C359.3 268 358.5 265.1 356.6 265.6C352.8 266.7 348.9 266.5 345.2 264.9C343.5 264.1 341.9 266.7 343.7 267.5Z" fill="#161616"/>
<path d="M341.4 197.2C350 199.3 358.4 198.4 366.5 194.8C368.3 194 366.7 191.4 365 192.2C357.7 195.5 350 196.1 342.2 194.3C340.3 193.8 339.5 196.7 341.4 197.2Z" fill="#161616"/>
<path d="M368.6 335.3C382.9 338.6 396.6 331.1 401.5 317.3C402.1 315.5 399.3 314.7 398.6 316.5C394.3 328.7 382 335.3 369.4 332.4C367.5 331.9 366.7 334.8 368.6 335.3Z" fill="#161616"/>
<path d="M429.7 345.4C434 358.1 420.9 370.9 411 376.3C409.3 377.2 410.8 379.8 412.5 378.9C423.6 372.9 437.4 358.6 432.6 344.7C432 342.8 429.1 343.6 429.7 345.4Z" fill="#161616"/>
<path opacity="0.13" d="M298.9 131.1C302.5 134.8 298.2 141 301.3 145C303 147.1 306.8 148.7 316.1 146.9C316.1 148.5 316.2 150.9 317.1 153.6C317.1 153.6 319.1 160 324.7 164.1C331.2 168.9 340.9 169 349.6 164.6C350 170.6 350.7 179.1 351.5 189.5C356.2 248.9 358 259.6 360.6 269.8C363.6 281.8 367.4 296.7 377.3 313.3C383.5 323.6 404.3 357.2 447.1 370.6C483.4 382 514.6 372.2 525.5 368.2C524.9 372.3 524.2 376.5 523.6 380.6C518.8 383.5 511.9 387.2 503.1 390.2C502 390.6 482.2 397 460.1 395C418.4 391.2 389.4 359.4 382.2 351.5C356.2 322.9 348.8 291.6 345.4 277.4C340.4 256.1 340 236.5 339.7 222.4C339.3 204.5 340.4 189.4 341.6 178.4C339.8 179.3 335.2 181.2 329.2 180.3C322.4 179.3 318.1 175.4 316.8 174.1C316.5 174.9 314.9 179.8 309.6 182.2C309.3 182.4 303.6 184.8 298.6 182.2C294.1 179.9 292.9 174.9 290.5 165C289 159 288.7 154.7 288.1 147.8C286.9 132.7 288.5 130.9 289.5 130.1C291.9 128.2 296.6 128.7 298.9 131.1Z" fill="#666666"/>
<path opacity="0.15" d="M361 316.5C364 320 368.6 325.1 374.4 330.8C384.6 340.9 407.8 364 433.7 374.8C469.8 389.8 507.1 379.4 524 373.4C523.4 375.5 522.7 377.5 522.1 379.6C517.1 382.3 469.7 406.9 419.4 382.9C377.4 363 363.4 323.7 361 316.5Z" fill="#666666"/>
<path d="M587.3 257.6C586.3 263.2 585.9 268.1 585.8 271.7C585.7 273.9 585.4 282.1 587 292.9C587.7 297.9 588.7 302.1 589.5 305.2C593.6 306.3 599.5 307.4 606.7 307C616.2 306.5 623.5 303.6 627.9 301.5C627.7 298.8 627.5 294.5 627 289.2C625.9 277.3 625 273.1 624.9 265.3C624.8 262 624.9 257 625.5 250.9C621.3 249.8 613 248.2 603.1 250.6C595.8 252.2 590.5 255.3 587.3 257.6Z" fill="white"/>
<path d="M586 256.5C582.6 272.3 584.8 288.2 587.3 304C587.6 305.9 590.5 305.1 590.2 303.2C587.8 288 585.6 272.5 588.9 257.3C589.3 255.4 586.4 254.6 586 256.5Z" fill="#161616"/>
<path d="M588 258.6C592.5 254.6 599.1 253.2 604.8 252C611.3 250.7 617.7 250.5 624.2 251.7C626.1 252.1 626.9 249.2 625 248.8C618 247.4 611 247.7 604 249.1C597.6 250.4 590.8 252 585.8 256.5C584.5 257.8 586.6 259.9 588 258.6Z" fill="#161616"/>
<path d="M623.9 250.7C622.7 267.5 623.6 284.3 626.4 300.9C626.7 302.8 629.6 302 629.3 300.1C626.5 283.7 625.7 267.2 626.9 250.7C627 248.8 624 248.8 623.9 250.7Z" fill="#161616"/>
<path d="M587.9 305C592.8 308.9 601.1 308.4 607.1 308.2C614.6 308 621.9 306.4 628.4 302.6C630.1 301.6 628.6 299 626.9 300C621.3 303.3 615.2 304.8 608.8 305.2C603.7 305.5 594.3 306.2 590.1 302.9C588.5 301.7 586.4 303.8 587.9 305Z" fill="#161616"/>
<path d="M587.4 275.1C591.1 269.9 597.3 268.2 603.3 266.9C610 265.4 616.9 264 623.1 267.8C624.8 268.8 626.3 266.2 624.6 265.2C617.7 261 610 262.3 602.5 264C595.7 265.6 589.1 267.7 584.8 273.6C583.7 275.1 586.3 276.6 587.4 275.1Z" fill="#161616"/>
<path d="M588 292.2C598.2 283.9 611.5 280.6 624.5 283.2C626.4 283.6 627.2 280.7 625.3 280.3C611.2 277.5 597.1 281 585.9 290.1C584.4 291.3 586.5 293.4 588 292.2Z" fill="#161616"/>
<path d="M604.7 296.3C608.1 294.8 611.6 294.3 615.4 294.3C618 294.3 623.8 294 625.6 296.1C626.9 297.6 629 295.4 627.7 294C625.4 291.3 620.2 291.6 617 291.4C612.2 291.2 607.7 291.9 603.2 293.8C601.4 294.5 602.9 297 604.7 296.3Z" fill="#161616"/>
<path d="M493.1 246.5C501.6 251.3 514.9 257.7 532 261.2C550.4 265 564.7 263.8 580.8 262.4C587.2 261.8 608.5 259.7 636.9 251.4C654.5 246.2 678.1 237.7 704.4 223.2C706.4 213.3 708.2 201.9 709 189.2C709.9 175.5 709.6 163.1 708.7 152.4C703.1 146.2 696.3 139.5 688.2 132.8C680.8 126.6 673.6 121.6 667 117.5C609 160.5 551.1 203.5 493.1 246.5Z" fill="#161616"/>
<path d="M666.7 117.4C668.1 122.4 669.9 129.5 671.3 138.3C672.2 143.8 675 163.8 671.6 190.1C670.7 197.5 669 207.3 665.8 218.6C662.2 220.8 657.2 223.7 651.1 226.9C630.9 237.4 613.9 242.4 607.9 244.1C603.6 245.3 583.1 250.9 554.8 252.1C539.2 252.7 517.6 252.2 492.2 246.9C494 216.4 495.9 186 497.7 155.5C503.4 152.7 511.3 149 521 145.1C527.2 142.6 555.9 131.2 597.1 123.9C615.5 120.6 639 117.7 666.7 117.4Z" fill="white"/>
<path d="M496.8 155.4C494.7 185.8 492.6 216.3 490.6 246.7C490.5 248.6 493.5 248.6 493.6 246.7C495.7 216.3 497.8 185.8 499.8 155.4C499.9 153.4 496.9 153.4 496.8 155.4Z" fill="#161616"/>
<path d="M499.9 155.8C551.6 132 608.1 119.5 665 119.2C666.9 119.2 666.9 116.2 665 116.2C607.5 116.5 550.6 129.1 498.4 153.2C496.7 154 498.2 156.6 499.9 155.8Z" fill="#161616"/>
<path d="M491.7 247.6C551.1 262.1 614.5 252.3 666.5 220.1C668.1 219.1 666.6 216.5 665 217.5C613.6 249.2 551.1 259 492.5 244.7C490.6 244.2 489.8 247.1 491.7 247.6Z" fill="#161616"/>
<path d="M664.5 117.9C673.9 151.2 673.6 186.4 663.7 219.6C663.1 221.5 666 222.2 666.6 220.4C676.7 186.8 677 150.9 667.4 117.1C666.9 115.2 664 116 664.5 117.9Z" fill="#161616"/>
<path d="M666.2 118.3C681.9 128.4 695.7 140.9 707.3 155.5C708.5 157 710.6 154.9 709.4 153.4C697.6 138.6 683.6 126 667.7 115.8C666.1 114.6 664.6 117.2 666.2 118.3Z" fill="#161616"/>
<path d="M706.7 154.6C708.8 177.9 707.5 201.2 702.8 224.2C702.4 226.1 705.3 226.9 705.7 225C710.5 201.8 711.8 178.2 709.7 154.7C709.5 152.7 706.5 152.7 706.7 154.6Z" fill="#161616"/>
<path d="M491.9 248.5C500.2 251.9 508.5 255.2 516.8 258.6C523 261.1 529.4 262.1 535.9 262.9C551.2 265 566.8 265.5 582.2 264.1C608.1 261.9 633.7 254.5 658 245.6C674.4 239.6 690.3 232.4 705.6 224.1C707.3 223.2 705.8 220.6 704.1 221.5C679.7 234.7 654 244.6 627.4 252.2C599.4 260.2 570.8 263.7 541.7 260.5C534.7 259.7 526.9 259.2 520.3 256.7C511 253.2 501.8 249.2 492.6 245.5C490.9 244.9 490.1 247.8 491.9 248.5Z" fill="#161616"/>
<path d="M664.4 222.5C677.8 225.1 691.3 225.6 704.9 224C706.8 223.8 706.8 220.8 704.9 221C691.6 222.6 678.4 222.1 665.2 219.6C663.3 219.3 662.5 222.1 664.4 222.5Z" fill="#161616"/>
<path d="M527.4 177.2C524.8 176 525.2 172.3 525.1 170C525 168.8 524.9 167.6 525 166.3C525 164.9 525.2 163.7 525.8 162.4C526.5 160.8 527.6 160.6 528.9 161.6C531.2 162.4 530.9 163 530.9 165.2C530.9 166.5 530.8 167.7 530.7 169C530.6 170.3 530.6 171.7 530.5 173C530.5 173.4 529.4 180.3 527.5 177.5C526.4 175.9 523.8 177.4 524.9 179C527.8 183.3 532.4 179.9 533.2 176C533.9 172.5 533.9 168.4 533.9 164.8C533.9 162.5 533.5 159.9 531.5 158.5C527 155.3 522.6 160.6 522.1 164.8C521.6 169.1 521.1 177.7 525.9 179.9C527.6 180.6 529.1 178 527.4 177.2Z" fill="#161616"/>
<path d="M526 160.4C524.3 166.6 524.7 172.9 527.1 178.9C527.7 180.4 530.1 180.3 530 178.5C529.9 172.7 530.2 167 530.9 161.3C529.9 161.3 528.9 161.3 527.9 161.3C528.2 163.7 528.4 166 528.4 168.4C528.4 169.4 528.5 170.7 528.3 171.6C528.2 172.3 527.3 174.8 527.7 172.4C528 170.5 525 170.5 524.7 172.4C524.3 175.3 527.1 179.7 530.2 176.7C531.4 175.5 531.3 173.2 531.4 171.6C531.6 168.1 531.4 164.7 531 161.3C530.8 159.4 528.3 159.4 528 161.3C527.2 167 526.9 172.7 527.1 178.5C528.1 178.4 529.1 178.2 530 178.1C527.8 172.6 527.4 167 528.9 161.2C529.4 159.4 526.5 158.6 526 160.4Z" fill="#161616"/>
<path d="M524.9 162.9C524.1 164.9 524 167 524.3 169.1C524.4 169.9 525.4 170.3 526.1 170.1C527 169.9 527.3 169.1 527.1 168.3C526.9 166.7 527.2 165.2 527.7 163.7C528.5 161.9 525.6 161.1 524.9 162.9Z" fill="#161616"/>
<path d="M610.4 162C607.8 160.8 608.2 157.1 608.1 154.8C608 153.6 607.9 152.5 608 151.3C608 150.6 608 149.9 608.2 149.3C608.3 147 610.2 146.3 613.7 147.3C614.7 148.8 613.8 153 613.7 154.6C613.6 155.7 613.6 156.8 613.5 157.9C613.5 158.3 612.4 165.2 610.5 162.4C609.4 160.8 606.8 162.3 607.9 163.9C610.8 168.2 615.4 164.8 616.2 160.9C616.9 157.5 616.8 153.6 616.9 150.2C616.9 147.9 616.7 145.2 614.8 143.6C610.5 139.9 605.8 144.9 605.1 149.1C604.4 153.4 604 162.4 608.8 164.7C610.7 165.4 612.2 162.9 610.4 162Z" fill="#161616"/>
<path d="M609.1 145.3C607.4 151.5 607.8 157.8 610.2 163.8C610.8 165.3 613.2 165.2 613.1 163.4C613 157.6 613.3 151.9 614 146.2C613 146.2 612 146.2 611 146.2C611.3 148.6 611.5 150.9 611.5 153.3C611.5 154.3 611.6 155.6 611.4 156.5C611.3 157.2 610.4 159.7 610.8 157.3C611.1 155.4 608.1 155.4 607.8 157.3C607.4 160.2 610.2 164.6 613.3 161.6C614.5 160.4 614.4 158.1 614.5 156.5C614.7 153 614.5 149.6 614.1 146.2C613.9 144.3 611.4 144.3 611.1 146.2C610.3 151.9 610 157.6 610.2 163.4C611.2 163.3 612.2 163.1 613.1 163C610.9 157.5 610.5 151.9 612 146.1C612.5 144.2 609.6 143.4 609.1 145.3Z" fill="#161616"/>
<path d="M608 147.7C607.2 149.7 607.1 151.8 607.4 153.9C607.5 154.7 608.5 155.1 609.2 154.9C610.1 154.7 610.4 153.9 610.2 153.1C610 151.5 610.3 150 610.8 148.5C611.6 146.7 608.7 146 608 147.7Z" fill="#161616"/>
<path d="M551.6 193C560.4 194.2 572.1 193.1 579.9 188.5C581.6 187.5 580.1 184.9 578.4 185.9C571.3 190 560.4 191.2 552.4 190.1C550.6 189.9 549.7 192.8 551.6 193Z" fill="#161616"/>
<path d="M550.2 193.2C552.9 199.2 559.5 207.6 567.1 206.6C574.6 205.7 579.1 195.1 580.7 188.8C581.2 186.9 578.3 186.1 577.8 188C576.7 192.5 573.5 200.9 568.7 202.9C561.7 205.8 555.3 197 552.9 191.6C552 190 549.4 191.5 550.2 193.2Z" fill="#161616"/>
<path d="M552.7 194.4C560.4 198 571.9 196.1 578.4 190.9C577.7 190.2 577 189.5 576.3 188.8C572.5 191.9 567.8 193.7 562.8 193.6C560.1 193.6 557.9 192.2 555.7 194C555.3 194.4 555.2 195 555.3 195.5C555.8 198.2 559.5 199.5 561.8 199.9C566.6 200.7 571 198.4 574.8 195.6C574.2 194.8 573.6 194 573 193.2C569.6 197.1 560.9 199.2 557.2 194.5C556.1 193.1 554.1 194.9 554.8 196.3C556.9 200.1 560.1 203.9 564.9 203.6C569.9 203.4 573 199.1 575.5 195.3C576.5 193.8 574.4 192.5 573.1 193.5C570.8 195.3 569.2 195.6 566.7 196.5C565.1 197.1 563.9 196.8 564.5 198.8C565 200.4 566.7 200.9 568.1 200.9C572.4 200.7 576.8 194.5 578.7 191.2C579.5 189.8 577.5 188.1 576.3 189.4C572.5 193.5 570.3 200.1 564.2 201C562.3 201.3 563.1 204.2 565 203.9C571.9 202.8 574.2 196 578.4 191.5C577.6 190.9 576.8 190.3 576 189.7C574.6 192 572.2 195.8 569.5 196.9C567.4 197.7 567.7 197.2 566.1 195.5C565.7 195 565.4 194.4 564.9 194.1C563.1 193 561.3 194 560.7 195.8C560.5 196.3 560.7 196.9 561.1 197.3C565.4 202 571 198.8 575.1 195.7C574.3 195.1 573.5 194.5 572.7 193.9C570.7 196.9 568.9 199.8 565.1 200.3C561.2 200.9 559 198 557.3 194.8C556.5 195.4 555.7 196 554.9 196.6C559.6 202.5 570.4 200.4 574.9 195.3C576 194.1 574.5 191.9 573.1 192.9C569.9 195.3 566 197.6 561.9 196.7C560.5 196.6 559.2 195.9 558.1 194.9C558.4 195.8 559 196.2 559.7 196.3C560.8 196.8 562.8 196.6 564 196.5C569.3 196.2 574.1 194.1 578.2 190.8C579.7 189.6 577.6 187.5 576.1 188.7C570.9 192.8 560.3 194.7 554 191.7C552.4 191 550.9 193.6 552.7 194.4Z" fill="#161616"/>
<path d="M563.4 201.6C565.7 199.9 567.9 198.1 569.8 196C569 195.4 568.2 194.8 567.4 194.2C566.5 195.9 565.2 197.6 564.5 199.4C564.2 200.3 564.1 201.3 564.9 202.1C565.6 202.8 566.7 202.8 567.6 202.4C569.3 201.6 570.8 200.2 572.3 199.1C571.6 198.4 570.9 197.7 570.2 197C569.6 198.5 567.6 201.4 569.3 202.8C571.2 204.4 572.9 201.6 573.9 200.4C575.1 198.9 573 196.8 571.8 198.3C571.4 198.7 570.6 200.2 570 200.3C570.5 200.4 571 200.6 571.5 200.7C571.4 200.6 571.3 200.5 571.3 200.4C571.4 200.8 571.6 201.1 571.7 201.5C571.7 200.6 572.5 199.4 572.8 198.6C573.3 197.4 572.1 195.6 570.7 196.5C570.1 196.9 566.8 199.8 566.3 199.6C566.6 199.8 566.9 200.1 567.2 200.3C567.1 200.2 567.1 200 567 199.9C567.1 200.3 567.1 200.7 567.2 201.1C567.5 199.3 569.1 197.3 570 195.7C570.8 194.2 568.8 192.6 567.6 193.9C565.8 195.8 563.9 197.5 561.8 199C560.3 200.1 561.8 202.7 563.4 201.6Z" fill="#161616"/>
<path d="M505 160.5C502.7 187.4 501.1 214.4 500.1 241.4C500 243.3 503 243.3 503.1 241.4C504.1 214.4 505.7 187.4 508 160.5C508.2 158.6 505.2 158.6 505 160.5Z" fill="#161616"/>
<path d="M658.8 128.8C666.4 157.2 661.6 186.5 654.9 214.5C654.4 216.4 657.3 217.2 657.8 215.3C664.7 186.8 669.5 156.9 661.7 128C661.2 126.2 658.3 127 658.8 128.8Z" fill="#161616"/>
<path d="M668.7 219.9C677.5 221.5 686.4 223.1 695.2 224.7C697.1 225 697.9 222.2 696 221.8C687.2 220.2 678.3 218.6 669.5 217C667.6 216.7 666.8 219.6 668.7 219.9Z" fill="white"/>
<path d="M680.1 158.1C679.3 159.4 678.4 161.3 677.8 163.5C676.9 167.1 677.1 170.2 677.3 172.1C671.3 178.2 655.8 192.3 631.9 195.7C622.4 197.1 614.1 196.4 607.9 195.2C607.2 197.8 606.7 201.1 608.4 202.5C609.5 203.5 611.1 203.1 613.8 203C618.3 202.8 620.7 203.7 622.9 203.9C629.1 204.6 645.5 201.7 663.3 191.7C668.1 189 674.7 184.8 681.9 178.5C682.4 179.2 686 183.5 691.4 183.5C698.9 183.4 702.4 175.2 702.7 174.4C704.5 170 704.6 163.9 700.9 159.4C697.5 155.2 692.7 154.5 691.4 154.4C685.2 153.8 680.8 157.4 680.1 158.1Z" fill="white" stroke="black" stroke-width="2" stroke-miterlimit="10"/>
<path d="M685.5 160.1C680.9 167.3 683.7 177.8 693.4 177.6C694.4 177.6 694.4 176.1 693.4 176.1C684.8 176.3 682.9 166.9 686.8 160.8C687.4 160 686.1 159.3 685.5 160.1Z" fill="black"/>
<path d="M692.3 169.8C691 168.8 690.3 167.1 690.7 165.5C691.1 164 693 162.5 694.6 163.3C696.3 164.1 696.9 166.8 696.1 168.4C695.4 170 693 170.7 691.8 169.1C691.2 168.3 689.9 169.1 690.5 169.9C691.9 171.8 694.8 172 696.6 170.3C698.6 168.3 698.4 164.6 696.4 162.6C694.5 160.7 691.4 161.5 690 163.6C688.4 165.9 689.1 169.1 691.3 170.8C692 171.4 693 170.4 692.3 169.8Z" fill="black"/>
<path d="M629 196.2C630.6 198.2 631 200.9 629.9 203.2C629.5 204.1 630.8 204.8 631.2 204C632.5 201.2 632.2 198 630.3 195.5C629.7 194.7 628.4 195.4 629 196.2Z" fill="black"/>
<path d="M612 196.4C612.9 198.1 613 200.1 612.1 201.9C611.7 202.8 613 203.5 613.4 202.7C614.5 200.4 614.4 197.9 613.3 195.7C612.8 194.8 611.5 195.5 612 196.4Z" fill="black"/>
<path d="M616.4 197.5C617.5 198.6 617.6 200.5 616.6 201.7C616 202.4 617.1 203.5 617.7 202.8C619.2 200.9 619.2 198.2 617.5 196.5C616.8 195.7 615.8 196.8 616.4 197.5Z" fill="black"/>
<path d="M621.3 197.6C623 198.8 622.9 201.4 621.4 202.6C620.7 203.2 621.7 204.3 622.5 203.7C624.8 201.8 624.5 198 622.1 196.3C621.3 195.8 620.6 197.1 621.3 197.6Z" fill="black"/>
<path d="M645.3 130.2C643.2 129.4 643.9 126.8 645.3 125.8C646.7 124.8 648.5 125.1 649.4 126.6C651.3 129.9 646.8 132.6 644.5 129.9C643.6 128.8 642 130.4 642.9 131.5C644.8 133.7 648.4 133.9 650.6 132C652.8 130 652.6 126.4 650.6 124.4C648.5 122.2 645 122.7 643 124.9C640.9 127.4 641.6 131.3 644.7 132.4C646.1 132.8 646.6 130.7 645.3 130.2Z" fill="black"/>
<path opacity="0.16" d="M649.3 117.8C650 130.2 651.3 143.6 653.6 158C655.1 167.6 656.9 176.8 658.9 185.3C656.7 186.7 654.4 188.1 652 189.5C640.2 196.2 628.8 200.5 618.5 203.3C623.8 203.5 630.4 203.2 638 201.8C647.1 200.1 654.5 197.2 659.9 194.6C651.9 203.4 641.3 213.6 627.7 223.3C608.2 237.3 589.4 245.4 575.2 250.3C586.1 254.1 597 257.9 607.8 261.7C608.6 276.5 609.4 291.3 610.2 306.2C615.7 304.8 621.2 303.4 626.8 301.9C626 292.6 625.3 283 624.9 273C624.7 267.4 624.5 261.9 624.4 256.4C633.9 253.8 641.7 251.3 647.6 249.3C669.4 241.9 684.9 234.4 689.2 232.3C696.4 228.8 702.2 225.6 706.2 223.3C707.3 216.4 708.3 209.2 709 201.5C710.7 183.7 710.8 167.4 709.9 152.8C705.2 147 699.1 140.5 691.5 133.9C683.4 126.9 675.5 121.7 668.8 117.8C662.2 117.8 655.7 117.8 649.3 117.8Z" fill="#666666"/>
<path opacity="0.3" d="M279.5 496.5C280.3 533.4 281 570.3 281.8 607.2C321.8 618.4 368.6 628.6 421.3 634.9C496.3 643.8 562.5 642.3 616.1 637.2C617.6 599.5 619.2 561.9 620.7 524.2C574.7 522.4 527.4 519.7 478.9 516.1C409.8 510.9 343.3 504.3 279.5 496.5Z" fill="#EC615B"/>
<g opacity="0.3">
<g opacity="0.3">
<path opacity="0.3" d="M292 514.1C348.1 526.3 405.2 533.3 462.6 535C464.5 535.1 464.5 532.1 462.6 532C405.5 530.3 348.6 523.4 292.8 511.2C290.9 510.8 290.1 513.7 292 514.1Z" fill="#EC615B"/>
</g>
</g>
<g opacity="0.3">
<g opacity="0.3">
<path opacity="0.3" d="M294.5 534.6C320.2 542.3 346.5 547.4 373.2 550C375.1 550.2 375.1 547.2 373.2 547C346.8 544.4 320.7 539.3 295.3 531.7C293.4 531.1 292.6 534 294.5 534.6Z" fill="#EC615B"/>
</g>
</g>
<g opacity="0.3">
<g opacity="0.3">
<path opacity="0.3" d="M372 613.9C442.2 624.6 513.5 635.2 584.6 627.1C586.5 626.9 586.5 623.9 584.6 624.1C513.7 632.2 442.8 621.7 372.8 611C370.9 610.7 370.1 613.6 372 613.9Z" fill="#EC615B"/>
</g>
</g>
<g opacity="0.3">
<g opacity="0.3">
<path opacity="0.3" d="M481.3 608.9C517.3 615.4 553.9 617 590.3 613.5C592.2 613.3 592.2 610.3 590.3 610.5C554.2 613.9 517.8 612.4 482.1 606C480.2 605.7 479.4 608.5 481.3 608.9Z" fill="#EC615B"/>
</g>
</g>
<g opacity="0.3">
<g opacity="0.3">
<path opacity="0.3" d="M553.4 537.8C555.1 551.4 554.2 565 550.8 578.3C550.5 579.3 551.3 580.1 552.2 580.2C560.8 580.9 569.3 581.6 577.9 582.3C581.6 582.6 589.9 585.2 592.2 581.1C593.4 579 593.1 575.4 593.3 573.1C593.5 569.5 593.6 565.9 593.8 562.3C594.2 554.1 594.9 546 597.5 538.1C597.8 537.2 597 536.1 596.1 536.2C583.1 537.2 570.2 536.6 557.4 534.4C556.2 534.2 555.4 535.1 555.6 536.2C555.8 537.4 555.8 537.4 556.5 538.4C557.6 540 560.2 538.5 559.1 536.9C558.9 536.4 558.7 535.9 558.5 535.4C557.9 536 557.3 536.6 556.7 537.2C569.8 539.5 582.9 540.1 596.2 539.1C595.7 538.5 595.2 537.8 594.8 537.2C590.8 549.1 591.2 561.5 590.4 573.8C590.3 574.9 590.4 578.2 589.9 578.9C588.8 580.4 586.3 579.8 584.9 579.7C581.3 579.4 577.7 579.1 574 578.8C566.8 578.2 559.5 577.6 552.3 577C552.8 577.6 553.3 578.3 553.7 578.9C557.2 565.4 558.2 551.5 556.4 537.6C556.2 535.9 553.2 535.9 553.4 537.8Z" fill="#EC615B"/>
</g>
</g>
<path opacity="0.38" d="M125.3 79.7C126.2 129.3 127.1 179 128 228.6C196.8 237.3 265.5 245.9 334.3 254.6C336.1 194.9 337.9 135.3 339.8 75.6C268.3 77 196.8 78.4 125.3 79.7Z" fill="#5222D0"/>
<path d="M304.9 238.5C305.9 236.6 308.2 233.6 308.5 231.4C308.7 229.8 307.2 228.2 306.4 226.9C303.1 221.4 299.8 215.8 296.6 210.3C295 207.6 293 204.8 291.7 202C290.1 198.6 291.6 197.5 293.3 194.6C296 190 298.3 185.2 300.2 180.3C307 162.3 308.1 141.6 300 123.8C286.8 94.7 254.9 88.1 226 87.5C196.1 86.8 165.9 98 148.1 123C127.5 151.9 139.8 192.4 167.7 211.6C196.8 231.7 237.5 230.8 267.9 214.5C269.6 213.6 268.1 211 266.4 211.9C241.8 225.1 213.1 227.2 186.8 217.9C159.6 208.3 138.7 181.4 140.7 151.7C143 118.3 175.8 96.8 206.1 91.8C215.3 90.3 224.5 90.3 233.8 90.8C246.5 91.5 259.3 93.3 270.9 98.7C287.3 106.3 298.4 121 301.7 138.8C305.6 159.8 299 181.4 287.3 198.7C287 199.1 287 199.8 287.3 200.2C290.9 206.3 294.5 212.4 298.1 218.5C299.7 221.3 301.4 224 303 226.8C304 228.5 305.3 229.9 305.1 232C305 233.5 303.2 235.7 302.5 237.1C301.4 238.7 304 240.3 304.9 238.5Z" fill="#5222D0"/>
<path d="M266.9 215.9C277.9 225 290 232.2 303.3 237.5C305.1 238.2 305.9 235.3 304.1 234.6C291.4 229.5 279.6 222.5 269 213.8C267.5 212.5 265.4 214.6 266.9 215.9Z" fill="#5222D0"/>
<path d="M177.6 165.3C181.576 165.3 184.8 160.599 184.8 154.8C184.8 149.001 181.576 144.3 177.6 144.3C173.623 144.3 170.4 149.001 170.4 154.8C170.4 160.599 173.623 165.3 177.6 165.3Z" fill="#5222D0" stroke="#5222D0" stroke-miterlimit="10"/>
<path d="M218.8 164C222.776 164 226 159.299 226 153.5C226 147.701 222.776 143 218.8 143C214.823 143 211.6 147.701 211.6 153.5C211.6 159.299 214.823 164 218.8 164Z" fill="#5222D0" stroke="#5222D0" stroke-miterlimit="10"/>
<path d="M258.9 162.8C262.876 162.8 266.1 158.099 266.1 152.3C266.1 146.501 262.876 141.8 258.9 141.8C254.923 141.8 251.7 146.501 251.7 152.3C251.7 158.099 254.923 162.8 258.9 162.8Z" fill="#5222D0" stroke="#5222D0" stroke-miterlimit="10"/>
</svg>
