<svg width="48" height="53" viewBox="0 0 48 53" fill="none" xmlns="http://www.w3.org/2000/svg">
<path d="M47.955 8C47.224 3.538 36.781 0 24 0C11.219 0 0.776 3.538 0.045 8H0V8.5V20V20.5V21V32V32.5V33V45H0.045C0.776 49.461 11.219 53 24 53C36.781 53 47.224 49.461 47.955 45H48V33V32.5V32V21V20.5V20V8.5V8H47.955Z" fill="#545E73"/>
<path d="M24 41C10.745 41 0 37.194 0 32.5V45H0.045C0.776 49.461 11.219 53 24 53C36.781 53 47.224 49.461 47.955 45H48V32.5C48 37.194 37.255 41 24 41Z" fill="#38454F"/>
<path d="M0 32V32.5C0 32.332 0.018 32.166 0.045 32H0Z" fill="#38454F"/>
<path d="M47.955 32C47.982 32.166 48 32.332 48 32.5V32H47.955Z" fill="#38454F"/>
<path d="M24 29C10.745 29 0 25.194 0 20.5V33H0.045C0.776 37.461 11.219 41 24 41C36.781 41 47.224 37.461 47.955 33H48V20.5C48 25.194 37.255 29 24 29Z" fill="#556080"/>
<path d="M0 20V20.5C0 20.332 0.018 20.166 0.045 20H0Z" fill="#556080"/>
<path d="M47.955 20C47.982 20.166 48 20.332 48 20.5V20H47.955Z" fill="#556080"/>
<path d="M24 17C37.2548 17 48 13.1944 48 8.5C48 3.80558 37.2548 0 24 0C10.7452 0 0 3.80558 0 8.5C0 13.1944 10.7452 17 24 17Z" fill="#91BAE1"/>
<path d="M24 17C10.745 17 0 13.194 0 8.5V21H0.045C0.776 25.461 11.219 29 24 29C36.781 29 47.224 25.461 47.955 21H48V8.5C48 13.194 37.255 17 24 17Z" fill="#8697CB"/>
<path d="M0 8V8.5C0 8.332 0.018 8.166 0.045 8H0Z" fill="#8697CB"/>
<path d="M47.955 8C47.982 8.166 48 8.332 48 8.5V8H47.955Z" fill="#8697CB"/>
</svg>
