<svg viewBox="0 0 252 252" fill="none" xmlns="http://www.w3.org/2000/svg">
<rect width="252" height="252" fill="#3765AF"/>
<path d="M54.446 106.873C61.8443 106.873 66.775 108.238 69.2403 110.97C71.7032 113.701 72.2901 118.389 71.0013 125.033C69.655 131.952 67.0625 136.89 63.2196 139.848C59.3767 142.807 53.5286 144.285 45.6776 144.285H33.8327L41.1038 106.873H54.446V106.873ZM7 182.158H26.4733L31.092 158.392H47.7717C55.1316 158.392 61.1859 157.621 65.9388 156.073C70.6922 154.527 75.0117 151.935 78.9 148.296C82.163 145.297 84.8033 141.988 86.8253 138.37C88.8449 134.755 90.2801 130.763 91.1283 126.398C93.1887 115.802 91.6338 107.549 86.4685 101.635C81.3031 95.7224 73.0855 92.7661 61.8205 92.7661H24.3741L7 182.158Z" fill="white"/>
<path d="M105.43 69H124.75L120.13 92.766H137.342C148.17 92.766 155.641 94.6562 159.752 98.4322C163.863 102.211 165.095 108.332 163.451 116.794L155.368 158.392H135.742L143.427 118.84C144.302 114.34 143.981 111.271 142.462 109.635C140.943 107.998 137.712 107.18 132.769 107.18H117.328L107.375 158.392H88.0556L105.43 69Z" fill="white"/>
<path d="M206.437 106.873C213.835 106.873 218.766 108.238 221.231 110.97C223.695 113.701 224.281 118.389 222.992 125.033C221.646 131.952 219.054 136.89 215.21 139.848C211.368 142.807 205.519 144.285 197.668 144.285H185.824L193.095 106.873H206.437V106.873ZM158.991 182.158H178.465L183.083 158.392H199.762C207.122 158.392 213.177 157.621 217.93 156.073C222.683 154.527 227.003 151.935 230.891 148.296C234.155 145.297 236.795 141.988 238.817 138.37C240.836 134.755 242.271 130.763 243.119 126.398C245.18 115.802 243.625 107.549 238.459 101.635C233.294 95.7224 225.076 92.7661 213.811 92.7661H176.366L158.991 182.158Z" fill="white"/>
</svg>
