<svg viewBox="0 0 1336 851" fill="none" xmlns="http://www.w3.org/2000/svg">
<path d="M622.6 388.6C614.4 394.7 604.5 404.5 600.9 418.5C598.3 428.9 600.8 435 599.9 448.4C599.3 457.7 596.9 470.8 589.2 486.4C571.7 482.8 542.3 479.3 507.6 487.3C486.9 492.1 470.3 499.6 458.1 506.4C460 507.6 462.6 509 465.9 509.9C484.6 515 504.3 499.3 504.9 500.4C505.5 501.4 482.9 512 484.1 521.2C484.9 527.4 496 530.7 507.5 534.2C517.2 537.1 526.4 539.9 538.7 538.5C555.6 536.6 567.3 528.1 572.5 523.7C577.5 526.2 584.9 529.5 594.2 532.4C611.3 537.6 634.9 544.8 650.6 535C660.8 528.6 663.9 513.6 669.7 483.8C676.7 447.5 680 429.3 670.6 414.4C658.3 394.5 633 389.9 622.6 388.6Z" fill="white" stroke="#161616" stroke-width="3" stroke-miterlimit="10"/>
<path d="M586 487.5C598.1 492 608.1 500.2 615 511.1C616 512.7 618.6 511.2 617.6 509.6C610.3 498 599.6 489.4 586.8 484.6C584.9 483.9 584.2 486.8 586 487.5Z" fill="#161616"/>
<path d="M521.6 507.2C509.7 509.2 500.1 517.2 495.8 528.4C495.1 530.2 498 531 498.7 529.2C502.6 519 511.6 511.9 522.4 510.1C524.3 509.8 523.5 506.9 521.6 507.2Z" fill="#161616"/>
<path d="M535.6 517.2C531.3 519.8 527.3 522.8 523.5 526C521 528.2 518.2 530.8 518.8 534.4C520.3 543.9 531.7 541.8 537.9 539.4C539.7 538.7 538.9 535.8 537.1 536.5C534.4 537.5 531.4 538.8 528.5 538.7C523.8 538.5 519.6 534 523.6 529.9C527.4 525.9 532.4 522.7 537.1 519.7C538.7 518.7 537.2 516.1 535.6 517.2Z" fill="#161616"/>
<path d="M715.9 265.5C710.8 267.2 704.3 269.8 697 273.4C694.9 274.4 689.6 277.1 683.9 280.8C675.1 286.4 668.7 292.3 661.4 299.7C652.1 309.2 642.7 318.7 631.5 333.9C622.1 346.7 607.5 366.8 597 396.3C592.8 408 590.4 418.1 589 425.3C594.5 422.1 599.5 420.5 603.4 419.6C625.9 414.5 647.5 425.9 668 436.6C675.7 440.6 681.8 444.5 686 447.2C688.2 436.4 690.4 425.5 692.6 414.7C694.5 405.6 696.3 396.4 698.2 387.3C701.1 384.8 705 381.1 709.3 376.3C717.4 367.1 733.5 348.8 735.7 323.4C738.4 294.1 721 271.7 715.9 265.5Z" fill="#EC615B"/>
<path d="M710 266.7C699.3 268.3 690.1 274 681.8 280.6C672.2 288.1 663.2 296.4 654.8 305.2C638.4 322.2 624.1 341.2 612.3 361.7C611.3 363.4 613.9 364.9 614.9 363.2C626.3 343.4 639.9 325 655.7 308.5C663.4 300.5 671.5 292.9 680 285.8C689.1 278.3 698.8 271.3 710.8 269.5C712.7 269.3 711.9 266.4 710 266.7Z" fill="#161616"/>
<path d="M705.8 375.9C698.4 383.4 690.8 390.7 683.1 397.8C681.7 399.1 683.8 401.2 685.2 399.9C692.9 392.8 700.5 385.5 707.9 378C709.2 376.6 707.1 374.5 705.8 375.9Z" fill="#161616"/>
<path d="M695.4 389.6C691.9 408.8 688.5 428.1 685 447.3C685.7 447 686.5 446.7 687.2 446.4C671.3 435.3 653.6 427 634.8 421.8C620.1 417.8 601.4 413.9 588.8 425C587.4 426.3 589.5 428.4 590.9 427.1C603.7 415.7 624.4 421.7 638.9 426.1C655.6 431.2 671.3 439 685.6 448.9C686.4 449.4 687.6 448.9 687.8 448C691.3 428.8 694.7 409.5 698.2 390.3C698.6 388.5 695.7 387.7 695.4 389.6Z" fill="#161616"/>
<path d="M613 360.3C602.6 380.6 589.6 401.5 588.7 425C588.6 426.9 591.6 426.9 591.7 425C592.6 402.1 605.4 381.7 615.6 361.8C616.4 360.1 613.8 358.6 613 360.3Z" fill="#161616"/>
<path opacity="0.4" d="M701.9 322.5C684 358.1 674.3 388.1 668.6 409.1C660.3 439.9 657.4 464.2 635.9 484.4C632.4 487.7 622.1 497.2 605.9 503.1C571.9 515.4 546.7 498.8 525.3 516.4C522.9 518.4 515.8 523.4 516.6 529.1C517.4 534.5 524.8 537.3 525.9 537.8C534.7 541.2 543.8 537.7 555.2 533.1C568.1 527.9 566.7 526.1 572.5 525.1C584.7 523 590.3 530.7 606.5 535.8C613.4 537.9 633.8 544.3 648.5 535.8C659.3 529.5 662.6 517.7 667.8 497.8C671.4 484.3 675.1 464.6 674.5 439.8C678.5 442.9 682.5 446 686.5 449.1C691.7 406.9 696.8 364.7 701.9 322.5Z" fill="#3D3D3D"/>
<path opacity="0.38" d="M695.9 365.8C682.2 391.7 675.5 413.6 671.9 428.4C664.7 458.1 667 472.1 657.2 493C646.7 515.7 629.7 530.1 617.9 538.3C624.5 539.8 640.4 542.6 651.9 533.6C660 527.3 662.1 518.3 665.2 503.6C669.1 485.5 673.2 464.9 677.2 442.3C680.3 444.3 683.4 446.3 686.5 448.3C689.7 420.9 692.8 393.3 695.9 365.8Z" fill="#3D3D3D"/>
<path d="M713.8 263.5C710.2 287 706.7 310.7 703.3 334.5C690.1 426.8 678.7 517.5 669.1 606.7C669.3 609.7 670.1 614.5 673.1 619.3C676.1 624.2 680.1 626.7 682 628C700.2 641 709.3 647.6 718.5 652C762.6 673.3 811.4 670.8 811.4 670.8C821.7 670.3 842.2 669 864.2 660.2C865.4 659.7 873.8 655.8 890.6 647.9C905.8 640.8 908.5 639.4 912.2 636C921 627.9 924.4 617.9 926.7 610.8C931.6 595.7 931.1 582.9 930.9 579.8C930.9 579.8 929.9 554.9 929.2 409.5C929.1 379.9 932 336.4 947.6 282.7C931.4 274.8 916.2 267.5 897.9 258.7C885.3 252.6 873.6 247 856.8 245C852 244.4 847.7 244.2 841.3 244.3C815.3 244.5 793.9 248.5 784.7 250.1C766.8 253 742.6 257.4 713.8 263.5Z" fill="#EC615B"/>
<path d="M713 267C744 260.4 775.3 255.1 806.7 251.2C808.1 251 808.9 249.2 807.5 248.4C807.1 248.2 806.7 247.9 806.2 247.7C804.5 246.7 803 249.3 804.7 250.3C805.1 250.5 805.5 250.8 806 251C806.3 250.1 806.5 249.1 806.8 248.2C775.1 252.1 743.5 257.4 712.3 264.1C710.3 264.5 711.1 267.4 713 267Z" fill="#161616"/>
<path d="M703.7 319.4C692.7 397.8 682.7 476.3 673.7 555C672.6 564.9 671.5 574.7 670.4 584.6C669.5 593.2 667 602.9 668.1 611.5C669.1 619.1 675.1 623.9 680.6 628.5C686.6 633.5 692.9 638.2 699.5 642.5C726.6 660 758.3 670.5 790.5 672.4C828.8 674.6 867.3 664.8 900 644.8C901.6 643.8 900.1 641.2 898.5 642.2C841.3 677.1 768.5 678.5 710.2 645.4C703.5 641.6 697 637.4 690.8 632.8C684.5 628.1 674.3 621.7 671.7 614C670.5 610.3 671.1 606.2 671.5 602.3C672 597.4 672.6 592.4 673.1 587.5C674.1 578.3 675.1 569.1 676.2 559.9C680.5 522.4 684.9 485 689.7 447.6C695.1 405.1 700.7 362.6 706.7 320.2C706.9 318.3 704 317.5 703.7 319.4Z" fill="#161616"/>
<path d="M851 244.1C868.6 247.6 885.1 255.7 901.5 262.6C917.6 269.4 935.5 274.9 949.7 285.3C951.3 286.4 952.8 283.8 951.2 282.7C937.3 272.5 919.8 267.1 904.1 260.5C887.1 253.4 870 244.9 851.8 241.2C849.9 240.8 849.1 243.7 851 244.1Z" fill="#161616"/>
<path d="M929.4 413.7C927.8 455.8 926.2 497.9 927.7 539.9C928.4 560.3 931.6 581.5 927.8 601.8C924.6 618.5 915.2 635.2 898.5 641.4C896.7 642.1 897.5 645 899.3 644.3C925.9 634.4 932.8 604.1 932.4 578.7C932.2 561.5 930.7 544.3 930.3 527C929.9 509.4 930.1 491.9 930.4 474.3C930.8 454.1 931.6 433.9 932.3 413.7C932.5 411.7 929.5 411.7 929.4 413.7Z" fill="#161616"/>
<path opacity="0.38" d="M915 390C909.7 408.2 901.4 428.1 888.6 447.9C831.3 536 726.4 553.6 699.6 557.3C735.6 561.1 772 565.2 808.8 569.6C849.4 574.4 889.5 579.5 929 584.7C926.5 540 926.5 503.2 927.1 476.9C928.2 422.5 932.1 378.5 925 377.1C923.3 376.7 920.3 378.6 915 390Z" fill="#3D3D3D"/>
<path opacity="0.42" d="M927.3 422.7C923.7 433.3 918.2 448.3 910.1 465.6C898.7 490.1 887.8 513.7 873.7 528.2C834.3 568.7 757.3 551.2 757.1 554C757 555.6 785.2 560.1 927.6 573.2C927.6 523 927.5 472.9 927.3 422.7Z" fill="#3D3D3D"/>
<path d="M1106.7 835C739.7 786 372.6 737 5.6001 688.1C113.9 625.3 222.3 562.5 330.6 499.7C661.7 532.3 992.9 565 1324 597.6C1251.5 676.7 1179.1 755.9 1106.7 835Z" fill="white" stroke="#161616" stroke-width="3" stroke-miterlimit="10"/>
<path d="M2 696.6C369.9 745.4 737.8 794.2 1105.6 843" stroke="#161616" stroke-width="16" stroke-miterlimit="10"/>
<path d="M1098.6 845.2C1175.7 763.7 1252.8 682.1 1329.8 600.6" stroke="#161616" stroke-width="16" stroke-miterlimit="10"/>
<path d="M975.8 631C938.3 660.3 901.6 690.5 865.5 721.5C864 722.8 866.2 724.9 867.6 723.6C903.7 692.6 940.5 662.4 977.9 633.1C979.4 632 977.3 629.8 975.8 631Z" fill="#161616"/>
<path d="M866.9 723.1C878.7 725.6 890.7 725.6 902.8 725.7C916.4 725.9 929.2 727.3 942.2 731.1C966.6 738.2 990.5 742.9 1016 742.3C1017.9 742.3 1017.9 739.3 1016 739.3C1002.9 739.6 989.8 738.8 976.8 736.7C964.6 734.7 953 731.1 941.1 727.8C929.7 724.6 918.3 723.1 906.4 722.9C893.4 722.6 880.4 723 867.6 720.3C865.8 719.8 865 722.7 866.9 723.1Z" fill="#161616"/>
<path d="M978 633.2C1017.6 636.4 1056.9 642.7 1095.5 652.1C1097.4 652.6 1098.2 649.7 1096.3 649.2C1057.5 639.7 1017.9 633.4 978 630.2C976.1 630 976.1 633 978 633.2Z" fill="#161616"/>
<path d="M1018.3 740.5C1046.2 712.9 1073 684.1 1098.4 654.1C1099.6 652.6 1097.5 650.5 1096.3 652C1070.9 681.9 1044.1 710.7 1016.2 738.4C1014.8 739.8 1016.9 741.9 1018.3 740.5Z" fill="#161616"/>
<path d="M901.8 711.2C936.2 707 971 711.3 1003.3 723.9C1005.1 724.6 1005.9 721.7 1004.1 721C971.6 708.4 936.4 704 901.8 708.2C899.9 708.4 899.9 711.4 901.8 711.2Z" fill="#161616"/>
<path d="M953.9 700.2C975.1 701.8 996 705.1 1016.7 710C1018.6 710.5 1019.4 707.6 1017.5 707.1C996.6 702.1 975.4 698.8 953.9 697.2C951.9 697.1 952 700.1 953.9 700.2Z" fill="#161616"/>
<path d="M938 678.1C969.9 678.8 1001.5 683.4 1032.3 691.9C1034.2 692.4 1035 689.5 1033.1 689C1002.1 680.5 970.2 675.8 938 675.1C936.1 675.1 936.1 678.1 938 678.1Z" fill="#161616"/>
<path d="M977.6 668.9C994.8 671.3 1011.8 674.3 1028.8 677.9C1030.7 678.3 1031.5 675.4 1029.6 675C1012.6 671.4 995.6 668.4 978.4 666C976.5 665.7 975.7 668.6 977.6 668.9Z" fill="#161616"/>
<path d="M955.7 736C949.6 745.4 943.5 754.8 937.3 764.1C936.7 765 937.5 766.5 938.6 766.4C987.9 760.8 1037.9 764 1086.1 775.8C1088 776.3 1088.8 773.4 1086.9 772.9C1038.4 761 988.2 757.8 938.6 763.3C939 764.1 939.5 764.8 939.9 765.6C946 756.2 952.1 746.8 958.3 737.5C959.4 735.9 956.8 734.4 955.7 736Z" fill="#161616"/>
<path d="M1076.6 679.2C1095.9 678.8 1115.1 678.4 1134.4 678C1133.9 677.4 1133.4 676.7 1133 676.1C1119.7 707.8 1106.3 739.4 1093 771.1C1092.3 772.9 1095.2 773.7 1095.9 771.9C1109.2 740.2 1122.6 708.6 1135.9 676.9C1136.3 676 1135.3 675 1134.5 675C1115.2 675.4 1096 675.8 1076.7 676.2C1074.7 676.3 1074.7 679.3 1076.6 679.2Z" fill="#161616"/>
<path d="M1003.5 753.7C1008.6 752.7 1013.7 752.5 1018.9 752.9C1020.8 753 1020.8 750 1018.9 749.9C1013.4 749.5 1008.1 749.8 1002.7 750.8C1000.8 751.1 1001.6 754 1003.5 753.7Z" fill="#161616"/>
<path d="M1031.9 754C1047.6 754.6 1063.3 756.1 1078.9 758.5C1080.8 758.8 1081.6 755.9 1079.7 755.6C1063.9 753.1 1047.9 751.6 1031.9 751C1030 750.9 1030 753.9 1031.9 754Z" fill="#161616"/>
<path d="M1032.8 735.2C1036.5 735.2 1040.2 735.2 1044 735.2C1045.9 735.2 1045.9 732.2 1044 732.2C1040.3 732.2 1036.6 732.2 1032.8 732.2C1030.9 732.2 1030.9 735.2 1032.8 735.2Z" fill="#161616"/>
<path d="M1056.1 734.9C1068.4 735.2 1080.6 736.4 1092.8 738.4C1094.7 738.7 1095.5 735.8 1093.6 735.5C1081.2 733.5 1068.7 732.3 1056.1 731.9C1054.2 731.9 1054.2 734.9 1056.1 734.9Z" fill="#161616"/>
<path d="M1054.2 717.8C1068.2 718 1082.1 718.8 1096 720.4C1097.9 720.6 1097.9 717.6 1096 717.4C1082.1 715.8 1068.2 714.9 1054.2 714.8C1052.3 714.7 1052.3 717.7 1054.2 717.8Z" fill="#161616"/>
<path d="M960.3 751C967 751.2 973.6 750.4 980.2 748.8C982.1 748.3 981.3 745.4 979.4 745.9C973.1 747.5 966.8 748.2 960.3 748C958.4 748 958.4 751 960.3 751Z" fill="#161616"/>
<path d="M1007.8 594.3C1005.2 597.5 1002.2 604 1005.3 607.9C1007.2 610.3 1010.8 609.8 1013.5 609.9C1018.4 610.1 1023.3 610.4 1028.2 610.6C1048.1 611.5 1067.9 612.5 1087.8 613.4C1089.7 613.5 1089.7 610.5 1087.8 610.4C1073.1 609.7 1058.5 609 1043.8 608.3C1036.6 608 1029.5 607.6 1022.3 607.3C1018.8 607.1 1015.1 607.3 1011.6 606.8C1009 606.4 1007.1 606.3 1007.2 603.1C1007.3 600.6 1008.4 598.3 1009.9 596.4C1011.1 594.9 1009 592.7 1007.8 594.3Z" fill="#161616"/>
<path d="M1010.5 598.1C1027.3 598.7 1044.1 599.2 1060.9 599.8C1069.1 600.1 1077.4 600.3 1085.6 600.6C1093 600.9 1100.8 601.4 1106.1 607.1C1107.4 608.5 1109.5 606.4 1108.2 605C1104.2 600.6 1098.8 598.9 1093 598.1C1084.4 597 1075.5 597.2 1066.8 596.9C1048 596.3 1029.2 595.6 1010.5 595C1008.6 595.1 1008.6 598.1 1010.5 598.1Z" fill="#161616"/>
<path d="M1086.8 613.5C1094.5 613.6 1101.8 611.2 1108 606.6C1109.5 605.5 1108 602.9 1106.5 604C1100.7 608.3 1094.1 610.6 1086.8 610.5C1084.8 610.5 1084.8 613.5 1086.8 613.5Z" fill="#161616"/>
<path d="M1089.2 598.1C1085 600.9 1083.1 606.1 1084.5 610.9C1085 612.7 1087.9 612 1087.4 610.1C1086.4 606.6 1087.6 602.7 1090.7 600.6C1092.3 599.6 1090.8 597 1089.2 598.1Z" fill="#161616"/>
<path d="M680.9 701.8C559.4 681 437.9 660.2 316.4 639.4C390.2 609.6 464 579.9 537.8 550.1C653.2 575.8 768.6 601.5 883.9 627.2C816.3 652.1 748.6 676.9 680.9 701.8Z" fill="white" stroke="#161616" stroke-width="3" stroke-miterlimit="10"/>
<path d="M675.9 703.3C676.3 704.5 676.6 705.8 677 707C677.5 708.6 679.9 708.3 679.9 706.6C679.9 705.6 679.9 704.7 679.9 703.7C679.9 701.8 676.9 701.8 676.9 703.7C676.9 704.9 676.7 706 676.2 707.1C677.2 707.1 678.1 707.1 679.1 707.1C678.7 705.8 678.6 704.6 678.9 703.2C678 703.3 677.1 703.4 676.2 703.6C676.5 703.9 676.5 704.1 676.3 704.4C677.2 704.5 678.1 704.6 679 704.8C678.8 704.1 678.9 703.5 679.3 702.9C678.4 702.6 677.4 702.4 676.5 702.1C676.3 703.7 676.1 705.2 675.9 706.8C675.8 707.6 676.7 708.3 677.4 708.3C678.3 708.3 678.8 707.6 678.9 706.8C679.1 705.2 679.3 703.7 679.5 702.1C679.7 700.6 677.4 700.2 676.7 701.3C675.9 702.6 675.7 704.1 676.1 705.6C676.4 706.9 678.2 707 678.8 706C679.6 704.8 679.6 703.3 678.7 702.2C678 701.3 676.2 701.2 676 702.6C675.6 704.4 675.7 706.3 676.2 708.1C676.7 709.6 678.6 709.4 679.1 708.1C679.6 706.7 679.9 705.3 679.9 703.9C678.9 703.9 677.9 703.9 676.9 703.9C676.9 704.9 676.9 705.8 676.9 706.8C677.9 706.7 678.9 706.5 679.8 706.4C679.4 705.2 679.1 703.9 678.7 702.7C678.3 700.6 675.4 701.4 675.9 703.3Z" fill="#161616"/>
<path d="M678.2 710.5C694.3 702.2 711.9 697.8 729.2 692.9C737.7 690.5 746.1 687.9 754.2 684.5C762 681.3 769.5 677.3 777.2 673.7C794.3 665.7 812.8 660.5 830.7 654.6C849.3 648.4 867.8 642.2 886.4 636.1C888.2 635.5 887.4 632.6 885.6 633.2C867 639.4 848.5 645.6 829.9 651.7C812.3 657.5 794.2 662.7 777.3 670.4C768.5 674.4 759.9 679.1 750.9 682.6C742.7 685.8 734.3 688.3 725.8 690.7C709.1 695.5 692.2 699.9 676.6 707.9C675 708.8 676.5 711.4 678.2 710.5Z" fill="#161616"/>
<path d="M679.6 709.9C748.7 686 817.6 661.8 886.5 637.2C891.9 635.3 889.6 626.6 884.1 628.5C815.3 653.1 746.3 677.3 677.2 701.2C671.8 703.1 674.1 711.8 679.6 709.9Z" fill="#161616"/>
<path d="M671.8 613.3C684.8 614.6 695.9 622.5 708.7 625C710.6 625.4 711.4 622.5 709.5 622.1C696.5 619.5 685.2 611.6 671.8 610.3C669.9 610.2 669.9 613.2 671.8 613.3Z" fill="#161616"/>
<path d="M709.6 623.6C717.5 619.3 724.9 614.2 731.6 608.2C733 606.9 730.9 604.8 729.5 606.1C722.9 611.9 715.8 616.9 708.1 621C706.4 622 707.9 624.6 709.6 623.6Z" fill="#161616"/>
<path d="M674.9 607.6C681.2 603.1 687.7 598.8 694.4 594.8C696.1 593.8 694.5 591.2 692.9 592.2C686.2 596.2 679.7 600.4 673.4 605C671.8 606.2 673.3 608.8 674.9 607.6Z" fill="#161616"/>
<path d="M694.9 595.3C706.3 599.6 717.7 603.8 729.2 608.1C731 608.8 731.8 605.9 730 605.2C718.6 600.9 707.2 596.7 695.7 592.4C693.9 591.8 693.1 594.7 694.9 595.3Z" fill="#161616"/>
<path d="M662.8 624.7C692.9 634 722.6 644.7 751.7 656.8C753.5 657.5 754.3 654.6 752.5 653.9C723.4 641.8 693.7 631.1 663.6 621.8C661.7 621.2 660.9 624.1 662.8 624.7Z" fill="#161616"/>
<path d="M665.7 648C684.4 657 703.3 665.5 722.4 673.8C724.2 674.6 725.7 672 723.9 671.2C704.8 663 685.9 654.4 667.2 645.4C665.5 644.6 664 647.2 665.7 648Z" fill="#161616"/>
<path d="M668.4 673.7C678.6 678.9 688.8 684.2 699 689.4C700.7 690.3 702.2 687.7 700.5 686.8C690.3 681.6 680.1 676.3 669.9 671.1C668.2 670.2 666.7 672.8 668.4 673.7Z" fill="#161616"/>
<path d="M674.2 674.6C688.3 662.6 703.1 651.6 718.5 641.4C720.1 640.3 718.6 637.7 717 638.8C701.4 649.1 686.4 660.4 672.1 672.5C670.6 673.8 672.7 675.9 674.2 674.6Z" fill="#161616"/>
<path d="M670.5 654.1C678.5 648.5 686.5 642.9 694.5 637.2C696.1 636.1 694.6 633.5 693 634.6C685 640.2 677 645.8 669 651.5C667.5 652.6 669 655.2 670.5 654.1Z" fill="#161616"/>
<path d="M675.5 708.7C549.8 687.3 424.1 665.9 298.4 644.5C286.6 555.2 274.7 466 262.9 376.7C398.2 394.9 533.4 413.1 668.7 431.4C671 523.8 673.3 616.2 675.5 708.7Z" fill="white" stroke="#161616" stroke-width="3" stroke-miterlimit="10"/>
<path d="M668.7 431.3L677.5 706.8" stroke="#161616" stroke-width="3" stroke-miterlimit="10"/>
<path d="M669.3 431.1C672 521.7 674.7 612.3 677.4 702.9" stroke="#161616" stroke-width="3" stroke-miterlimit="10"/>
<path opacity="0.37" d="M496.2 412.7C502.7 416.1 558.5 446.5 562.4 500.5C564.6 530.3 550 552.9 540.8 566.7C491.2 641.3 393.1 654.5 366.5 657.3C405.2 683 540.4 767.7 688.2 762.7C721.1 761.6 772.1 759.3 827.4 728.9C868.9 706.1 895.8 676.8 911.2 657.3C901.7 651.4 892.3 645.6 882.8 639.7C813 663.6 743.1 687.5 673.3 711.3C669.7 618.9 666.1 526.6 662.5 434.2C607 427.2 551.6 420 496.2 412.7Z" fill="#3D3D3D"/>
<path opacity="0.5" d="M416.7 663.8C429.7 672.4 449.8 684.7 475.8 696.5C508.2 711.3 604.1 755.1 708 730.8C783.5 713.1 841.9 664.6 838.1 656.6C835.7 651.6 806.4 656.8 675.9 708.7C673.8 666.4 671.7 624 669.7 581.7C666.1 617.3 662.4 652.9 658.8 688.4C578.1 680.3 497.4 672 416.7 663.8Z" fill="#3D3D3D"/>
<path d="M949.6 423.2C944.2 427.2 938.4 432.6 933.1 439.7C913.4 466.2 916.1 497.3 917.5 507.4C900 503.8 870.6 500.3 835.9 508.3C815.2 513.1 798.6 520.6 786.4 527.4C788.3 528.6 790.9 530 794.2 530.9C812.9 536 832.6 520.3 833.2 521.4C833.8 522.4 811.2 533 812.4 542.2C813.2 548.4 824.3 551.7 835.8 555.2C845.5 558.1 854.7 560.9 867 559.5C883.9 557.6 895.6 549.1 900.8 544.7C905.8 547.2 913.2 550.5 922.5 553.4C939.6 558.6 963.2 565.8 978.9 556C989.1 549.6 992.2 534.6 998 504.8C1005.4 466.6 1009.1 447.5 998.9 435.4C985.4 419.3 958.3 422 949.6 423.2Z" fill="white" stroke="#161616" stroke-width="3" stroke-miterlimit="10"/>
<path d="M914.1 508.4C926.2 512.9 936.2 521.1 943.1 532C944.1 533.6 946.7 532.1 945.7 530.5C938.4 518.9 927.7 510.3 914.9 505.5C913.1 504.9 912.3 507.8 914.1 508.4Z" fill="#161616"/>
<path d="M849.8 528.2C837.9 530.2 828.3 538.2 824 549.4C823.3 551.2 826.2 552 826.9 550.2C830.8 540 839.8 532.9 850.6 531.1C852.5 530.8 851.7 527.9 849.8 528.2Z" fill="#161616"/>
<path d="M825.4 551.3C831.6 557.2 840.2 559.2 848.3 556.6C850.1 556 849.3 553.1 847.5 553.7C840.4 556 832.9 554.4 827.5 549.2C826.1 547.8 824 549.9 825.4 551.3Z" fill="#161616"/>
<path d="M863.7 538.1C859.4 540.7 855.4 543.7 851.6 546.9C849.1 549.1 846.3 551.7 846.9 555.3C848.4 564.8 859.8 562.7 866 560.3C867.8 559.6 867 556.7 865.2 557.4C862.5 558.4 859.5 559.7 856.6 559.6C851.9 559.4 847.7 554.9 851.7 550.8C855.5 546.8 860.5 543.6 865.2 540.6C866.9 539.7 865.4 537.1 863.7 538.1Z" fill="#161616"/>
<path d="M944.6 280.5C948.7 283.7 954 288.1 959.6 293.8C961.2 295.4 965.3 299.6 969.4 304.8C975.8 312.8 979.9 320.4 984.4 329.7C990.2 341.6 996 353.5 1001.8 371.3C1006.7 386.3 1014.2 409.9 1015.1 441.3C1015.5 453.7 1014.7 464.1 1013.9 471.4C1009.8 466.7 1005.7 463.6 1002.3 461.6C983.2 449.9 960 454.1 938.1 458.1C929.9 459.6 923.1 461.4 918.4 462.7C919.6 451.7 920.7 440.7 921.9 429.7C922.9 420.5 923.8 411.2 924.8 401.9C922.9 398.6 920.3 393.9 917.9 388C913.2 376.7 903.8 354.5 909.2 329.6C915.6 301 938.1 284.8 944.6 280.5Z" fill="#EC615B"/>
<path d="M948.1 286C958.1 291.2 964.8 300.2 970.6 309.5C976.6 319.1 982 329 986.8 339.2C996.6 360 1003.8 382 1008.5 404.5C1008.9 406.4 1011.8 405.6 1011.4 403.7C1006.6 380.3 999 357.6 988.6 336C983.5 325.4 977.9 315.1 971.5 305.2C965.8 296.4 959.1 288.2 949.7 283.3C947.9 282.5 946.4 285.1 948.1 286Z" fill="#161616"/>
<path d="M916.9 387.7C921.5 397.1 926.3 406.3 931.3 415.5C932.2 417.2 934.8 415.7 933.9 414C928.9 404.8 924.1 395.6 919.5 386.2C918.6 384.4 916 385.9 916.9 387.7Z" fill="#161616"/>
<path d="M924 404.9C921.5 424.3 919 443.7 916.6 463.1C916.5 464.1 917.7 464.8 918.5 464.5C935.5 459.1 953.2 456.5 971 457.1C985.1 457.6 1003.8 458.9 1011.7 472.7C1012.7 474.4 1015.2 472.9 1014.3 471.2C1006.8 458 990.4 455.3 976.6 454.4C956.7 453 936.7 455.6 917.8 461.6C918.4 462.1 919.1 462.6 919.7 463C922.2 443.6 924.7 424.2 927.1 404.8C927.3 403 924.3 403 924 404.9Z" fill="#161616"/>
<path d="M1008.3 403C1011.8 425 1017.5 448.3 1011.6 470.4C1011.1 472.3 1014 473.1 1014.5 471.2C1020.5 448.6 1014.8 424.8 1011.2 402.2C1010.9 400.3 1008 401.1 1008.3 403Z" fill="#161616"/>
<path opacity="0.32" d="M937 276.8C946.1 293.8 955.2 314.1 962.9 337.4C978 383.4 982 424.7 982.3 455.6C972.1 456.2 961.9 456.8 951.7 457.4C955 481.1 958.4 504.9 961.7 528.6C955.3 524.9 945.5 520.2 932.9 517.4C928.8 516.5 913.7 513.5 897.6 516.2C863.8 521.9 843.4 549.6 838.8 556.2C843.4 558.1 849.3 559.9 856.4 560.3C878.2 561.6 894.1 549 898.8 545C913.7 552.5 926.7 556.1 935.9 557.9C952 561.2 970.8 565 981.2 555C982 554.2 983.8 552.3 987.7 542.6C993.8 527.2 997 512.8 1001.2 486.7C1002.1 480.9 1003.4 473.1 1004.7 463.8C1007.2 466.3 1009.8 468.9 1012.3 471.4C1013.5 466.9 1015 460.2 1015.8 452C1017.9 430.7 1013.8 413.9 1009.9 400.2C994.2 344.8 984.8 311.4 953.4 287.2C946.9 282.4 940.9 278.9 937 276.8Z" fill="#3D3D3D"/>
<path opacity="0.29" d="M989.9 345.3C996.6 377.9 997.5 405.6 997 425.6C996.5 444.2 994.6 457.8 992.6 471.5C986.7 512.8 983.7 533.4 972.3 543C950.7 561.2 912.2 547.4 903 543.9C911.7 549.7 943 569.4 973.6 558.5C976.8 557.3 980.3 555.8 983.7 553.6C987.3 547.5 992.1 538.1 995.2 525.8C997 518.5 997.5 513.2 998.2 507C999.3 497 1001.2 482.4 1004.4 464.1C1007.3 466.6 1010.3 469.1 1013.2 471.6C1014.2 466.5 1015.5 458.7 1015.8 449.1C1016.7 425.9 1011.6 408.3 1005.7 388.2C1002.5 377.2 997.5 362.4 989.9 345.3Z" fill="#3D3D3D"/>
<path d="M795.964 225.201C813.767 225.201 832.456 215.501 846.424 205.101C860.49 194.601 871.999 181.101 880.261 165.501C881.146 163.801 878.589 162.301 877.704 164.001C869.736 179.201 858.621 192.401 844.949 202.501C831.276 212.701 813.177 222.201 795.964 222.201C793.996 222.201 793.996 225.201 795.964 225.201Z" fill="white"/>
<path d="M846.326 202.701C844.358 222.901 848.195 243.101 857.244 261.201C858.129 262.901 860.687 261.401 859.801 259.701C850.949 242.001 847.408 222.401 849.276 202.701C849.473 200.801 846.522 200.801 846.326 202.701Z" fill="white"/>
<path d="M803.538 224.701C806.784 236.101 809.439 247.701 811.407 259.401C812.685 267.201 813.177 276.001 821.735 278.901C834.522 283.301 853.408 275.501 858.326 262.601C859.015 260.801 856.162 260.001 855.474 261.801C852.719 269.101 845.834 273.101 838.752 275.201C832.85 276.901 823.899 278.701 818.882 273.801C815.931 270.901 815.538 266.301 814.948 262.401C814.259 258.301 813.571 254.201 812.784 250.101C811.013 241.301 808.948 232.501 806.488 223.901C805.898 222.101 803.046 222.901 803.538 224.701Z" fill="white"/>
<path d="M812.074 257.908C813.648 270.708 817.976 275.575 819.943 276.408L823.386 277.908H832.239L839.124 276.408C840.6 275.575 844.141 273.808 846.502 273.408C848.862 273.008 853.059 268.242 854.863 265.908L858.305 259.908L853.387 247.908C851.42 241.742 847.485 228.408 847.485 224.408V203.908C847.977 203.075 849.846 200.708 853.387 197.908C857.813 194.408 863.715 186.408 867.158 182.908C869.912 180.108 876.175 170.408 878.962 165.908H886.831C892.733 165.908 894.7 163.408 903.553 157.908C912.405 152.408 913.389 130.908 912.897 124.908C912.405 118.908 909.454 118.408 905.52 116.408C901.585 114.408 898.143 117.908 894.7 118.408C891.946 118.808 883.716 123.575 879.945 125.908L880.929 109.408C881.093 105.575 881.126 94.1082 879.945 78.9082C878.47 59.9082 875.027 54.4082 873.06 46.9082C871.093 39.4082 862.732 28.4082 860.764 26.4082C858.797 24.4082 851.912 17.9082 847.485 14.9082C843.059 11.9082 831.255 6.40825 822.403 3.90825C813.55 1.40825 807.156 1.90825 794.861 2.40825C785.024 2.80825 768.795 7.24158 761.909 9.40825C756.499 11.7416 744.007 17.9082 737.318 23.9082C728.957 31.4082 726.006 39.9082 721.58 48.4082C717.154 56.9082 716.662 69.4082 717.154 79.9082C717.547 88.3083 719.285 100.408 720.105 105.408C721.088 112.575 723.646 129.108 726.006 137.908C728.367 146.708 731.908 156.908 733.384 160.908C735.679 165.075 741.056 175.008 744.204 181.408C748.138 189.408 753.056 194.408 761.909 203.908C770.762 213.408 787.975 221.408 793.385 222.908C797.713 224.108 801.746 223.408 803.222 222.908L804.697 224.408L807.648 236.408C808.468 238.242 810.501 245.108 812.074 257.908Z" fill="white"/>
<path opacity="0.36" d="M847 46C861.5 70.5 862 118 862 136.5C862 144.116 864.506 156.5 855.5 174.5C848.128 189.233 831.722 204.777 828 214C831.5 214 847 203.5 851 200C855 196.5 864 187.5 869.5 181C873.9 175.8 877.667 169.5 879 167C879.333 166.333 881 165.2 885 166C890 167 895 163 899 162C903 161 909 154 911.5 149C914 144 914.5 127 914.5 125C914.5 123 913 119.5 909 118C905 116.5 898.5 118.5 894 119.5C890.4 120.3 883.833 124.833 881 127V109.5V85C881 76 878 60.5 876.5 54C875 47.5 871.5 42.5 868.5 36C865.5 29.5 857.5 23.5 840.5 11.5C823.5 -0.499994 783.5 1.50001 795.5 4.00001C807.5 6.50001 832.5 21.5 847 46Z" fill="#3D3D3D"/>
<path d="M714.2 85.4C718.3 116.3 722.6 148.4 737.7 176.2C750.1 199 770.1 218.5 795.8 225C797.7 225.5 798.5 222.6 796.6 222.1C771.2 215.6 751.6 196 739.6 173.3C725.3 146.3 721.2 115.3 717.2 85.4C716.9 83.5 713.9 83.5 714.2 85.4Z" fill="#161616"/>
<path d="M715.9 86C712.9 66.6667 717.9 24.3 761.9 9.50002C816.9 -8.99998 849.4 10.5 865.9 32C882.4 53.5 883.9 95.5 880.4 126" stroke="#161616" stroke-width="3"/>
<path d="M795.8 225.4C813.9 225.4 832.9 215.7 847.1 205.3C861.4 194.8 873.1 181.3 881.5 165.7C882.4 164 879.8 162.5 878.9 164.2C870.8 179.4 859.5 192.6 845.6 202.7C831.7 212.9 813.3 222.4 795.8 222.4C793.8 222.4 793.8 225.4 795.8 225.4Z" fill="#161616"/>
<path d="M847 202.9C845 223.1 848.9 243.3 858.1 261.4C859 263.1 861.6 261.6 860.7 259.9C851.7 242.2 848.1 222.6 850 202.9C850.2 201 847.2 201 847 202.9Z" fill="#161616"/>
<path d="M803.5 224.9C806.8 236.3 809.5 247.9 811.5 259.6C812.8 267.4 813.3 276.2 822 279.1C835 283.5 854.2 275.7 859.2 262.8C859.9 261 857 260.2 856.3 262C853.5 269.3 846.5 273.3 839.3 275.4C833.3 277.1 824.2 278.9 819.1 274C816.1 271.1 815.7 266.5 815.1 262.6C814.4 258.5 813.7 254.4 812.9 250.3C811.1 241.5 809 232.7 806.5 224.1C805.9 222.3 803 223.1 803.5 224.9Z" fill="#161616"/>
<path d="M807.8 237.3C825.6 235 837.3 221.4 845.9 206.8C846.9 205.1 844.3 203.6 843.3 205.3C835.4 218.9 824.4 232.2 807.8 234.3C805.9 234.6 805.9 237.6 807.8 237.3Z" fill="#161616"/>
<path d="M807.1 227.1C821 225.5 833.5 219 842.8 208.5C844.1 207.1 842 204.9 840.7 206.4C832 216.3 820.2 222.6 807.1 224.1C805.3 224.3 805.2 227.3 807.1 227.1Z" fill="#161616"/>
<path d="M807.6 224.9C818.8 223.3 828.9 218.7 837.5 211.4C839 210.1 836.8 208 835.4 209.3C827.2 216.3 817.5 220.6 806.8 222.1C804.9 222.3 805.7 225.2 807.6 224.9Z" fill="#161616"/>
<path d="M807 227.4C807.5 229.8 807.4 234.6 810.4 235.4C813.3 236.2 817.7 232.8 820 231.4C827.9 226.6 834.5 220.1 839.7 212.5C840.8 210.9 838.2 209.4 837.1 211C833.4 216.5 828.9 221.4 823.6 225.4C821.1 227.3 818.5 228.9 815.8 230.4C814.7 231 812.2 232.7 811.1 232C810.4 231.6 810.1 227.3 810 226.6C809.5 224.7 806.6 225.5 807 227.4Z" fill="#161616"/>
<path d="M808.4 230.2C817 226.7 825.1 222.3 832.7 217C834.3 215.9 832.8 213.3 831.2 214.4C823.8 219.6 816 223.9 807.6 227.3C805.8 228 806.6 230.9 808.4 230.2Z" fill="#161616"/>
<path d="M809.9 233.2C819.5 229.8 827.9 224.5 834.9 217.1C836.2 215.7 834.1 213.6 832.8 215C826.1 221.9 818.2 227.1 809.1 230.3C807.3 231 808.1 233.9 809.9 233.2Z" fill="#161616"/>
<path d="M811.5 231.6C818.6 228.5 825.1 224.3 830.7 218.9C832.1 217.6 830 215.5 828.6 216.8C823.1 222 816.9 226 810 229C808.2 229.8 809.7 232.4 811.5 231.6Z" fill="#161616"/>
<path d="M738.9 119.9C737.9 126.2 739 132.3 742.4 137.7C743.1 138.8 744.7 138.6 745.1 137.3C747.5 130.4 744.1 123.6 740.7 117.7C740 116.4 737.9 117 737.9 118.5C738 123.8 739.1 129 741.1 133.9C741.8 135.7 744.7 134.9 744 133.1C742.1 128.4 741 123.6 740.9 118.5C740 118.8 739 119 738.1 119.3C741.2 124.6 744.4 130.4 742.2 136.6C743.1 136.5 744 136.4 744.9 136.2C741.9 131.5 740.8 126.2 741.7 120.7C742.1 118.8 739.2 118 738.9 119.9Z" fill="#161616"/>
<path d="M827.4 117.1C827.4 115.8 827.3 115.5 826.7 114.4C826 113.1 823.9 113.7 823.9 115.2C824 121.4 824.5 128.1 829.3 132.5C830.3 133.4 831.7 132.7 831.9 131.4C832.7 124 830.5 117.1 825.9 111.3C824.9 110.1 823.1 111.4 823.4 112.8C824.6 117.7 826.1 122.5 827.9 127.1C828.6 128.9 831.5 128.1 830.8 126.3C828.9 121.6 827.4 116.9 826.3 112C825.5 112.5 824.6 113 823.8 113.5C827.9 118.7 829.6 124.9 828.9 131.5C829.8 131.1 830.6 130.8 831.5 130.4C827.2 126.5 827 120.6 826.9 115.2C826 115.5 825 115.7 824.1 116C824.2 116.4 824.3 116.8 824.4 117.2C824.4 119 827.4 119 827.4 117.1Z" fill="#161616"/>
<path d="M774.4 136.8C772.4 142.8 770.7 148.9 769.6 155.1C769 158.4 766.9 164.6 768.4 167.9C771.4 174.6 784.7 170.5 789.3 168.3C791 167.5 789.5 164.9 787.8 165.7C784.1 167.5 780.1 168.4 776 168.1C773.6 167.9 771.7 167.5 771.2 164.8C770.9 163.3 771.9 159.4 772.2 157.7C773.4 150.8 775.2 144.1 777.4 137.5C777.9 135.8 775 135 774.4 136.8Z" fill="#161616"/>
<path d="M789.5 194.5C797 193.5 803.5 188.7 806.8 181.8C807.6 180.1 805 178.5 804.2 180.3C801.2 186.6 795.6 190.7 788.7 191.6C786.8 191.9 787.7 194.8 789.5 194.5Z" fill="#161616"/>
<path d="M732.6 111.3C734.5 109 738 108.6 740.4 110.6C741.9 111.9 744 109.7 742.5 108.5C739 105.5 733.6 105.7 730.5 109.2C729.2 110.6 731.3 112.7 732.6 111.3Z" fill="#161616"/>
<path d="M818.4 105.7C821.5 103 826.2 103 829.3 105.6C830.8 106.8 832.9 104.7 831.4 103.5C827 99.7 820.6 99.8 816.2 103.6C814.8 104.9 817 107 818.4 105.7Z" fill="#161616"/>
<path opacity="0.36" d="M823.1 219C825.7 227 828.3 235 830.9 243.1C834.5 254.1 838 265.2 841.5 276.2C843.5 275.8 848.4 274.4 852.7 270C857 265.6 858.4 260.8 858.9 258.8C855 251.1 850.4 239.4 848.8 224.6C848 216.9 848.2 210.1 848.8 204.4C840.3 209.3 831.7 214.2 823.1 219Z" fill="#3D3D3D"/>
<path opacity="0.43" d="M773.2 140.3C768.2 151 763.2 161.6 758.2 172.3C766.4 172.1 774.5 172 782.7 171.8C777.9 170.3 773 168.8 768.2 167.3C769.8 158.3 771.5 149.3 773.2 140.3Z" fill="#3D3D3D"/>
<path d="M879.9 165.5C890.233 167.333 911.7 163.8 914.9 135C918.1 106.2 892.9 118 879.9 127.5" stroke="#161616" stroke-width="3"/>
</svg>
